<?xml version="1.0" encoding="UTF-8" standalone="no"?>
<!DOCTYPE svg PUBLIC "-//W3C//DTD SVG 1.1//EN" "http://www.w3.org/Graphics/SVG/1.1/DTD/svg11.dtd">
<svg width="100%" height="100%" viewBox="0 0 95 95" version="1.1" xmlns="http://www.w3.org/2000/svg" xmlns:xlink="http://www.w3.org/1999/xlink" xml:space="preserve" xmlns:serif="http://www.serif.com/" style="fill-rule:evenodd;clip-rule:evenodd;stroke-miterlimit:10;">
    <g transform="matrix(1,0,0,1,-26.277,-26.277)">
        <g transform="matrix(0.671189,0,0,0.671189,29.1377,29.0719)">
            <path d="M82,86.8L13.7,86.8C10.9,86.8 8.7,84.6 8.7,81.8L8.7,13.5C8.7,10.7 10.9,8.5 13.7,8.5L82,8.5C84.8,8.5 87,10.7 87,13.5L87,81.8C87,84.5 84.8,86.8 82,86.8Z" style="fill:white;fill-rule:nonzero;stroke:rgb(32,45,73);stroke-width:2.5px;"/>
            <g transform="matrix(1,0,0,1,0,14.8989)">
                <path d="M8.7,17.7L87,17.7" style="fill:none;fill-rule:nonzero;stroke:rgb(32,45,73);stroke-width:2.5px;"/>
            </g>
            <g transform="matrix(1,0,0,1,0,-14.8989)">
                <path d="M21,57.4L46.6,57.4" style="fill:none;fill-rule:nonzero;stroke:rgb(32,45,73);stroke-width:2.5px;stroke-linecap:round;"/>
            </g>
            <g transform="matrix(1,0,0,1,0,-14.8989)">
                <path d="M27,65L65.2,65" style="fill:none;fill-rule:nonzero;stroke:rgb(32,45,73);stroke-width:2.5px;stroke-linecap:round;"/>
            </g>
            <g transform="matrix(1,0,0,1,0,-14.8989)">
                <path d="M27,72.5L65.2,72.5" style="fill:none;fill-rule:nonzero;stroke:rgb(32,45,73);stroke-width:2.5px;stroke-linecap:round;"/>
            </g>
            <g transform="matrix(1,0,0,1,0,11.9192)">
                <path d="M21,57.4L46.6,57.4" style="fill:none;fill-rule:nonzero;stroke:rgb(32,45,73);stroke-width:2.5px;stroke-linecap:round;"/>
            </g>
            <g transform="matrix(1,0,0,1,0,11.9192)">
                <path d="M27,65L65.2,65" style="fill:none;fill-rule:nonzero;stroke:rgb(32,45,73);stroke-width:2.5px;stroke-linecap:round;"/>
            </g>
        </g>
        <g transform="matrix(1.6677,0,0,1.6677,-75.4877,29.3035)">
            <text x="73.777px" y="10.991px" style="font-family:'Fredoka-Medium', 'Fredoka';font-weight:300;font-size:8.395px;fill:rgb(32,45,73);">IC50</text>
        </g>
    </g>
    <g transform="matrix(1,0,0,1,-13.7541,-13.5541)">
        <g transform="matrix(0.671189,0,0,0.671189,29.1377,29.0719)">
            <path d="M82,86.8L13.7,86.8C10.9,86.8 8.7,84.6 8.7,81.8L8.7,13.5C8.7,10.7 10.9,8.5 13.7,8.5L82,8.5C84.8,8.5 87,10.7 87,13.5L87,81.8C87,84.5 84.8,86.8 82,86.8Z" style="fill:white;fill-rule:nonzero;stroke:rgb(32,45,73);stroke-width:2.5px;"/>
            <g transform="matrix(1,0,0,1,0,14.8989)">
                <path d="M8.7,17.7L87,17.7" style="fill:none;fill-rule:nonzero;stroke:rgb(32,45,73);stroke-width:2.5px;"/>
            </g>
            <g transform="matrix(1,0,0,1,0,-14.8989)">
                <path d="M21,57.4L46.6,57.4" style="fill:none;fill-rule:nonzero;stroke:rgb(32,45,73);stroke-width:2.5px;stroke-linecap:round;"/>
            </g>
            <g transform="matrix(1,0,0,1,0,-14.8989)">
                <path d="M27,65L65.2,65" style="fill:none;fill-rule:nonzero;stroke:rgb(32,45,73);stroke-width:2.5px;stroke-linecap:round;"/>
            </g>
            <g transform="matrix(1,0,0,1,0,-14.8989)">
                <path d="M27,72.5L65.2,72.5" style="fill:none;fill-rule:nonzero;stroke:rgb(32,45,73);stroke-width:2.5px;stroke-linecap:round;"/>
            </g>
            <g transform="matrix(1,0,0,1,0,11.9192)">
                <path d="M21,57.4L46.6,57.4" style="fill:none;fill-rule:nonzero;stroke:rgb(32,45,73);stroke-width:2.5px;stroke-linecap:round;"/>
            </g>
            <g transform="matrix(1,0,0,1,0,11.9192)">
                <path d="M27,65L65.2,65" style="fill:none;fill-rule:nonzero;stroke:rgb(32,45,73);stroke-width:2.5px;stroke-linecap:round;"/>
            </g>
        </g>
        <g transform="matrix(1.6677,0,0,1.6677,-76.4877,29.3035)">
            <text x="73.777px" y="10.991px" style="font-family:'Fredoka-Medium', 'Fredoka';font-weight:300;font-size:8.395px;fill:rgb(32,45,73);">NMR</text>
        </g>
    </g>
    <g>
        <g transform="matrix(0.671189,0,0,0.671189,29.1377,29.0719)">
            <path d="M82,86.8L13.7,86.8C10.9,86.8 8.7,84.6 8.7,81.8L8.7,13.5C8.7,10.7 10.9,8.5 13.7,8.5L82,8.5C84.8,8.5 87,10.7 87,13.5L87,81.8C87,84.5 84.8,86.8 82,86.8Z" style="fill:white;fill-rule:nonzero;stroke:rgb(32,45,73);stroke-width:2.5px;"/>
            <g transform="matrix(1,0,0,1,0,14.8989)">
                <path d="M8.7,17.7L87,17.7" style="fill:none;fill-rule:nonzero;stroke:rgb(32,45,73);stroke-width:2.5px;"/>
            </g>
            <g transform="matrix(1,0,0,1,0,-14.8989)">
                <path d="M21,57.4L46.6,57.4" style="fill:none;fill-rule:nonzero;stroke:rgb(32,45,73);stroke-width:2.5px;stroke-linecap:round;"/>
            </g>
            <g transform="matrix(1,0,0,1,0,-14.8989)">
                <path d="M27,65L65.2,65" style="fill:none;fill-rule:nonzero;stroke:rgb(32,45,73);stroke-width:2.5px;stroke-linecap:round;"/>
            </g>
            <g transform="matrix(1,0,0,1,0,-14.8989)">
                <path d="M27,72.5L65.2,72.5" style="fill:none;fill-rule:nonzero;stroke:rgb(32,45,73);stroke-width:2.5px;stroke-linecap:round;"/>
            </g>
            <g transform="matrix(1,0,0,1,0,11.9192)">
                <path d="M21,57.4L46.6,57.4" style="fill:none;fill-rule:nonzero;stroke:rgb(32,45,73);stroke-width:2.5px;stroke-linecap:round;"/>
            </g>
            <g transform="matrix(1,0,0,1,0,11.9192)">
                <path d="M27,65L65.2,65" style="fill:none;fill-rule:nonzero;stroke:rgb(32,45,73);stroke-width:2.5px;stroke-linecap:round;"/>
            </g>
        </g>
        <g transform="matrix(1.6677,0,0,1.6677,-73.9166,29.3035)">
            <text x="73.777px" y="10.991px" style="font-family:'Fredoka-Medium', 'Fredoka';font-weight:300;font-size:8.395px;fill:rgb(218,86,73);">S<tspan x="78.126px " y="10.991px ">A</tspan>S</text>
        </g>
    </g>
</svg>
