<?xml version="1.0" encoding="UTF-8" standalone="no"?>
<!DOCTYPE svg PUBLIC "-//W3C//DTD SVG 1.1//EN" "http://www.w3.org/Graphics/SVG/1.1/DTD/svg11.dtd">
<svg width="100%" height="100%" viewBox="0 0 95 95" version="1.1" xmlns="http://www.w3.org/2000/svg" xmlns:xlink="http://www.w3.org/1999/xlink" xml:space="preserve" xmlns:serif="http://www.serif.com/" style="fill-rule:evenodd;clip-rule:evenodd;stroke-miterlimit:10;">
    <g>
        <g>
            <path d="M82,86.8L13.7,86.8C10.9,86.8 8.7,84.6 8.7,81.8L8.7,13.5C8.7,10.7 10.9,8.5 13.7,8.5L82,8.5C84.8,8.5 87,10.7 87,13.5L87,81.8C87,84.5 84.8,86.8 82,86.8Z" style="fill:none;fill-rule:nonzero;stroke:rgb(32,45,73);stroke-width:1.7px;"/>
            <g transform="matrix(1,0,0,1,-0.35,11.6306)">
                <path d="M8.7,17.7L87,17.7" style="fill:none;fill-rule:nonzero;stroke:rgb(32,45,73);stroke-width:1.7px;"/>
            </g>
        </g>
        <g transform="matrix(1,0,0,1,-0.163692,-15.4507)">
            <g transform="matrix(9,0,0,9,13.2921,62.9507)">
                <path d="M0.22,0.012C0.193,0.012 0.167,0.007 0.144,-0.004C0.12,-0.014 0.099,-0.029 0.082,-0.05C0.064,-0.071 0.05,-0.096 0.04,-0.128C0.03,-0.159 0.025,-0.195 0.025,-0.236C0.025,-0.275 0.029,-0.31 0.039,-0.341C0.048,-0.372 0.061,-0.397 0.078,-0.419C0.095,-0.44 0.115,-0.455 0.139,-0.466C0.163,-0.477 0.19,-0.482 0.219,-0.482C0.231,-0.482 0.243,-0.481 0.256,-0.479C0.268,-0.477 0.279,-0.473 0.29,-0.468C0.301,-0.463 0.31,-0.454 0.317,-0.443L0.317,-0.675L0.468,-0.675L0.468,-0.664C0.465,-0.66 0.462,-0.656 0.461,-0.651C0.46,-0.646 0.459,-0.638 0.46,-0.627L0.458,-0.056C0.458,-0.047 0.459,-0.037 0.46,-0.028C0.461,-0.019 0.464,-0.009 0.469,-0L0.331,-0C0.328,-0.007 0.325,-0.011 0.324,-0.014C0.323,-0.017 0.322,-0.02 0.322,-0.023L0.322,-0.037C0.314,-0.025 0.305,-0.015 0.294,-0.008C0.283,-0.001 0.272,0.005 0.259,0.008C0.246,0.011 0.233,0.012 0.22,0.012ZM0.245,-0.098C0.256,-0.098 0.267,-0.1 0.276,-0.105C0.284,-0.11 0.292,-0.117 0.299,-0.128C0.305,-0.138 0.31,-0.152 0.313,-0.17C0.316,-0.188 0.318,-0.21 0.318,-0.236C0.318,-0.271 0.315,-0.298 0.31,-0.319C0.305,-0.339 0.297,-0.353 0.286,-0.362C0.275,-0.371 0.261,-0.375 0.244,-0.375C0.231,-0.375 0.22,-0.372 0.21,-0.365C0.199,-0.358 0.191,-0.349 0.184,-0.337C0.177,-0.324 0.172,-0.309 0.169,-0.292C0.165,-0.274 0.163,-0.254 0.163,-0.232C0.163,-0.203 0.167,-0.179 0.176,-0.159C0.185,-0.139 0.195,-0.124 0.208,-0.114C0.221,-0.103 0.233,-0.098 0.245,-0.098Z" style="fill:rgb(218,86,73);fill-rule:nonzero;"/>
            </g>
            <g transform="matrix(9,0,0,9,17.7921,62.9507)">
                <path d="M0.27,0.012C0.237,0.012 0.206,0.007 0.177,-0.005C0.148,-0.016 0.122,-0.031 0.101,-0.052C0.079,-0.073 0.062,-0.098 0.05,-0.129C0.038,-0.159 0.032,-0.193 0.032,-0.231C0.032,-0.27 0.038,-0.305 0.05,-0.336C0.061,-0.367 0.077,-0.393 0.098,-0.415C0.118,-0.436 0.142,-0.453 0.169,-0.465C0.196,-0.476 0.226,-0.482 0.258,-0.482C0.285,-0.482 0.312,-0.477 0.337,-0.467C0.362,-0.457 0.384,-0.442 0.403,-0.423C0.422,-0.403 0.438,-0.379 0.449,-0.35C0.46,-0.321 0.466,-0.287 0.466,-0.25L0.466,-0.22C0.466,-0.208 0.466,-0.198 0.465,-0.191L0.168,-0.191C0.169,-0.174 0.173,-0.16 0.18,-0.149C0.187,-0.137 0.195,-0.127 0.206,-0.12C0.216,-0.112 0.227,-0.106 0.24,-0.103C0.252,-0.099 0.264,-0.097 0.277,-0.097C0.29,-0.097 0.303,-0.098 0.315,-0.1C0.327,-0.102 0.339,-0.106 0.35,-0.112C0.361,-0.117 0.372,-0.125 0.383,-0.136L0.453,-0.068C0.437,-0.049 0.419,-0.034 0.4,-0.022C0.381,-0.01 0.36,-0.001 0.338,0.004C0.316,0.009 0.293,0.012 0.27,0.012ZM0.169,-0.295L0.332,-0.295C0.332,-0.308 0.33,-0.32 0.327,-0.33C0.324,-0.339 0.319,-0.347 0.312,-0.354C0.305,-0.36 0.297,-0.365 0.287,-0.368C0.277,-0.371 0.266,-0.372 0.253,-0.372C0.242,-0.372 0.231,-0.371 0.222,-0.368C0.212,-0.365 0.203,-0.36 0.196,-0.354C0.189,-0.347 0.183,-0.339 0.178,-0.33C0.173,-0.32 0.17,-0.308 0.169,-0.295Z" style="fill:rgb(218,86,73);fill-rule:nonzero;"/>
            </g>
            <g transform="matrix(9,0,0,9,22.2921,62.9507)">
                <path d="M0.123,-0.361L0.022,-0.361L0.022,-0.471L0.123,-0.471L0.123,-0.492C0.123,-0.535 0.133,-0.571 0.154,-0.599C0.174,-0.627 0.2,-0.648 0.232,-0.662C0.264,-0.676 0.297,-0.683 0.332,-0.683C0.365,-0.683 0.396,-0.677 0.424,-0.666C0.452,-0.655 0.476,-0.639 0.497,-0.618L0.451,-0.525L0.447,-0.517L0.438,-0.522C0.435,-0.527 0.433,-0.532 0.431,-0.537C0.428,-0.542 0.422,-0.547 0.413,-0.554C0.401,-0.561 0.389,-0.567 0.378,-0.57C0.367,-0.573 0.354,-0.574 0.341,-0.574C0.324,-0.574 0.31,-0.571 0.299,-0.564C0.287,-0.557 0.278,-0.548 0.273,-0.536C0.267,-0.524 0.264,-0.51 0.264,-0.493L0.264,-0.471L0.398,-0.471L0.398,-0.361L0.264,-0.361L0.264,-0L0.123,-0L0.123,-0.361Z" style="fill:rgb(218,86,73);fill-rule:nonzero;"/>
            </g>
            <g transform="matrix(9,0,0,9,31.2921,62.9507)">
                <path d="M0.123,-0.361L0.022,-0.361L0.022,-0.471L0.123,-0.471L0.123,-0.492C0.123,-0.535 0.133,-0.571 0.154,-0.599C0.174,-0.627 0.2,-0.648 0.232,-0.662C0.264,-0.676 0.297,-0.683 0.332,-0.683C0.365,-0.683 0.396,-0.677 0.424,-0.666C0.452,-0.655 0.476,-0.639 0.497,-0.618L0.451,-0.525L0.447,-0.517L0.438,-0.522C0.435,-0.527 0.433,-0.532 0.431,-0.537C0.428,-0.542 0.422,-0.547 0.413,-0.554C0.401,-0.561 0.389,-0.567 0.378,-0.57C0.367,-0.573 0.354,-0.574 0.341,-0.574C0.324,-0.574 0.31,-0.571 0.299,-0.564C0.287,-0.557 0.278,-0.548 0.273,-0.536C0.267,-0.524 0.264,-0.51 0.264,-0.493L0.264,-0.471L0.398,-0.471L0.398,-0.361L0.264,-0.361L0.264,-0L0.123,-0L0.123,-0.361Z" style="fill:rgb(32,45,73);fill-rule:nonzero;"/>
            </g>
            <g transform="matrix(9,0,0,9,35.7921,62.9507)">
                <path d="M0.206,0.012C0.187,0.012 0.168,0.01 0.152,0.005C0.134,0 0.119,-0.007 0.106,-0.017C0.092,-0.027 0.08,-0.04 0.07,-0.055C0.06,-0.07 0.052,-0.089 0.047,-0.111C0.042,-0.132 0.039,-0.157 0.039,-0.185L0.039,-0.471L0.181,-0.471L0.181,-0.185C0.181,-0.17 0.182,-0.157 0.185,-0.146C0.187,-0.135 0.19,-0.127 0.195,-0.12C0.2,-0.113 0.205,-0.108 0.212,-0.105C0.218,-0.101 0.225,-0.1 0.232,-0.1C0.245,-0.1 0.256,-0.102 0.266,-0.106C0.275,-0.11 0.283,-0.116 0.29,-0.125C0.296,-0.133 0.301,-0.143 0.304,-0.155C0.307,-0.167 0.308,-0.181 0.308,-0.197L0.308,-0.471L0.451,-0.471L0.451,-0.076C0.451,-0.06 0.452,-0.046 0.453,-0.035C0.454,-0.023 0.456,-0.011 0.461,-0L0.334,-0C0.331,-0.006 0.328,-0.012 0.327,-0.018C0.326,-0.024 0.325,-0.03 0.325,-0.036C0.324,-0.042 0.324,-0.048 0.324,-0.054C0.317,-0.043 0.31,-0.033 0.301,-0.025C0.292,-0.016 0.282,-0.009 0.272,-0.004C0.261,0.001 0.251,0.005 0.24,0.008C0.229,0.011 0.217,0.012 0.206,0.012Z" style="fill:rgb(32,45,73);fill-rule:nonzero;"/>
            </g>
            <g transform="matrix(9,0,0,9,40.2921,62.9507)">
                <path d="M0.043,-0L0.043,-0.471L0.186,-0.471L0.186,-0.417C0.197,-0.43 0.208,-0.441 0.219,-0.451C0.23,-0.46 0.243,-0.468 0.258,-0.474C0.272,-0.479 0.288,-0.482 0.306,-0.482C0.334,-0.482 0.36,-0.475 0.385,-0.462C0.41,-0.448 0.43,-0.427 0.445,-0.398C0.46,-0.369 0.468,-0.33 0.468,-0.283L0.468,-0L0.326,-0L0.326,-0.282C0.326,-0.303 0.324,-0.321 0.32,-0.336C0.316,-0.35 0.31,-0.361 0.301,-0.368C0.292,-0.375 0.281,-0.379 0.268,-0.379C0.257,-0.379 0.247,-0.377 0.237,-0.373C0.227,-0.368 0.218,-0.362 0.211,-0.354C0.203,-0.346 0.197,-0.336 0.193,-0.325C0.188,-0.314 0.186,-0.301 0.186,-0.287L0.186,-0L0.043,-0Z" style="fill:rgb(32,45,73);fill-rule:nonzero;"/>
            </g>
            <g transform="matrix(9,0,0,9,44.7921,62.9507)">
                <path d="M0.274,0.012C0.239,0.012 0.207,0.006 0.177,-0.006C0.147,-0.017 0.121,-0.034 0.099,-0.056C0.076,-0.077 0.059,-0.103 0.047,-0.132C0.034,-0.161 0.028,-0.194 0.028,-0.229C0.028,-0.264 0.034,-0.296 0.047,-0.327C0.059,-0.358 0.076,-0.385 0.099,-0.408C0.121,-0.431 0.147,-0.449 0.177,-0.462C0.207,-0.475 0.24,-0.482 0.275,-0.482C0.322,-0.482 0.362,-0.474 0.395,-0.458C0.428,-0.441 0.455,-0.418 0.474,-0.389L0.399,-0.304L0.393,-0.297L0.384,-0.304C0.383,-0.309 0.383,-0.315 0.382,-0.321C0.381,-0.327 0.378,-0.334 0.371,-0.343C0.36,-0.354 0.347,-0.362 0.332,-0.366C0.317,-0.37 0.301,-0.372 0.282,-0.372C0.267,-0.372 0.253,-0.369 0.24,-0.363C0.227,-0.356 0.215,-0.347 0.204,-0.335C0.193,-0.323 0.185,-0.308 0.179,-0.29C0.173,-0.272 0.17,-0.251 0.17,-0.227C0.17,-0.206 0.173,-0.188 0.18,-0.172C0.186,-0.155 0.194,-0.142 0.205,-0.131C0.215,-0.12 0.227,-0.112 0.24,-0.107C0.253,-0.101 0.266,-0.098 0.279,-0.098C0.292,-0.098 0.306,-0.1 0.319,-0.103C0.332,-0.106 0.345,-0.112 0.358,-0.121C0.371,-0.129 0.383,-0.141 0.395,-0.156L0.471,-0.069C0.445,-0.04 0.414,-0.019 0.378,-0.007C0.342,0.006 0.307,0.012 0.274,0.012Z" style="fill:rgb(32,45,73);fill-rule:nonzero;"/>
            </g>
            <g transform="matrix(9,0,0,9,49.2921,62.9507)">
                <path d="M0.397,0.111C0.328,0.082 0.27,0.045 0.225,0.001C0.179,-0.043 0.145,-0.092 0.123,-0.148C0.101,-0.203 0.09,-0.26 0.09,-0.32C0.09,-0.38 0.101,-0.437 0.123,-0.49C0.145,-0.543 0.178,-0.592 0.223,-0.635C0.268,-0.678 0.324,-0.713 0.391,-0.742L0.425,-0.627C0.392,-0.61 0.363,-0.592 0.338,-0.571C0.313,-0.55 0.292,-0.528 0.275,-0.503C0.258,-0.478 0.245,-0.45 0.237,-0.419C0.228,-0.388 0.224,-0.354 0.224,-0.317C0.224,-0.28 0.229,-0.246 0.238,-0.215C0.247,-0.183 0.261,-0.154 0.279,-0.127C0.296,-0.1 0.318,-0.077 0.344,-0.056C0.37,-0.035 0.4,-0.016 0.434,-0L0.397,0.111Z" style="fill:rgb(32,45,73);fill-rule:nonzero;"/>
            </g>
            <g transform="matrix(9,0,0,9,53.7921,62.9507)">
                <path d="M0.015,-0L0.176,-0.233L0.017,-0.471L0.163,-0.471L0.25,-0.343L0.329,-0.471L0.47,-0.471L0.323,-0.239L0.489,-0L0.341,-0L0.249,-0.128L0.163,-0L0.015,-0Z" style="fill:rgb(32,45,73);fill-rule:nonzero;"/>
            </g>
            <g transform="matrix(9,0,0,9,58.2921,62.9507)">
                <path d="M0.223,0.172L0.143,0.107C0.162,0.09 0.175,0.074 0.184,0.059C0.192,0.044 0.196,0.031 0.196,0.02C0.196,0.012 0.194,0.005 0.19,-0.003C0.185,-0.01 0.18,-0.017 0.175,-0.025C0.169,-0.032 0.164,-0.041 0.16,-0.051C0.155,-0.06 0.153,-0.072 0.153,-0.086C0.153,-0.111 0.162,-0.13 0.181,-0.143C0.199,-0.156 0.219,-0.162 0.242,-0.162C0.273,-0.162 0.297,-0.152 0.314,-0.131C0.33,-0.11 0.338,-0.083 0.338,-0.05C0.338,-0.033 0.336,-0.015 0.331,0.003C0.326,0.02 0.319,0.038 0.31,0.057C0.301,0.075 0.289,0.094 0.275,0.113C0.26,0.132 0.243,0.152 0.223,0.172Z" style="fill:rgb(32,45,73);fill-rule:nonzero;"/>
            </g>
            <g transform="matrix(9,0,0,9,67.2921,62.9507)">
                <path d="M0.125,0.177C0.102,0.177 0.082,0.173 0.065,0.165C0.048,0.157 0.029,0.146 0.01,0.131L0.055,0.034L0.058,0.026L0.068,0.03C0.071,0.035 0.073,0.04 0.076,0.045C0.079,0.05 0.084,0.056 0.093,0.063C0.097,0.066 0.101,0.068 0.107,0.069C0.112,0.07 0.117,0.071 0.122,0.071C0.133,0.071 0.142,0.068 0.15,0.062C0.158,0.055 0.166,0.045 0.173,0.032C0.18,0.019 0.188,0.001 0.196,-0.021L0.306,-0.317C0.316,-0.344 0.324,-0.37 0.329,-0.395C0.334,-0.419 0.337,-0.444 0.337,-0.471L0.464,-0.471C0.463,-0.441 0.457,-0.409 0.445,-0.375C0.432,-0.34 0.42,-0.308 0.409,-0.278L0.293,0.033C0.273,0.086 0.249,0.124 0.222,0.145C0.195,0.166 0.162,0.177 0.125,0.177ZM0.021,-0.471L0.16,-0.471L0.289,-0.133L0.212,0.009L0.021,-0.471Z" style="fill:rgb(32,45,73);fill-rule:nonzero;"/>
            </g>
            <g transform="matrix(9,0,0,9,71.7921,62.9507)">
                <path d="M0.131,0.111L0.094,-0C0.128,-0.016 0.158,-0.035 0.184,-0.056C0.21,-0.077 0.232,-0.1 0.25,-0.127C0.267,-0.154 0.281,-0.183 0.29,-0.215C0.299,-0.246 0.304,-0.28 0.304,-0.317C0.304,-0.354 0.3,-0.388 0.292,-0.419C0.283,-0.45 0.271,-0.478 0.254,-0.503C0.237,-0.528 0.216,-0.55 0.191,-0.571C0.166,-0.592 0.136,-0.61 0.103,-0.627L0.137,-0.742C0.205,-0.713 0.261,-0.678 0.306,-0.635C0.35,-0.592 0.383,-0.543 0.405,-0.49C0.427,-0.437 0.438,-0.38 0.438,-0.32C0.438,-0.26 0.427,-0.203 0.405,-0.148C0.383,-0.092 0.349,-0.043 0.304,0.001C0.259,0.045 0.201,0.082 0.131,0.111Z" style="fill:rgb(32,45,73);fill-rule:nonzero;"/>
            </g>
            <g transform="matrix(9,0,0,9,76.2921,62.9507)">
                <path d="M0.233,-0.279C0.209,-0.279 0.189,-0.288 0.172,-0.306C0.155,-0.324 0.147,-0.344 0.147,-0.367C0.147,-0.39 0.155,-0.41 0.172,-0.428C0.189,-0.446 0.209,-0.455 0.233,-0.455C0.255,-0.455 0.275,-0.447 0.293,-0.43C0.311,-0.413 0.32,-0.392 0.32,-0.367C0.32,-0.344 0.312,-0.324 0.296,-0.306C0.279,-0.288 0.258,-0.279 0.233,-0.279ZM0.233,0.013C0.208,0.013 0.188,0.004 0.172,-0.014C0.155,-0.031 0.147,-0.051 0.147,-0.074C0.147,-0.097 0.155,-0.118 0.172,-0.137C0.189,-0.155 0.209,-0.164 0.233,-0.164C0.255,-0.164 0.275,-0.155 0.293,-0.138C0.311,-0.12 0.32,-0.099 0.32,-0.074C0.32,-0.052 0.312,-0.032 0.296,-0.014C0.279,0.004 0.258,0.013 0.233,0.013Z" style="fill:rgb(32,45,73);fill-rule:nonzero;"/>
            </g>
            <g transform="matrix(9,0,0,9,22.2921,71.9507)">
                <path d="M0.033,-0.08L0.273,-0.357L0.052,-0.357L0.052,-0.471L0.445,-0.471L0.445,-0.384L0.21,-0.114L0.419,-0.114C0.43,-0.114 0.438,-0.115 0.443,-0.116C0.448,-0.117 0.452,-0.119 0.456,-0.123L0.467,-0.123L0.467,-0L0.033,-0L0.033,-0.08Z" style="fill:rgb(32,45,73);fill-rule:nonzero;"/>
            </g>
            <g transform="matrix(9,0,0,9,31.2921,71.9507)">
                <path d="M0.041,-0.368L0.041,-0.473L0.464,-0.473L0.464,-0.368L0.041,-0.368ZM0.041,-0.158L0.041,-0.263L0.464,-0.263L0.464,-0.158L0.041,-0.158Z" style="fill:rgb(32,45,73);fill-rule:nonzero;"/>
            </g>
            <g transform="matrix(9,0,0,9,40.2921,71.9507)">
                <path d="M0.015,-0L0.176,-0.233L0.017,-0.471L0.163,-0.471L0.25,-0.343L0.329,-0.471L0.47,-0.471L0.323,-0.239L0.489,-0L0.341,-0L0.249,-0.128L0.163,-0L0.015,-0Z" style="fill:rgb(32,45,73);fill-rule:nonzero;"/>
            </g>
            <g transform="matrix(9,0,0,9,49.2921,71.9507)">
                <path d="M0.197,-0.103L0.197,-0.273L0.036,-0.273L0.036,-0.378L0.197,-0.378L0.197,-0.534L0.314,-0.534L0.314,-0.378L0.469,-0.378L0.469,-0.273L0.314,-0.273L0.314,-0.103L0.197,-0.103Z" style="fill:rgb(32,45,73);fill-rule:nonzero;"/>
            </g>
            <g transform="matrix(9,0,0,9,58.2921,71.9507)">
                <path d="M0.125,0.177C0.102,0.177 0.082,0.173 0.065,0.165C0.048,0.157 0.029,0.146 0.01,0.131L0.055,0.034L0.058,0.026L0.068,0.03C0.071,0.035 0.073,0.04 0.076,0.045C0.079,0.05 0.084,0.056 0.093,0.063C0.097,0.066 0.101,0.068 0.107,0.069C0.112,0.07 0.117,0.071 0.122,0.071C0.133,0.071 0.142,0.068 0.15,0.062C0.158,0.055 0.166,0.045 0.173,0.032C0.18,0.019 0.188,0.001 0.196,-0.021L0.306,-0.317C0.316,-0.344 0.324,-0.37 0.329,-0.395C0.334,-0.419 0.337,-0.444 0.337,-0.471L0.464,-0.471C0.463,-0.441 0.457,-0.409 0.445,-0.375C0.432,-0.34 0.42,-0.308 0.409,-0.278L0.293,0.033C0.273,0.086 0.249,0.124 0.222,0.145C0.195,0.166 0.162,0.177 0.125,0.177ZM0.021,-0.471L0.16,-0.471L0.289,-0.133L0.212,0.009L0.021,-0.471Z" style="fill:rgb(32,45,73);fill-rule:nonzero;"/>
            </g>
            <g transform="matrix(9,0,0,9,62.7921,71.9507)">
                <path d="M0.167,-0.098L0.052,-0.189L0.169,-0.305L0.025,-0.345L0.074,-0.472L0.198,-0.398L0.172,-0.547L0.341,-0.547L0.306,-0.398L0.425,-0.462L0.477,-0.339L0.332,-0.306L0.445,-0.189L0.329,-0.099L0.25,-0.239L0.167,-0.098Z" style="fill:rgb(32,45,73);fill-rule:nonzero;"/>
            </g>
            <g transform="matrix(9,0,0,9,67.2921,71.9507)">
                <path d="M0.167,-0.098L0.052,-0.189L0.169,-0.305L0.025,-0.345L0.074,-0.472L0.198,-0.398L0.172,-0.547L0.341,-0.547L0.306,-0.398L0.425,-0.462L0.477,-0.339L0.332,-0.306L0.445,-0.189L0.329,-0.099L0.25,-0.239L0.167,-0.098Z" style="fill:rgb(32,45,73);fill-rule:nonzero;"/>
            </g>
            <g transform="matrix(9,0,0,9,71.7921,71.9507)">
                <path d="M0.047,-0.102C0.087,-0.14 0.122,-0.173 0.152,-0.202C0.182,-0.231 0.208,-0.256 0.23,-0.279C0.251,-0.301 0.269,-0.321 0.283,-0.34C0.296,-0.359 0.306,-0.377 0.313,-0.395C0.319,-0.413 0.322,-0.432 0.322,-0.453C0.322,-0.463 0.321,-0.472 0.318,-0.48C0.315,-0.488 0.311,-0.495 0.305,-0.501C0.299,-0.506 0.291,-0.511 0.282,-0.514C0.272,-0.517 0.26,-0.519 0.246,-0.519C0.233,-0.519 0.222,-0.518 0.211,-0.516C0.2,-0.513 0.19,-0.509 0.181,-0.504C0.172,-0.499 0.163,-0.492 0.155,-0.483C0.148,-0.474 0.144,-0.468 0.143,-0.463C0.141,-0.458 0.14,-0.453 0.141,-0.448L0.134,-0.439L0.127,-0.444L0.032,-0.517C0.048,-0.543 0.067,-0.565 0.09,-0.582C0.113,-0.599 0.137,-0.612 0.165,-0.622C0.192,-0.631 0.219,-0.635 0.248,-0.635C0.285,-0.635 0.32,-0.628 0.351,-0.613C0.382,-0.598 0.406,-0.576 0.425,-0.55C0.444,-0.523 0.453,-0.491 0.453,-0.454C0.453,-0.429 0.45,-0.406 0.444,-0.385C0.438,-0.364 0.429,-0.343 0.418,-0.323C0.406,-0.303 0.391,-0.282 0.374,-0.261C0.357,-0.24 0.336,-0.217 0.313,-0.193C0.289,-0.169 0.262,-0.142 0.233,-0.113L0.406,-0.113C0.417,-0.113 0.425,-0.114 0.43,-0.115C0.435,-0.116 0.439,-0.119 0.443,-0.122L0.454,-0.122L0.454,-0L0.047,-0L0.047,-0.102Z" style="fill:rgb(32,45,73);fill-rule:nonzero;"/>
            </g>
            <g transform="matrix(9,0,0,9,22.2921,80.9507)">
                <path d="M0.069,-0.471L0.214,-0.471L0.214,-0.342L0.198,-0.346C0.2,-0.366 0.205,-0.384 0.214,-0.401C0.222,-0.417 0.233,-0.431 0.246,-0.444C0.259,-0.456 0.274,-0.465 0.291,-0.472C0.307,-0.479 0.324,-0.482 0.341,-0.482C0.368,-0.482 0.393,-0.478 0.414,-0.469C0.435,-0.46 0.455,-0.446 0.474,-0.427L0.416,-0.306L0.413,-0.298L0.403,-0.302C0.4,-0.307 0.398,-0.313 0.397,-0.32C0.396,-0.326 0.391,-0.333 0.384,-0.341C0.375,-0.348 0.366,-0.355 0.355,-0.36C0.343,-0.365 0.331,-0.367 0.318,-0.367C0.303,-0.367 0.289,-0.365 0.276,-0.36C0.263,-0.355 0.251,-0.348 0.242,-0.338C0.233,-0.328 0.225,-0.315 0.22,-0.3C0.215,-0.285 0.212,-0.266 0.212,-0.245L0.212,-0L0.069,-0L0.069,-0.471Z" style="fill:rgb(218,86,73);fill-rule:nonzero;"/>
            </g>
            <g transform="matrix(9,0,0,9,26.7921,80.9507)">
                <path d="M0.27,0.012C0.237,0.012 0.206,0.007 0.177,-0.005C0.148,-0.016 0.122,-0.031 0.101,-0.052C0.079,-0.073 0.062,-0.098 0.05,-0.129C0.038,-0.159 0.032,-0.193 0.032,-0.231C0.032,-0.27 0.038,-0.305 0.05,-0.336C0.061,-0.367 0.077,-0.393 0.098,-0.415C0.118,-0.436 0.142,-0.453 0.169,-0.465C0.196,-0.476 0.226,-0.482 0.258,-0.482C0.285,-0.482 0.312,-0.477 0.337,-0.467C0.362,-0.457 0.384,-0.442 0.403,-0.423C0.422,-0.403 0.438,-0.379 0.449,-0.35C0.46,-0.321 0.466,-0.287 0.466,-0.25L0.466,-0.22C0.466,-0.208 0.466,-0.198 0.465,-0.191L0.168,-0.191C0.169,-0.174 0.173,-0.16 0.18,-0.149C0.187,-0.137 0.195,-0.127 0.206,-0.12C0.216,-0.112 0.227,-0.106 0.24,-0.103C0.252,-0.099 0.264,-0.097 0.277,-0.097C0.29,-0.097 0.303,-0.098 0.315,-0.1C0.327,-0.102 0.339,-0.106 0.35,-0.112C0.361,-0.117 0.372,-0.125 0.383,-0.136L0.453,-0.068C0.437,-0.049 0.419,-0.034 0.4,-0.022C0.381,-0.01 0.36,-0.001 0.338,0.004C0.316,0.009 0.293,0.012 0.27,0.012ZM0.169,-0.295L0.332,-0.295C0.332,-0.308 0.33,-0.32 0.327,-0.33C0.324,-0.339 0.319,-0.347 0.312,-0.354C0.305,-0.36 0.297,-0.365 0.287,-0.368C0.277,-0.371 0.266,-0.372 0.253,-0.372C0.242,-0.372 0.231,-0.371 0.222,-0.368C0.212,-0.365 0.203,-0.36 0.196,-0.354C0.189,-0.347 0.183,-0.339 0.178,-0.33C0.173,-0.32 0.17,-0.308 0.169,-0.295Z" style="fill:rgb(218,86,73);fill-rule:nonzero;"/>
            </g>
            <g transform="matrix(9,0,0,9,31.2921,80.9507)">
                <path d="M0.299,0.012C0.274,0.012 0.252,0.008 0.231,0.001C0.21,-0.007 0.193,-0.02 0.178,-0.039C0.163,-0.057 0.152,-0.082 0.145,-0.114C0.138,-0.146 0.135,-0.187 0.137,-0.236L0.151,-0.576L0.295,-0.595L0.304,-0.596L0.305,-0.585C0.302,-0.58 0.3,-0.576 0.297,-0.571C0.294,-0.566 0.293,-0.558 0.292,-0.547L0.28,-0.393L0.286,-0.393L0.278,-0.243C0.276,-0.205 0.278,-0.175 0.283,-0.155C0.288,-0.133 0.295,-0.119 0.305,-0.111C0.314,-0.103 0.324,-0.099 0.335,-0.099C0.356,-0.099 0.375,-0.103 0.392,-0.112C0.409,-0.121 0.423,-0.13 0.436,-0.141L0.46,-0.042C0.437,-0.025 0.413,-0.012 0.387,-0.003C0.36,0.007 0.331,0.012 0.299,0.012ZM0.051,-0.471L0.429,-0.471L0.427,-0.361L0.049,-0.361L0.051,-0.471Z" style="fill:rgb(218,86,73);fill-rule:nonzero;"/>
            </g>
            <g transform="matrix(9,0,0,9,35.7921,80.9507)">
                <path d="M0.206,0.012C0.187,0.012 0.168,0.01 0.152,0.005C0.134,0 0.119,-0.007 0.106,-0.017C0.092,-0.027 0.08,-0.04 0.07,-0.055C0.06,-0.07 0.052,-0.089 0.047,-0.111C0.042,-0.132 0.039,-0.157 0.039,-0.185L0.039,-0.471L0.181,-0.471L0.181,-0.185C0.181,-0.17 0.182,-0.157 0.185,-0.146C0.187,-0.135 0.19,-0.127 0.195,-0.12C0.2,-0.113 0.205,-0.108 0.212,-0.105C0.218,-0.101 0.225,-0.1 0.232,-0.1C0.245,-0.1 0.256,-0.102 0.266,-0.106C0.275,-0.11 0.283,-0.116 0.29,-0.125C0.296,-0.133 0.301,-0.143 0.304,-0.155C0.307,-0.167 0.308,-0.181 0.308,-0.197L0.308,-0.471L0.451,-0.471L0.451,-0.076C0.451,-0.06 0.452,-0.046 0.453,-0.035C0.454,-0.023 0.456,-0.011 0.461,-0L0.334,-0C0.331,-0.006 0.328,-0.012 0.327,-0.018C0.326,-0.024 0.325,-0.03 0.325,-0.036C0.324,-0.042 0.324,-0.048 0.324,-0.054C0.317,-0.043 0.31,-0.033 0.301,-0.025C0.292,-0.016 0.282,-0.009 0.272,-0.004C0.261,0.001 0.251,0.005 0.24,0.008C0.229,0.011 0.217,0.012 0.206,0.012Z" style="fill:rgb(218,86,73);fill-rule:nonzero;"/>
            </g>
            <g transform="matrix(9,0,0,9,40.2921,80.9507)">
                <path d="M0.069,-0.471L0.214,-0.471L0.214,-0.342L0.198,-0.346C0.2,-0.366 0.205,-0.384 0.214,-0.401C0.222,-0.417 0.233,-0.431 0.246,-0.444C0.259,-0.456 0.274,-0.465 0.291,-0.472C0.307,-0.479 0.324,-0.482 0.341,-0.482C0.368,-0.482 0.393,-0.478 0.414,-0.469C0.435,-0.46 0.455,-0.446 0.474,-0.427L0.416,-0.306L0.413,-0.298L0.403,-0.302C0.4,-0.307 0.398,-0.313 0.397,-0.32C0.396,-0.326 0.391,-0.333 0.384,-0.341C0.375,-0.348 0.366,-0.355 0.355,-0.36C0.343,-0.365 0.331,-0.367 0.318,-0.367C0.303,-0.367 0.289,-0.365 0.276,-0.36C0.263,-0.355 0.251,-0.348 0.242,-0.338C0.233,-0.328 0.225,-0.315 0.22,-0.3C0.215,-0.285 0.212,-0.266 0.212,-0.245L0.212,-0L0.069,-0L0.069,-0.471Z" style="fill:rgb(218,86,73);fill-rule:nonzero;"/>
            </g>
            <g transform="matrix(9,0,0,9,44.7921,80.9507)">
                <path d="M0.043,-0L0.043,-0.471L0.186,-0.471L0.186,-0.417C0.197,-0.43 0.208,-0.441 0.219,-0.451C0.23,-0.46 0.243,-0.468 0.258,-0.474C0.272,-0.479 0.288,-0.482 0.306,-0.482C0.334,-0.482 0.36,-0.475 0.385,-0.462C0.41,-0.448 0.43,-0.427 0.445,-0.398C0.46,-0.369 0.468,-0.33 0.468,-0.283L0.468,-0L0.326,-0L0.326,-0.282C0.326,-0.303 0.324,-0.321 0.32,-0.336C0.316,-0.35 0.31,-0.361 0.301,-0.368C0.292,-0.375 0.281,-0.379 0.268,-0.379C0.257,-0.379 0.247,-0.377 0.237,-0.373C0.227,-0.368 0.218,-0.362 0.211,-0.354C0.203,-0.346 0.197,-0.336 0.193,-0.325C0.188,-0.314 0.186,-0.301 0.186,-0.287L0.186,-0L0.043,-0Z" style="fill:rgb(218,86,73);fill-rule:nonzero;"/>
            </g>
            <g transform="matrix(9,0,0,9,53.7921,80.9507)">
                <path d="M0.033,-0.08L0.273,-0.357L0.052,-0.357L0.052,-0.471L0.445,-0.471L0.445,-0.384L0.21,-0.114L0.419,-0.114C0.43,-0.114 0.438,-0.115 0.443,-0.116C0.448,-0.117 0.452,-0.119 0.456,-0.123L0.467,-0.123L0.467,-0L0.033,-0L0.033,-0.08Z" style="fill:rgb(32,45,73);fill-rule:nonzero;"/>
            </g>
        </g>
    </g>
    <g transform="matrix(1,0,0,1,5.92565,2.61083)">
        <path d="M15.463,20.283C15.251,20.283 15.094,20.25 14.992,20.184C14.89,20.118 14.824,20.029 14.794,19.917C14.764,19.805 14.749,19.681 14.749,19.545L14.749,12.621C14.749,12.493 14.764,12.376 14.794,12.27C14.824,12.164 14.891,12.077 14.995,12.009C15.099,11.941 15.263,11.907 15.487,11.907C15.651,11.907 15.776,11.917 15.862,11.937C15.948,11.957 16.015,11.985 16.063,12.021C16.111,12.057 16.159,12.103 16.207,12.159L19.129,16.251L18.853,16.251L21.793,12.141C21.849,12.077 21.905,12.029 21.961,11.997C22.017,11.965 22.089,11.942 22.177,11.928C22.265,11.914 22.381,11.907 22.525,11.907C22.745,11.907 22.906,11.941 23.008,12.009C23.11,12.077 23.176,12.167 23.206,12.279C23.236,12.391 23.251,12.513 23.251,12.645L23.251,19.569C23.251,19.693 23.236,19.81 23.206,19.92C23.176,20.03 23.109,20.118 23.005,20.184C22.901,20.25 22.737,20.283 22.513,20.283C22.297,20.283 22.138,20.249 22.036,20.181C21.934,20.113 21.868,20.022 21.838,19.908C21.808,19.794 21.793,19.673 21.793,19.545L21.793,14.397L19.615,17.553C19.587,17.589 19.549,17.633 19.501,17.685C19.453,17.737 19.389,17.782 19.309,17.82C19.229,17.858 19.123,17.877 18.991,17.877C18.859,17.877 18.754,17.858 18.676,17.82C18.598,17.782 18.536,17.738 18.49,17.688C18.444,17.638 18.401,17.589 18.361,17.541L16.195,14.403L16.195,19.569C16.195,19.693 16.18,19.81 16.15,19.92C16.12,20.03 16.054,20.118 15.952,20.184C15.85,20.25 15.687,20.283 15.463,20.283Z" style="fill:rgb(32,45,73);fill-rule:nonzero;stroke:rgb(32,45,73);stroke-width:0.4px;stroke-linejoin:round;stroke-miterlimit:2;"/>
        <path d="M31.075,11.985C31.303,12.145 31.429,12.297 31.453,12.441C31.477,12.585 31.421,12.755 31.285,12.951L28.609,16.995L28.609,19.575C28.609,19.707 28.595,19.828 28.567,19.938C28.539,20.048 28.474,20.136 28.372,20.202C28.27,20.268 28.105,20.301 27.877,20.301C27.649,20.301 27.484,20.268 27.382,20.202C27.28,20.136 27.215,20.046 27.187,19.932C27.159,19.818 27.145,19.691 27.145,19.551L27.145,16.989L24.457,12.963C24.317,12.763 24.264,12.59 24.298,12.444C24.332,12.298 24.461,12.149 24.685,11.997C24.849,11.885 24.988,11.818 25.102,11.796C25.216,11.774 25.321,11.794 25.417,11.856C25.513,11.918 25.605,12.023 25.693,12.171L27.859,15.591L30.055,12.171C30.151,12.023 30.245,11.919 30.337,11.859C30.429,11.799 30.534,11.779 30.652,11.799C30.77,11.819 30.911,11.881 31.075,11.985Z" style="fill:rgb(32,45,73);fill-rule:nonzero;stroke:rgb(32,45,73);stroke-width:0.4px;stroke-linejoin:round;stroke-miterlimit:2;"/>
        <path d="M39.517,20.343C39.125,20.343 38.729,20.284 38.329,20.166C37.929,20.048 37.546,19.872 37.18,19.638C36.814,19.404 36.488,19.112 36.202,18.762C35.916,18.412 35.69,18.008 35.524,17.55C35.358,17.092 35.275,16.581 35.275,16.017C35.275,15.469 35.358,14.973 35.524,14.529C35.69,14.085 35.915,13.695 36.199,13.359C36.483,13.023 36.808,12.742 37.174,12.516C37.54,12.29 37.925,12.119 38.329,12.003C38.733,11.887 39.135,11.827 39.535,11.823C39.939,11.823 40.289,11.867 40.585,11.955C40.881,12.043 41.122,12.136 41.308,12.234C41.494,12.332 41.617,12.401 41.677,12.441C41.805,12.521 41.927,12.611 42.043,12.711C42.159,12.811 42.221,12.935 42.229,13.083C42.237,13.175 42.225,13.259 42.193,13.335C42.161,13.411 42.117,13.489 42.061,13.569C41.965,13.709 41.87,13.811 41.776,13.875C41.682,13.939 41.587,13.971 41.491,13.971C41.403,13.971 41.321,13.947 41.245,13.899C41.169,13.851 41.075,13.791 40.963,13.719C40.911,13.683 40.823,13.632 40.699,13.566C40.575,13.5 40.412,13.438 40.21,13.38C40.008,13.322 39.761,13.293 39.469,13.293C39.125,13.293 38.789,13.354 38.461,13.476C38.133,13.598 37.839,13.777 37.579,14.013C37.319,14.249 37.113,14.54 36.961,14.886C36.809,15.232 36.733,15.629 36.733,16.077C36.733,16.529 36.81,16.928 36.964,17.274C37.118,17.62 37.325,17.911 37.585,18.147C37.845,18.383 38.139,18.562 38.467,18.684C38.795,18.806 39.129,18.867 39.469,18.867C39.741,18.867 39.976,18.84 40.174,18.786C40.372,18.732 40.54,18.668 40.678,18.594C40.816,18.52 40.921,18.461 40.993,18.417C41.081,18.361 41.165,18.309 41.245,18.261C41.325,18.213 41.409,18.189 41.497,18.189C41.593,18.189 41.687,18.222 41.779,18.288C41.871,18.354 41.963,18.459 42.055,18.603C42.111,18.687 42.155,18.77 42.187,18.852C42.219,18.934 42.231,19.019 42.223,19.107C42.215,19.251 42.153,19.372 42.037,19.47C41.921,19.568 41.799,19.655 41.671,19.731C41.607,19.767 41.484,19.836 41.302,19.938C41.12,20.04 40.881,20.133 40.585,20.217C40.289,20.301 39.933,20.343 39.517,20.343Z" style="fill:rgb(32,45,73);fill-rule:nonzero;stroke:rgb(32,45,73);stroke-width:0.4px;stroke-linejoin:round;stroke-miterlimit:2;"/>
        <path d="M47.395,20.385C46.82,20.385 46.281,20.276 45.779,20.058C45.277,19.84 44.834,19.537 44.452,19.149C44.07,18.761 43.771,18.312 43.555,17.803C43.339,17.293 43.231,16.747 43.231,16.165C43.231,15.566 43.336,15.005 43.547,14.48C43.757,13.956 44.048,13.496 44.42,13.1C44.791,12.705 45.223,12.395 45.715,12.171C46.206,11.947 46.732,11.835 47.292,11.835C47.869,11.835 48.409,11.944 48.911,12.162C49.413,12.379 49.853,12.683 50.23,13.074C50.607,13.465 50.903,13.92 51.117,14.44C51.332,14.959 51.439,15.519 51.439,16.119C51.439,16.702 51.334,17.251 51.124,17.765C50.914,18.28 50.623,18.734 50.25,19.129C49.876,19.524 49.446,19.832 48.96,20.053C48.473,20.274 47.951,20.385 47.395,20.385ZM47.329,18.927C47.697,18.927 48.042,18.855 48.364,18.711C48.686,18.567 48.968,18.367 49.21,18.111C49.452,17.855 49.641,17.556 49.777,17.214C49.913,16.873 49.981,16.505 49.981,16.112C49.981,15.725 49.912,15.361 49.774,15.021C49.636,14.681 49.445,14.381 49.201,14.121C48.957,13.861 48.677,13.658 48.359,13.512C48.041,13.366 47.701,13.293 47.339,13.293C46.977,13.293 46.635,13.366 46.315,13.512C45.995,13.658 45.713,13.86 45.469,14.118C45.225,14.376 45.034,14.676 44.896,15.019C44.758,15.362 44.689,15.728 44.689,16.119C44.689,16.503 44.759,16.866 44.899,17.206C45.04,17.547 45.231,17.846 45.472,18.103C45.714,18.361 45.994,18.562 46.311,18.708C46.628,18.854 46.968,18.927 47.329,18.927Z" style="fill:rgb(32,45,73);fill-rule:nonzero;stroke:rgb(32,45,73);stroke-width:0.4px;stroke-linejoin:round;stroke-miterlimit:2;"/>
        <path d="M53.137,20.283C52.929,20.283 52.774,20.249 52.672,20.181C52.57,20.113 52.502,20.023 52.468,19.911C52.434,19.799 52.417,19.677 52.417,19.545L52.417,12.615C52.417,12.487 52.432,12.368 52.462,12.258C52.492,12.148 52.559,12.059 52.663,11.991C52.767,11.923 52.929,11.891 53.149,11.895L55.411,11.901C55.995,11.901 56.532,12.002 57.022,12.204C57.512,12.406 57.937,12.691 58.297,13.059C58.657,13.427 58.935,13.865 59.131,14.373C59.327,14.881 59.425,15.439 59.425,16.047C59.425,16.671 59.326,17.242 59.128,17.76C58.93,18.278 58.651,18.725 58.291,19.101C57.931,19.477 57.504,19.768 57.01,19.974C56.516,20.18 55.971,20.283 55.375,20.283L53.137,20.283ZM53.869,18.825L55.411,18.825C55.919,18.825 56.365,18.711 56.749,18.483C57.133,18.255 57.432,17.937 57.646,17.529C57.86,17.121 57.967,16.645 57.967,16.101C57.967,15.553 57.86,15.073 57.646,14.661C57.432,14.249 57.132,13.929 56.746,13.701C56.36,13.473 55.911,13.359 55.399,13.359L53.869,13.359L53.869,18.825Z" style="fill:rgb(32,45,73);fill-rule:nonzero;stroke:rgb(32,45,73);stroke-width:0.4px;stroke-linejoin:round;stroke-miterlimit:2;"/>
        <path d="M61.717,20.289C61.493,20.289 61.33,20.256 61.228,20.19C61.126,20.124 61.062,20.034 61.036,19.92C61.01,19.806 60.997,19.683 60.997,19.551L60.997,12.627C60.997,12.351 61.052,12.161 61.162,12.057C61.272,11.953 61.469,11.901 61.753,11.901L66.433,11.901C66.569,11.901 66.691,11.915 66.799,11.943C66.907,11.971 66.993,12.036 67.057,12.138C67.121,12.24 67.153,12.407 67.153,12.639C67.153,12.863 67.12,13.026 67.054,13.128C66.988,13.23 66.9,13.294 66.79,13.32C66.68,13.346 66.557,13.359 66.421,13.359L62.449,13.359L62.449,15.375L65.185,15.375C65.321,15.375 65.438,15.388 65.536,15.414C65.634,15.44 65.711,15.498 65.767,15.588C65.823,15.678 65.851,15.827 65.851,16.035C65.851,16.231 65.823,16.375 65.767,16.467C65.711,16.559 65.631,16.616 65.527,16.638C65.423,16.66 65.301,16.671 65.161,16.671L62.449,16.671L62.449,18.831L66.433,18.831C66.569,18.831 66.691,18.845 66.799,18.873C66.907,18.901 66.993,18.966 67.057,19.068C67.121,19.17 67.153,19.335 67.153,19.563C67.153,19.787 67.12,19.95 67.054,20.052C66.988,20.154 66.9,20.219 66.79,20.247C66.68,20.275 66.557,20.289 66.421,20.289L61.717,20.289Z" style="fill:rgb(32,45,73);fill-rule:nonzero;stroke:rgb(32,45,73);stroke-width:0.4px;stroke-linejoin:round;stroke-miterlimit:2;"/>
    </g>
</svg>
