<?xml version="1.0" encoding="UTF-8" standalone="no"?>
<!DOCTYPE svg PUBLIC "-//W3C//DTD SVG 1.1//EN" "http://www.w3.org/Graphics/SVG/1.1/DTD/svg11.dtd">
<svg width="100%" height="100%" viewBox="0 0 95 95" version="1.1" xmlns="http://www.w3.org/2000/svg" xmlns:xlink="http://www.w3.org/1999/xlink" xml:space="preserve" xmlns:serif="http://www.serif.com/" style="fill-rule:evenodd;clip-rule:evenodd;stroke-miterlimit:10;">
    <g transform="matrix(1,0,0,1,-27.3926,-26.6926)">
        <g transform="matrix(0.671189,0,0,0.671189,29.1377,29.0719)">
            <path d="M82,86.8L13.7,86.8C10.9,86.8 8.7,84.6 8.7,81.8L8.7,13.5C8.7,10.7 10.9,8.5 13.7,8.5L82,8.5C84.8,8.5 87,10.7 87,13.5L87,81.8C87,84.5 84.8,86.8 82,86.8Z" style="fill:white;fill-rule:nonzero;stroke:rgb(32,45,73);stroke-width:1.79px;"/>
            <g transform="matrix(1,0,0,1,0,14.8989)">
                <path d="M8.7,17.7L87,17.7" style="fill:none;fill-rule:nonzero;stroke:rgb(32,45,73);stroke-width:1.79px;"/>
            </g>
            <g transform="matrix(1,0,0,1,0,-14.8989)">
                <path d="M21,57.4L46.6,57.4" style="fill:none;fill-rule:nonzero;stroke:rgb(32,45,73);stroke-width:1.79px;stroke-linecap:round;"/>
            </g>
            <g transform="matrix(1,0,0,1,0,-14.8989)">
                <path d="M27,65L65.2,65" style="fill:none;fill-rule:nonzero;stroke:rgb(32,45,73);stroke-width:1.79px;stroke-linecap:round;"/>
            </g>
            <g transform="matrix(1,0,0,1,0,-14.8989)">
                <path d="M27,72.5L65.2,72.5" style="fill:none;fill-rule:nonzero;stroke:rgb(32,45,73);stroke-width:1.79px;stroke-linecap:round;"/>
            </g>
            <g transform="matrix(1,0,0,1,0,11.9192)">
                <path d="M21,57.4L46.6,57.4" style="fill:none;fill-rule:nonzero;stroke:rgb(32,45,73);stroke-width:1.79px;stroke-linecap:round;"/>
            </g>
            <g transform="matrix(1,0,0,1,0,11.9192)">
                <path d="M27,65L65.2,65" style="fill:none;fill-rule:nonzero;stroke:rgb(32,45,73);stroke-width:1.79px;stroke-linecap:round;"/>
            </g>
        </g>
        <g transform="matrix(1.6677,0,0,1.6677,-75.4877,29.3035)">
            <path d="M74.65,11.003C74.589,11.003 74.54,10.995 74.503,10.978C74.467,10.961 74.442,10.933 74.428,10.894C74.414,10.855 74.407,10.805 74.407,10.743L74.407,5.396C74.407,5.334 74.415,5.285 74.432,5.249C74.449,5.212 74.475,5.186 74.512,5.169C74.548,5.152 74.597,5.144 74.658,5.144C74.72,5.144 74.769,5.152 74.805,5.169C74.842,5.186 74.867,5.212 74.881,5.249C74.895,5.285 74.902,5.337 74.902,5.404L74.902,10.752C74.902,10.813 74.894,10.862 74.877,10.899C74.86,10.935 74.833,10.961 74.797,10.978C74.761,10.995 74.712,11.003 74.65,11.003Z" style="fill:rgb(32,45,73);fill-rule:nonzero;stroke:rgb(32,45,73);stroke-width:0.3px;stroke-linejoin:round;stroke-miterlimit:2;"/>
            <path d="M78.948,10.995C78.618,10.995 78.307,10.947 78.016,10.852C77.725,10.757 77.46,10.621 77.219,10.445C76.978,10.269 76.771,10.056 76.598,9.807C76.424,9.558 76.29,9.281 76.195,8.976C76.1,8.671 76.052,8.345 76.052,7.998C76.052,7.657 76.1,7.338 76.195,7.041C76.29,6.744 76.424,6.479 76.598,6.244C76.771,6.009 76.978,5.806 77.219,5.635C77.46,5.464 77.725,5.333 78.016,5.24C78.307,5.148 78.618,5.099 78.948,5.094C79.228,5.094 79.466,5.12 79.662,5.173C79.858,5.226 80.017,5.284 80.14,5.345C80.263,5.407 80.35,5.454 80.401,5.488C80.468,5.527 80.533,5.573 80.598,5.627C80.662,5.68 80.7,5.737 80.711,5.799C80.722,5.855 80.721,5.897 80.707,5.925C80.693,5.953 80.678,5.981 80.661,6.009C80.638,6.048 80.61,6.076 80.577,6.092C80.543,6.109 80.507,6.118 80.468,6.118C80.417,6.118 80.373,6.101 80.333,6.067C80.294,6.034 80.244,5.997 80.182,5.958C80.149,5.936 80.076,5.897 79.964,5.841C79.852,5.785 79.708,5.732 79.532,5.681C79.355,5.631 79.15,5.606 78.915,5.606C78.579,5.606 78.267,5.664 77.979,5.782C77.69,5.899 77.44,6.066 77.227,6.281C77.015,6.497 76.85,6.753 76.732,7.05C76.614,7.346 76.556,7.676 76.556,8.04C76.556,8.404 76.614,8.735 76.732,9.035C76.85,9.334 77.015,9.592 77.227,9.807C77.44,10.023 77.69,10.189 77.979,10.307C78.267,10.424 78.579,10.483 78.915,10.483C79.15,10.483 79.355,10.458 79.532,10.407C79.708,10.357 79.852,10.302 79.964,10.244C80.076,10.185 80.149,10.147 80.182,10.13C80.244,10.097 80.294,10.063 80.333,10.03C80.373,9.996 80.417,9.979 80.468,9.979C80.507,9.979 80.543,9.986 80.577,10C80.61,10.014 80.638,10.041 80.661,10.08C80.678,10.102 80.693,10.13 80.707,10.164C80.721,10.198 80.722,10.242 80.711,10.298C80.7,10.36 80.662,10.417 80.598,10.47C80.533,10.524 80.468,10.57 80.401,10.609C80.35,10.637 80.262,10.683 80.136,10.747C80.01,10.812 79.849,10.869 79.653,10.919C79.458,10.97 79.222,10.995 78.948,10.995Z" style="fill:rgb(32,45,73);fill-rule:nonzero;stroke:rgb(32,45,73);stroke-width:0.3px;stroke-linejoin:round;stroke-miterlimit:2;"/>
            <path d="M83.397,11.02C83.23,11.02 83.076,11.009 82.936,10.987C82.796,10.964 82.664,10.932 82.541,10.89C82.418,10.848 82.301,10.796 82.189,10.735C82.077,10.673 81.965,10.6 81.853,10.517C81.802,10.477 81.763,10.445 81.735,10.42C81.707,10.395 81.693,10.363 81.693,10.323C81.693,10.301 81.699,10.276 81.71,10.248C81.721,10.22 81.744,10.181 81.777,10.13C81.816,10.074 81.853,10.037 81.886,10.017C81.92,9.997 81.948,9.988 81.97,9.988C81.987,9.988 82.011,9.993 82.042,10.004C82.072,10.016 82.116,10.046 82.172,10.097C82.261,10.17 82.355,10.238 82.453,10.302C82.551,10.367 82.67,10.419 82.81,10.458C82.95,10.497 83.126,10.517 83.339,10.517C83.602,10.517 83.833,10.463 84.031,10.357C84.23,10.251 84.385,10.097 84.497,9.895C84.609,9.694 84.665,9.456 84.665,9.182C84.665,8.919 84.608,8.686 84.493,8.485C84.378,8.284 84.223,8.125 84.027,8.011C83.831,7.896 83.613,7.839 83.372,7.839C83.266,7.839 83.16,7.851 83.053,7.876C82.947,7.902 82.848,7.938 82.755,7.986C82.663,8.033 82.58,8.093 82.508,8.166C82.474,8.2 82.45,8.223 82.436,8.237C82.422,8.251 82.404,8.264 82.382,8.275C82.343,8.298 82.303,8.309 82.264,8.309C82.225,8.309 82.163,8.295 82.079,8.267C82.007,8.239 81.951,8.211 81.912,8.183C81.872,8.155 81.853,8.107 81.853,8.04L82.231,5.413C82.242,5.357 82.254,5.309 82.268,5.27C82.282,5.231 82.306,5.198 82.34,5.173C82.373,5.148 82.421,5.138 82.482,5.144L84.749,5.144C84.805,5.144 84.848,5.152 84.879,5.169C84.91,5.186 84.932,5.212 84.946,5.249C84.96,5.285 84.967,5.334 84.967,5.396C84.967,5.452 84.96,5.496 84.946,5.53C84.932,5.564 84.91,5.587 84.879,5.601C84.848,5.615 84.805,5.622 84.749,5.622L82.709,5.622L82.407,7.688C82.496,7.615 82.596,7.555 82.705,7.507C82.814,7.459 82.926,7.422 83.041,7.394C83.155,7.366 83.266,7.352 83.372,7.352L83.439,7.352C83.669,7.352 83.887,7.398 84.094,7.49C84.301,7.583 84.485,7.71 84.644,7.872C84.804,8.034 84.931,8.222 85.026,8.435C85.121,8.647 85.169,8.874 85.169,9.115C85.169,9.49 85.09,9.82 84.934,10.105C84.777,10.391 84.566,10.614 84.3,10.777C84.034,10.939 83.733,11.02 83.397,11.02Z" style="fill:rgb(32,45,73);fill-rule:nonzero;stroke:rgb(32,45,73);stroke-width:0.3px;stroke-linejoin:round;stroke-miterlimit:2;"/>
            <path d="M88.157,11.02C87.889,11.02 87.645,10.98 87.427,10.899C87.209,10.817 87.016,10.696 86.848,10.533C86.68,10.371 86.54,10.17 86.428,9.929C86.316,9.688 86.232,9.411 86.176,9.098C86.12,8.784 86.092,8.435 86.092,8.048C86.092,7.668 86.12,7.322 86.176,7.012C86.232,6.701 86.316,6.427 86.428,6.189C86.54,5.951 86.678,5.75 86.844,5.585C87.009,5.42 87.2,5.295 87.419,5.211C87.637,5.127 87.877,5.085 88.141,5.085C88.398,5.085 88.633,5.127 88.846,5.211C89.058,5.295 89.246,5.42 89.408,5.585C89.57,5.75 89.708,5.953 89.819,6.193C89.931,6.434 90.015,6.71 90.071,7.02C90.127,7.331 90.155,7.676 90.155,8.057C90.155,8.437 90.127,8.783 90.071,9.094C90.015,9.404 89.933,9.68 89.824,9.921C89.715,10.161 89.579,10.363 89.417,10.525C89.254,10.687 89.068,10.81 88.858,10.894C88.648,10.978 88.415,11.02 88.157,11.02ZM88.115,10.517C88.423,10.517 88.674,10.452 88.867,10.323C89.06,10.195 89.211,10.03 89.32,9.828C89.429,9.627 89.507,9.414 89.555,9.19C89.603,8.966 89.632,8.756 89.643,8.561C89.654,8.365 89.66,8.211 89.66,8.099L89.66,8.048C89.66,7.528 89.603,7.083 89.488,6.714C89.373,6.344 89.202,6.063 88.976,5.87C88.749,5.677 88.468,5.58 88.132,5.58C87.791,5.58 87.505,5.677 87.276,5.87C87.046,6.063 86.874,6.343 86.76,6.71C86.645,7.076 86.587,7.525 86.587,8.057C86.587,8.577 86.645,9.021 86.76,9.387C86.874,9.754 87.045,10.034 87.272,10.227C87.498,10.42 87.78,10.517 88.115,10.517Z" style="fill:rgb(32,45,73);fill-rule:nonzero;stroke:rgb(32,45,73);stroke-width:0.3px;stroke-linejoin:round;stroke-miterlimit:2;"/>
        </g>
    </g>
    <g transform="matrix(1,0,0,1,-13.8696,-13.9696)">
        <g transform="matrix(0.671189,0,0,0.671189,29.1377,29.0719)">
            <path d="M82,86.8L13.7,86.8C10.9,86.8 8.7,84.6 8.7,81.8L8.7,13.5C8.7,10.7 10.9,8.5 13.7,8.5L82,8.5C84.8,8.5 87,10.7 87,13.5L87,81.8C87,84.5 84.8,86.8 82,86.8Z" style="fill:white;fill-rule:nonzero;stroke:rgb(32,45,73);stroke-width:1.79px;"/>
            <g transform="matrix(1,0,0,1,0,14.8989)">
                <path d="M8.7,17.7L87,17.7" style="fill:none;fill-rule:nonzero;stroke:rgb(32,45,73);stroke-width:1.79px;"/>
            </g>
            <g transform="matrix(1,0,0,1,0,-14.8989)">
                <path d="M21,57.4L46.6,57.4" style="fill:none;fill-rule:nonzero;stroke:rgb(32,45,73);stroke-width:1.79px;stroke-linecap:round;"/>
            </g>
            <g transform="matrix(1,0,0,1,0,-14.8989)">
                <path d="M27,65L65.2,65" style="fill:none;fill-rule:nonzero;stroke:rgb(32,45,73);stroke-width:1.79px;stroke-linecap:round;"/>
            </g>
            <g transform="matrix(1,0,0,1,0,-14.8989)">
                <path d="M27,72.5L65.2,72.5" style="fill:none;fill-rule:nonzero;stroke:rgb(32,45,73);stroke-width:1.79px;stroke-linecap:round;"/>
            </g>
            <g transform="matrix(1,0,0,1,0,11.9192)">
                <path d="M21,57.4L46.6,57.4" style="fill:none;fill-rule:nonzero;stroke:rgb(32,45,73);stroke-width:1.79px;stroke-linecap:round;"/>
            </g>
            <g transform="matrix(1,0,0,1,0,11.9192)">
                <path d="M27,65L65.2,65" style="fill:none;fill-rule:nonzero;stroke:rgb(32,45,73);stroke-width:1.79px;stroke-linecap:round;"/>
            </g>
        </g>
        <g transform="matrix(1.6677,0,0,1.6677,-76.4877,29.3035)">
            <path d="M74.658,10.995C74.608,10.995 74.566,10.985 74.533,10.966C74.499,10.946 74.472,10.917 74.453,10.878C74.433,10.838 74.423,10.791 74.423,10.735L74.423,5.362C74.423,5.312 74.435,5.271 74.457,5.24C74.479,5.21 74.512,5.186 74.554,5.169C74.596,5.152 74.644,5.144 74.7,5.144C74.784,5.144 74.846,5.148 74.885,5.156C74.924,5.165 74.964,5.191 75.003,5.236L78.512,10.248L78.512,5.362C78.512,5.312 78.521,5.271 78.541,5.24C78.561,5.21 78.59,5.186 78.629,5.169C78.668,5.152 78.716,5.144 78.772,5.144C78.822,5.144 78.866,5.154 78.902,5.173C78.938,5.193 78.965,5.222 78.982,5.261C78.999,5.301 79.007,5.348 79.007,5.404L79.007,10.743C79.007,10.799 78.994,10.845 78.969,10.882C78.944,10.918 78.909,10.946 78.864,10.966C78.82,10.985 78.769,10.995 78.713,10.995C78.657,10.995 78.607,10.987 78.562,10.97C78.517,10.953 78.473,10.917 78.428,10.861L74.919,5.908L74.919,10.743C74.919,10.799 74.909,10.845 74.889,10.882C74.87,10.918 74.84,10.946 74.801,10.966C74.762,10.985 74.714,10.995 74.658,10.995Z" style="fill:rgb(32,45,73);fill-rule:nonzero;stroke:rgb(32,45,73);stroke-width:0.3px;stroke-linejoin:round;stroke-miterlimit:2;"/>
            <path d="M80.761,11.003C80.711,11.003 80.668,10.994 80.631,10.974C80.595,10.954 80.567,10.925 80.547,10.886C80.528,10.847 80.518,10.799 80.518,10.743L80.518,5.387C80.518,5.331 80.528,5.287 80.547,5.253C80.567,5.219 80.596,5.193 80.636,5.173C80.675,5.154 80.722,5.144 80.778,5.144C80.834,5.144 80.882,5.147 80.921,5.152C80.96,5.158 80.995,5.169 81.026,5.186C81.057,5.203 81.086,5.228 81.114,5.261L83.465,8.754L83.129,8.754L85.513,5.228C85.535,5.2 85.562,5.18 85.593,5.169C85.623,5.158 85.66,5.151 85.702,5.148C85.744,5.145 85.79,5.144 85.84,5.144C85.896,5.144 85.942,5.154 85.979,5.173C86.015,5.193 86.043,5.222 86.063,5.261C86.082,5.301 86.092,5.348 86.092,5.404L86.092,10.76C86.092,10.81 86.082,10.854 86.063,10.89C86.043,10.926 86.014,10.954 85.975,10.974C85.935,10.994 85.888,11.003 85.832,11.003C85.782,11.003 85.738,10.994 85.702,10.974C85.665,10.954 85.637,10.925 85.618,10.886C85.598,10.847 85.588,10.799 85.588,10.743L85.588,5.925L83.523,9.005C83.507,9.028 83.487,9.047 83.465,9.064C83.442,9.081 83.417,9.094 83.389,9.102C83.361,9.11 83.33,9.115 83.297,9.115C83.263,9.115 83.235,9.11 83.213,9.102C83.19,9.094 83.169,9.081 83.15,9.064C83.13,9.047 83.104,9.022 83.07,8.989L81.013,5.925L81.013,10.76C81.013,10.81 81.004,10.854 80.984,10.89C80.964,10.926 80.936,10.954 80.9,10.974C80.864,10.994 80.817,11.003 80.761,11.003Z" style="fill:rgb(32,45,73);fill-rule:nonzero;stroke:rgb(32,45,73);stroke-width:0.3px;stroke-linejoin:round;stroke-miterlimit:2;"/>
            <path d="M87.78,11.003C87.718,11.003 87.669,10.995 87.633,10.978C87.596,10.961 87.571,10.933 87.557,10.894C87.543,10.855 87.536,10.805 87.536,10.743L87.536,5.387C87.536,5.331 87.546,5.287 87.565,5.253C87.585,5.219 87.613,5.193 87.649,5.173C87.686,5.154 87.732,5.144 87.788,5.144L89.694,5.144C89.99,5.144 90.249,5.183 90.47,5.261C90.691,5.34 90.877,5.454 91.028,5.606C91.179,5.757 91.293,5.946 91.368,6.172C91.444,6.399 91.482,6.661 91.482,6.957C91.482,7.131 91.454,7.321 91.398,7.528C91.342,7.735 91.255,7.931 91.137,8.116C91.02,8.3 90.865,8.451 90.672,8.569C90.478,8.686 90.242,8.745 89.962,8.745L88.031,8.745L88.031,10.752C88.031,10.813 88.023,10.862 88.006,10.899C87.989,10.935 87.963,10.961 87.926,10.978C87.89,10.995 87.841,11.003 87.78,11.003ZM91.406,10.945C91.333,10.984 91.268,10.992 91.209,10.97C91.15,10.947 91.101,10.9 91.062,10.827L89.786,8.661L90.306,8.569L91.507,10.567C91.546,10.628 91.568,10.682 91.574,10.726C91.58,10.771 91.568,10.81 91.54,10.844C91.512,10.878 91.468,10.911 91.406,10.945ZM88.031,8.267L89.945,8.267C90.096,8.267 90.235,8.239 90.361,8.183C90.487,8.127 90.596,8.043 90.688,7.931C90.781,7.819 90.853,7.682 90.907,7.52C90.96,7.357 90.986,7.167 90.986,6.949C90.986,6.663 90.937,6.424 90.839,6.231C90.741,6.038 90.596,5.892 90.403,5.794C90.21,5.697 89.968,5.648 89.677,5.648L88.031,5.648L88.031,8.267Z" style="fill:rgb(32,45,73);fill-rule:nonzero;stroke:rgb(32,45,73);stroke-width:0.3px;stroke-linejoin:round;stroke-miterlimit:2;"/>
        </g>
    </g>
    <g transform="matrix(1,0,0,1,-0.115558,-0.415558)">
        <g transform="matrix(0.671189,0,0,0.671189,29.1377,29.0719)">
            <path d="M82,86.8L13.7,86.8C10.9,86.8 8.7,84.6 8.7,81.8L8.7,13.5C8.7,10.7 10.9,8.5 13.7,8.5L82,8.5C84.8,8.5 87,10.7 87,13.5L87,81.8C87,84.5 84.8,86.8 82,86.8Z" style="fill:white;fill-rule:nonzero;stroke:rgb(32,45,73);stroke-width:1.79px;"/>
            <g transform="matrix(1,0,0,1,0,14.8989)">
                <path d="M8.7,17.7L87,17.7" style="fill:none;fill-rule:nonzero;stroke:rgb(32,45,73);stroke-width:1.79px;"/>
            </g>
            <g transform="matrix(1,0,0,1,0,-14.8989)">
                <path d="M21,57.4L46.6,57.4" style="fill:none;fill-rule:nonzero;stroke:rgb(32,45,73);stroke-width:1.79px;stroke-linecap:round;"/>
            </g>
            <g transform="matrix(1,0,0,1,0,-14.8989)">
                <path d="M27,65L65.2,65" style="fill:none;fill-rule:nonzero;stroke:rgb(32,45,73);stroke-width:1.79px;stroke-linecap:round;"/>
            </g>
            <g transform="matrix(1,0,0,1,0,-14.8989)">
                <path d="M27,72.5L65.2,72.5" style="fill:none;fill-rule:nonzero;stroke:rgb(32,45,73);stroke-width:1.79px;stroke-linecap:round;"/>
            </g>
            <g transform="matrix(1,0,0,1,0,11.9192)">
                <path d="M21,57.4L46.6,57.4" style="fill:none;fill-rule:nonzero;stroke:rgb(32,45,73);stroke-width:1.79px;stroke-linecap:round;"/>
            </g>
            <g transform="matrix(1,0,0,1,0,11.9192)">
                <path d="M27,65L65.2,65" style="fill:none;fill-rule:nonzero;stroke:rgb(32,45,73);stroke-width:1.79px;stroke-linecap:round;"/>
            </g>
        </g>
        <g transform="matrix(1.6677,0,0,1.6677,-73.9166,29.3035)">
            <path d="M76.052,11.079C75.884,11.079 75.715,11.059 75.544,11.02C75.373,10.981 75.21,10.924 75.053,10.848C74.896,10.773 74.752,10.68 74.621,10.571C74.489,10.462 74.381,10.337 74.298,10.198C74.258,10.13 74.23,10.076 74.214,10.034C74.197,9.992 74.195,9.951 74.209,9.912C74.223,9.873 74.261,9.834 74.323,9.795C74.395,9.744 74.457,9.723 74.507,9.732C74.558,9.74 74.603,9.767 74.642,9.811C74.681,9.856 74.723,9.912 74.768,9.979C74.908,10.186 75.096,10.339 75.334,10.437C75.572,10.535 75.8,10.584 76.018,10.584C76.304,10.584 76.561,10.545 76.791,10.466C77.02,10.388 77.204,10.269 77.341,10.109C77.478,9.95 77.546,9.744 77.546,9.492C77.546,9.285 77.503,9.109 77.416,8.964C77.329,8.818 77.211,8.695 77.059,8.594C76.908,8.493 76.742,8.408 76.56,8.338C76.378,8.268 76.189,8.202 75.993,8.141C75.831,8.09 75.67,8.034 75.511,7.973C75.351,7.911 75.201,7.84 75.061,7.759C74.922,7.678 74.798,7.583 74.692,7.473C74.586,7.364 74.502,7.234 74.44,7.083C74.379,6.932 74.348,6.753 74.348,6.546C74.348,6.249 74.419,5.99 74.562,5.769C74.705,5.548 74.905,5.375 75.162,5.249C75.42,5.123 75.719,5.06 76.06,5.06C76.245,5.06 76.421,5.08 76.589,5.119C76.757,5.158 76.91,5.21 77.047,5.274C77.184,5.338 77.304,5.408 77.408,5.484C77.511,5.559 77.594,5.636 77.655,5.715C77.728,5.799 77.77,5.869 77.781,5.925C77.793,5.981 77.759,6.042 77.681,6.109C77.613,6.165 77.552,6.192 77.496,6.189C77.44,6.186 77.381,6.151 77.32,6.084C77.191,5.933 77.058,5.82 76.921,5.744C76.784,5.669 76.644,5.618 76.501,5.593C76.358,5.568 76.209,5.555 76.052,5.555C75.879,5.555 75.718,5.576 75.569,5.618C75.421,5.66 75.292,5.725 75.183,5.811C75.074,5.898 74.99,6.003 74.931,6.126C74.873,6.249 74.843,6.392 74.843,6.554C74.843,6.722 74.881,6.866 74.957,6.987C75.032,7.107 75.136,7.21 75.267,7.297C75.399,7.384 75.547,7.461 75.712,7.528C75.877,7.595 76.049,7.657 76.228,7.713C76.447,7.78 76.663,7.858 76.879,7.948C77.094,8.037 77.289,8.146 77.462,8.275C77.636,8.404 77.776,8.565 77.882,8.758C77.988,8.951 78.042,9.187 78.042,9.467C78.042,9.719 77.993,9.946 77.895,10.147C77.797,10.349 77.657,10.518 77.475,10.655C77.293,10.792 77.082,10.897 76.841,10.97C76.6,11.043 76.337,11.079 76.052,11.079Z" style="fill:rgb(218,86,73);fill-rule:nonzero;stroke:rgb(218,86,73);stroke-width:0.3px;stroke-linejoin:round;stroke-miterlimit:2;"/>
            <path d="M83.842,10.642C83.87,10.693 83.886,10.739 83.889,10.781C83.891,10.823 83.88,10.859 83.855,10.89C83.83,10.921 83.789,10.95 83.733,10.978C83.644,11.017 83.572,11.022 83.519,10.991C83.466,10.96 83.42,10.906 83.381,10.827L81.064,5.841L78.755,10.81C78.716,10.894 78.67,10.95 78.617,10.978C78.563,11.006 78.489,11.003 78.394,10.97C78.338,10.947 78.299,10.918 78.277,10.882C78.254,10.845 78.249,10.799 78.26,10.743C78.271,10.687 78.293,10.623 78.327,10.55L80.837,5.295C80.859,5.25 80.892,5.214 80.934,5.186C80.976,5.158 81.022,5.144 81.072,5.144C81.106,5.144 81.136,5.149 81.164,5.161C81.192,5.172 81.218,5.189 81.24,5.211C81.262,5.233 81.282,5.264 81.299,5.303L83.842,10.642ZM79.402,9.173L79.569,8.754L82.575,8.754L82.734,9.173L79.402,9.173Z" style="fill:rgb(218,86,73);fill-rule:nonzero;stroke:rgb(218,86,73);stroke-width:0.3px;stroke-linejoin:round;stroke-miterlimit:2;"/>
            <path d="M86.285,11.079C86.117,11.079 85.948,11.059 85.777,11.02C85.607,10.981 85.443,10.924 85.286,10.848C85.13,10.773 84.985,10.68 84.854,10.571C84.722,10.462 84.615,10.337 84.531,10.198C84.492,10.13 84.464,10.076 84.447,10.034C84.43,9.992 84.429,9.951 84.443,9.912C84.457,9.873 84.494,9.834 84.556,9.795C84.629,9.744 84.69,9.723 84.741,9.732C84.791,9.74 84.836,9.767 84.875,9.811C84.914,9.856 84.956,9.912 85.001,9.979C85.141,10.186 85.33,10.339 85.568,10.437C85.805,10.535 86.033,10.584 86.252,10.584C86.537,10.584 86.795,10.545 87.024,10.466C87.253,10.388 87.437,10.269 87.574,10.109C87.711,9.95 87.78,9.744 87.78,9.492C87.78,9.285 87.736,9.109 87.649,8.964C87.563,8.818 87.444,8.695 87.293,8.594C87.142,8.493 86.975,8.408 86.793,8.338C86.611,8.268 86.422,8.202 86.226,8.141C86.064,8.09 85.903,8.034 85.744,7.973C85.584,7.911 85.435,7.84 85.295,7.759C85.155,7.678 85.032,7.583 84.925,7.473C84.819,7.364 84.735,7.234 84.673,7.083C84.612,6.932 84.581,6.753 84.581,6.546C84.581,6.249 84.652,5.99 84.795,5.769C84.938,5.548 85.138,5.375 85.395,5.249C85.653,5.123 85.952,5.06 86.294,5.06C86.478,5.06 86.655,5.08 86.823,5.119C86.99,5.158 87.143,5.21 87.28,5.274C87.417,5.338 87.537,5.408 87.641,5.484C87.745,5.559 87.827,5.636 87.889,5.715C87.961,5.799 88.003,5.869 88.015,5.925C88.026,5.981 87.992,6.042 87.914,6.109C87.847,6.165 87.785,6.192 87.729,6.189C87.673,6.186 87.614,6.151 87.553,6.084C87.424,5.933 87.291,5.82 87.154,5.744C87.017,5.669 86.877,5.618 86.734,5.593C86.592,5.568 86.442,5.555 86.285,5.555C86.112,5.555 85.951,5.576 85.803,5.618C85.654,5.66 85.526,5.725 85.416,5.811C85.307,5.898 85.223,6.003 85.165,6.126C85.106,6.249 85.076,6.392 85.076,6.554C85.076,6.722 85.114,6.866 85.19,6.987C85.265,7.107 85.369,7.21 85.5,7.297C85.632,7.384 85.78,7.461 85.945,7.528C86.11,7.595 86.282,7.657 86.462,7.713C86.68,7.78 86.897,7.858 87.112,7.948C87.328,8.037 87.522,8.146 87.696,8.275C87.869,8.404 88.009,8.565 88.115,8.758C88.222,8.951 88.275,9.187 88.275,9.467C88.275,9.719 88.226,9.946 88.128,10.147C88.03,10.349 87.89,10.518 87.708,10.655C87.526,10.792 87.315,10.897 87.074,10.97C86.834,11.043 86.571,11.079 86.285,11.079Z" style="fill:rgb(218,86,73);fill-rule:nonzero;stroke:rgb(218,86,73);stroke-width:0.3px;stroke-linejoin:round;stroke-miterlimit:2;"/>
        </g>
    </g>
</svg>
