<?xml version="1.0" encoding="UTF-8" standalone="no"?>
<!DOCTYPE svg PUBLIC "-//W3C//DTD SVG 1.1//EN" "http://www.w3.org/Graphics/SVG/1.1/DTD/svg11.dtd">
<svg width="100%" height="100%" viewBox="0 0 95 95" version="1.1" xmlns="http://www.w3.org/2000/svg" xmlns:xlink="http://www.w3.org/1999/xlink" xml:space="preserve" xmlns:serif="http://www.serif.com/" style="fill-rule:evenodd;clip-rule:evenodd;stroke-miterlimit:10;">
    <g transform="matrix(1,0,0,1,-26.277,-26.277)">
        <g transform="matrix(0.671189,0,0,0.671189,29.1377,29.0719)">
            <path d="M82,86.8L13.7,86.8C10.9,86.8 8.7,84.6 8.7,81.8L8.7,13.5C8.7,10.7 10.9,8.5 13.7,8.5L82,8.5C84.8,8.5 87,10.7 87,13.5L87,81.8C87,84.5 84.8,86.8 82,86.8Z" style="fill:white;fill-rule:nonzero;stroke:rgb(32,45,73);stroke-width:2.5px;"/>
            <g transform="matrix(1,0,0,1,0,14.8989)">
                <path d="M8.7,17.7L87,17.7" style="fill:none;fill-rule:nonzero;stroke:rgb(32,45,73);stroke-width:2.5px;"/>
            </g>
            <g transform="matrix(1,0,0,1,0,-14.8989)">
                <path d="M21,57.4L46.6,57.4" style="fill:none;fill-rule:nonzero;stroke:rgb(32,45,73);stroke-width:2.5px;stroke-linecap:round;"/>
            </g>
            <g transform="matrix(1,0,0,1,0,-14.8989)">
                <path d="M27,65L65.2,65" style="fill:none;fill-rule:nonzero;stroke:rgb(32,45,73);stroke-width:2.5px;stroke-linecap:round;"/>
            </g>
            <g transform="matrix(1,0,0,1,0,-14.8989)">
                <path d="M27,72.5L65.2,72.5" style="fill:none;fill-rule:nonzero;stroke:rgb(32,45,73);stroke-width:2.5px;stroke-linecap:round;"/>
            </g>
            <g transform="matrix(1,0,0,1,0,11.9192)">
                <path d="M21,57.4L46.6,57.4" style="fill:none;fill-rule:nonzero;stroke:rgb(32,45,73);stroke-width:2.5px;stroke-linecap:round;"/>
            </g>
            <g transform="matrix(1,0,0,1,0,11.9192)">
                <path d="M27,65L65.2,65" style="fill:none;fill-rule:nonzero;stroke:rgb(32,45,73);stroke-width:2.5px;stroke-linecap:round;"/>
            </g>
        </g>
        <g transform="matrix(1.6677,0,0,1.6677,-75.4877,29.3035)">
            <g transform="matrix(8.39478,0,0,8.39478,73.777,10.9909)">
                <path d="M0.112,0.01C0.093,0.01 0.079,0.007 0.071,0.002C0.062,-0.004 0.057,-0.011 0.055,-0.021C0.053,-0.03 0.052,-0.041 0.052,-0.052L0.052,-0.629C0.052,-0.64 0.053,-0.65 0.055,-0.659C0.057,-0.668 0.063,-0.675 0.071,-0.681C0.08,-0.686 0.094,-0.689 0.113,-0.689C0.132,-0.689 0.145,-0.686 0.154,-0.681C0.162,-0.675 0.167,-0.668 0.169,-0.659C0.171,-0.65 0.173,-0.639 0.173,-0.628L0.173,-0.051C0.173,-0.04 0.171,-0.029 0.169,-0.02C0.167,-0.011 0.161,-0.004 0.153,0.002C0.144,0.007 0.131,0.01 0.112,0.01Z" style="fill:rgb(32,45,73);fill-rule:nonzero;"/>
            </g>
            <g transform="matrix(8.39478,0,0,8.39478,75.5315,10.9909)">
                <path d="M0.392,0.015C0.359,0.015 0.326,0.01 0.293,-0C0.259,-0.01 0.227,-0.025 0.197,-0.044C0.166,-0.064 0.139,-0.088 0.115,-0.117C0.091,-0.146 0.073,-0.18 0.059,-0.218C0.045,-0.256 0.038,-0.299 0.038,-0.346C0.038,-0.392 0.045,-0.433 0.059,-0.47C0.073,-0.507 0.091,-0.54 0.115,-0.568C0.139,-0.596 0.166,-0.619 0.196,-0.638C0.227,-0.657 0.259,-0.671 0.293,-0.681C0.326,-0.69 0.36,-0.695 0.393,-0.696C0.427,-0.696 0.456,-0.692 0.481,-0.685C0.505,-0.677 0.525,-0.669 0.541,-0.661C0.556,-0.653 0.567,-0.647 0.572,-0.644C0.582,-0.637 0.592,-0.63 0.602,-0.622C0.612,-0.613 0.617,-0.603 0.618,-0.591C0.618,-0.583 0.617,-0.576 0.615,-0.57C0.612,-0.563 0.608,-0.557 0.604,-0.55C0.596,-0.538 0.588,-0.53 0.58,-0.525C0.572,-0.519 0.564,-0.517 0.556,-0.517C0.549,-0.517 0.542,-0.519 0.536,-0.523C0.529,-0.527 0.521,-0.532 0.512,-0.538C0.508,-0.541 0.5,-0.545 0.49,-0.55C0.48,-0.556 0.466,-0.561 0.449,-0.566C0.432,-0.571 0.412,-0.573 0.388,-0.573C0.359,-0.573 0.331,-0.568 0.304,-0.558C0.276,-0.548 0.252,-0.533 0.23,-0.513C0.208,-0.493 0.191,-0.469 0.179,-0.44C0.166,-0.411 0.16,-0.378 0.16,-0.341C0.16,-0.303 0.166,-0.27 0.179,-0.241C0.192,-0.212 0.209,-0.188 0.231,-0.169C0.252,-0.149 0.277,-0.134 0.304,-0.124C0.331,-0.114 0.359,-0.109 0.388,-0.109C0.41,-0.109 0.43,-0.111 0.446,-0.115C0.463,-0.12 0.477,-0.125 0.488,-0.131C0.5,-0.137 0.509,-0.142 0.515,-0.146C0.522,-0.151 0.529,-0.155 0.536,-0.159C0.542,-0.163 0.549,-0.165 0.557,-0.165C0.565,-0.165 0.572,-0.162 0.58,-0.157C0.588,-0.151 0.595,-0.142 0.603,-0.131C0.608,-0.124 0.611,-0.117 0.614,-0.11C0.617,-0.103 0.618,-0.096 0.617,-0.089C0.616,-0.077 0.611,-0.066 0.602,-0.058C0.592,-0.05 0.582,-0.043 0.571,-0.037C0.566,-0.034 0.555,-0.028 0.54,-0.019C0.525,-0.011 0.505,-0.003 0.481,0.004C0.456,0.011 0.426,0.015 0.392,0.015Z" style="fill:rgb(32,45,73);fill-rule:nonzero;"/>
            </g>
            <g transform="matrix(8.39478,0,0,8.39478,81.2316,10.9909)">
                <path d="M0.247,0.018C0.221,0.018 0.198,0.015 0.178,0.01C0.158,0.005 0.14,-0.001 0.124,-0.008C0.109,-0.015 0.096,-0.022 0.085,-0.029C0.074,-0.036 0.065,-0.043 0.059,-0.048C0.05,-0.054 0.044,-0.061 0.038,-0.067C0.033,-0.073 0.03,-0.081 0.03,-0.09C0.03,-0.096 0.032,-0.103 0.036,-0.11C0.039,-0.117 0.045,-0.126 0.054,-0.135C0.061,-0.144 0.068,-0.151 0.075,-0.155C0.082,-0.159 0.089,-0.161 0.096,-0.161C0.102,-0.161 0.109,-0.159 0.116,-0.156C0.123,-0.153 0.131,-0.147 0.142,-0.138C0.147,-0.133 0.154,-0.128 0.162,-0.123C0.169,-0.118 0.179,-0.114 0.192,-0.11C0.204,-0.106 0.221,-0.105 0.241,-0.105C0.263,-0.105 0.283,-0.109 0.3,-0.118C0.316,-0.126 0.329,-0.139 0.338,-0.155C0.347,-0.171 0.352,-0.19 0.352,-0.213C0.352,-0.234 0.347,-0.253 0.338,-0.269C0.328,-0.285 0.315,-0.298 0.299,-0.308C0.283,-0.317 0.264,-0.322 0.244,-0.322C0.234,-0.322 0.224,-0.32 0.215,-0.318C0.206,-0.315 0.198,-0.312 0.191,-0.308C0.184,-0.304 0.178,-0.3 0.173,-0.295C0.168,-0.29 0.162,-0.286 0.157,-0.283C0.152,-0.279 0.146,-0.277 0.138,-0.277C0.13,-0.275 0.123,-0.275 0.115,-0.277C0.107,-0.279 0.098,-0.282 0.087,-0.287C0.072,-0.294 0.061,-0.301 0.055,-0.307C0.048,-0.313 0.045,-0.321 0.045,-0.33L0.086,-0.629C0.087,-0.637 0.089,-0.646 0.092,-0.655C0.095,-0.665 0.101,-0.673 0.109,-0.68C0.117,-0.687 0.13,-0.69 0.147,-0.69L0.397,-0.69C0.408,-0.69 0.417,-0.688 0.426,-0.686C0.435,-0.684 0.442,-0.678 0.447,-0.67C0.452,-0.661 0.455,-0.647 0.455,-0.628C0.455,-0.61 0.452,-0.597 0.448,-0.589C0.443,-0.581 0.436,-0.576 0.427,-0.574C0.419,-0.572 0.409,-0.571 0.399,-0.571L0.201,-0.571L0.179,-0.421C0.185,-0.426 0.192,-0.429 0.2,-0.432C0.207,-0.435 0.215,-0.437 0.223,-0.439C0.23,-0.441 0.238,-0.442 0.245,-0.442L0.252,-0.442C0.281,-0.442 0.309,-0.436 0.336,-0.425C0.362,-0.413 0.386,-0.397 0.407,-0.376C0.427,-0.355 0.444,-0.332 0.456,-0.305C0.468,-0.278 0.474,-0.25 0.474,-0.22C0.474,-0.174 0.464,-0.134 0.444,-0.098C0.424,-0.062 0.397,-0.034 0.363,-0.014C0.329,0.007 0.29,0.018 0.247,0.018Z" style="fill:rgb(32,45,73);fill-rule:nonzero;"/>
            </g>
            <g transform="matrix(8.39478,0,0,8.39478,85.6305,10.9909)">
                <path d="M0.294,0.018C0.254,0.018 0.22,0.011 0.191,-0.002C0.162,-0.015 0.137,-0.033 0.117,-0.056C0.097,-0.079 0.081,-0.106 0.069,-0.136C0.057,-0.166 0.048,-0.199 0.043,-0.234C0.037,-0.269 0.035,-0.304 0.035,-0.341C0.035,-0.375 0.037,-0.41 0.043,-0.444C0.048,-0.478 0.056,-0.51 0.068,-0.541C0.08,-0.571 0.096,-0.598 0.116,-0.622C0.136,-0.645 0.16,-0.664 0.189,-0.677C0.218,-0.691 0.253,-0.698 0.292,-0.698C0.33,-0.698 0.363,-0.691 0.391,-0.678C0.42,-0.664 0.444,-0.646 0.463,-0.623C0.483,-0.599 0.499,-0.572 0.511,-0.542C0.523,-0.511 0.532,-0.479 0.537,-0.444C0.542,-0.41 0.545,-0.375 0.545,-0.34C0.545,-0.304 0.542,-0.268 0.537,-0.234C0.531,-0.199 0.523,-0.166 0.511,-0.136C0.499,-0.106 0.483,-0.079 0.463,-0.056C0.444,-0.033 0.42,-0.015 0.392,-0.002C0.364,0.011 0.331,0.018 0.294,0.018ZM0.289,-0.105C0.316,-0.105 0.338,-0.11 0.355,-0.122C0.372,-0.134 0.385,-0.149 0.394,-0.168C0.404,-0.187 0.411,-0.207 0.415,-0.228C0.419,-0.249 0.422,-0.269 0.423,-0.288C0.424,-0.307 0.424,-0.323 0.424,-0.335L0.424,-0.341C0.424,-0.391 0.419,-0.434 0.409,-0.469C0.399,-0.504 0.384,-0.531 0.365,-0.549C0.345,-0.567 0.32,-0.577 0.291,-0.577C0.26,-0.577 0.235,-0.567 0.215,-0.549C0.195,-0.531 0.18,-0.504 0.17,-0.469C0.16,-0.434 0.156,-0.391 0.156,-0.34C0.156,-0.29 0.161,-0.247 0.171,-0.212C0.181,-0.177 0.195,-0.15 0.215,-0.132C0.235,-0.114 0.26,-0.105 0.289,-0.105Z" style="fill:rgb(32,45,73);fill-rule:nonzero;"/>
            </g>
        </g>
    </g>
    <g transform="matrix(1,0,0,1,-13.7541,-13.5541)">
        <g transform="matrix(0.671189,0,0,0.671189,29.1377,29.0719)">
            <path d="M82,86.8L13.7,86.8C10.9,86.8 8.7,84.6 8.7,81.8L8.7,13.5C8.7,10.7 10.9,8.5 13.7,8.5L82,8.5C84.8,8.5 87,10.7 87,13.5L87,81.8C87,84.5 84.8,86.8 82,86.8Z" style="fill:white;fill-rule:nonzero;stroke:rgb(32,45,73);stroke-width:2.5px;"/>
            <g transform="matrix(1,0,0,1,0,14.8989)">
                <path d="M8.7,17.7L87,17.7" style="fill:none;fill-rule:nonzero;stroke:rgb(32,45,73);stroke-width:2.5px;"/>
            </g>
            <g transform="matrix(1,0,0,1,0,-14.8989)">
                <path d="M21,57.4L46.6,57.4" style="fill:none;fill-rule:nonzero;stroke:rgb(32,45,73);stroke-width:2.5px;stroke-linecap:round;"/>
            </g>
            <g transform="matrix(1,0,0,1,0,-14.8989)">
                <path d="M27,65L65.2,65" style="fill:none;fill-rule:nonzero;stroke:rgb(32,45,73);stroke-width:2.5px;stroke-linecap:round;"/>
            </g>
            <g transform="matrix(1,0,0,1,0,-14.8989)">
                <path d="M27,72.5L65.2,72.5" style="fill:none;fill-rule:nonzero;stroke:rgb(32,45,73);stroke-width:2.5px;stroke-linecap:round;"/>
            </g>
            <g transform="matrix(1,0,0,1,0,11.9192)">
                <path d="M21,57.4L46.6,57.4" style="fill:none;fill-rule:nonzero;stroke:rgb(32,45,73);stroke-width:2.5px;stroke-linecap:round;"/>
            </g>
            <g transform="matrix(1,0,0,1,0,11.9192)">
                <path d="M27,65L65.2,65" style="fill:none;fill-rule:nonzero;stroke:rgb(32,45,73);stroke-width:2.5px;stroke-linecap:round;"/>
            </g>
        </g>
        <g transform="matrix(1.6677,0,0,1.6677,-76.4877,29.3035)">
            <g transform="matrix(8.39478,0,0,8.39478,73.777,10.9909)">
                <path d="M0.112,0.01C0.094,0.01 0.081,0.007 0.073,0.001C0.064,-0.005 0.059,-0.012 0.056,-0.022C0.054,-0.031 0.053,-0.041 0.053,-0.052L0.053,-0.632C0.053,-0.642 0.054,-0.651 0.057,-0.66C0.059,-0.668 0.065,-0.675 0.074,-0.681C0.083,-0.686 0.097,-0.689 0.115,-0.689C0.135,-0.689 0.148,-0.686 0.156,-0.682C0.164,-0.678 0.171,-0.672 0.178,-0.664L0.512,-0.197L0.512,-0.632C0.512,-0.642 0.513,-0.651 0.516,-0.66C0.518,-0.668 0.524,-0.675 0.533,-0.681C0.541,-0.686 0.555,-0.689 0.573,-0.689C0.591,-0.689 0.605,-0.686 0.613,-0.68C0.621,-0.674 0.627,-0.667 0.629,-0.658C0.631,-0.648 0.633,-0.638 0.633,-0.627L0.633,-0.051C0.633,-0.04 0.631,-0.03 0.628,-0.021C0.625,-0.012 0.62,-0.005 0.611,0.001C0.602,0.007 0.588,0.01 0.569,0.01C0.554,0.01 0.543,0.008 0.534,0.005C0.526,0.002 0.518,-0.003 0.512,-0.012L0.173,-0.478L0.173,-0.051C0.173,-0.04 0.172,-0.03 0.169,-0.021C0.167,-0.012 0.161,-0.005 0.153,0.001C0.144,0.007 0.13,0.01 0.112,0.01Z" style="fill:rgb(32,45,73);fill-rule:nonzero;"/>
            </g>
            <g transform="matrix(8.39478,0,0,8.39478,79.8213,10.9909)">
                <path d="M0.115,0.01C0.097,0.01 0.084,0.007 0.076,0.001C0.067,-0.004 0.062,-0.012 0.059,-0.021C0.057,-0.03 0.056,-0.041 0.056,-0.052L0.056,-0.629C0.056,-0.64 0.057,-0.649 0.059,-0.658C0.062,-0.667 0.067,-0.674 0.076,-0.68C0.085,-0.686 0.098,-0.689 0.117,-0.689C0.131,-0.689 0.141,-0.688 0.148,-0.686C0.155,-0.684 0.161,-0.682 0.165,-0.679C0.169,-0.676 0.173,-0.672 0.177,-0.668L0.421,-0.327L0.398,-0.327L0.643,-0.669C0.647,-0.674 0.652,-0.678 0.657,-0.681C0.661,-0.684 0.667,-0.686 0.675,-0.687C0.682,-0.688 0.692,-0.689 0.704,-0.689C0.722,-0.689 0.735,-0.686 0.744,-0.68C0.752,-0.674 0.758,-0.667 0.76,-0.658C0.763,-0.648 0.764,-0.638 0.764,-0.627L0.764,-0.05C0.764,-0.04 0.763,-0.03 0.76,-0.021C0.758,-0.012 0.752,-0.004 0.744,0.001C0.735,0.007 0.721,0.01 0.703,0.01C0.685,0.01 0.671,0.007 0.663,0.001C0.654,-0.005 0.649,-0.012 0.646,-0.022C0.644,-0.031 0.643,-0.041 0.643,-0.052L0.643,-0.481L0.461,-0.218C0.459,-0.215 0.456,-0.211 0.452,-0.207C0.448,-0.203 0.442,-0.199 0.436,-0.196C0.429,-0.193 0.42,-0.191 0.409,-0.191C0.398,-0.191 0.389,-0.193 0.383,-0.196C0.376,-0.199 0.371,-0.203 0.367,-0.207C0.363,-0.211 0.36,-0.215 0.357,-0.219L0.176,-0.481L0.176,-0.05C0.176,-0.04 0.175,-0.03 0.172,-0.021C0.17,-0.012 0.164,-0.004 0.156,0.001C0.147,0.007 0.134,0.01 0.115,0.01Z" style="fill:rgb(32,45,73);fill-rule:nonzero;"/>
            </g>
            <g transform="matrix(8.39478,0,0,8.39478,86.7889,10.9909)">
                <path d="M0.122,0.01C0.103,0.01 0.09,0.007 0.081,0.001C0.073,-0.004 0.067,-0.012 0.065,-0.021C0.063,-0.031 0.062,-0.041 0.062,-0.052L0.062,-0.629C0.062,-0.64 0.063,-0.65 0.066,-0.659C0.068,-0.668 0.074,-0.675 0.082,-0.681C0.091,-0.686 0.104,-0.689 0.123,-0.689L0.337,-0.689C0.367,-0.689 0.396,-0.684 0.424,-0.674C0.452,-0.664 0.477,-0.65 0.499,-0.63C0.521,-0.61 0.538,-0.586 0.551,-0.556C0.564,-0.527 0.571,-0.492 0.571,-0.453C0.571,-0.427 0.567,-0.401 0.559,-0.376C0.551,-0.35 0.539,-0.326 0.523,-0.304C0.507,-0.282 0.488,-0.264 0.464,-0.249C0.44,-0.234 0.411,-0.224 0.379,-0.219L0.183,-0.219L0.183,-0.051C0.183,-0.04 0.182,-0.03 0.18,-0.021C0.177,-0.012 0.172,-0.004 0.163,0.001C0.155,0.007 0.141,0.01 0.122,0.01ZM0.548,-0.006C0.528,0.008 0.512,0.013 0.5,0.009C0.488,0.006 0.476,-0.005 0.464,-0.023L0.296,-0.277L0.431,-0.295L0.564,-0.093C0.573,-0.079 0.579,-0.068 0.581,-0.059C0.583,-0.049 0.581,-0.041 0.576,-0.033C0.571,-0.025 0.561,-0.016 0.548,-0.006ZM0.183,-0.339L0.352,-0.339C0.364,-0.339 0.376,-0.341 0.388,-0.345C0.399,-0.35 0.41,-0.357 0.419,-0.366C0.428,-0.376 0.435,-0.388 0.441,-0.402C0.447,-0.416 0.45,-0.434 0.45,-0.454C0.45,-0.478 0.445,-0.498 0.436,-0.515C0.427,-0.532 0.413,-0.545 0.397,-0.554C0.38,-0.563 0.359,-0.568 0.335,-0.568L0.183,-0.568L0.183,-0.339Z" style="fill:rgb(32,45,73);fill-rule:nonzero;"/>
            </g>
        </g>
    </g>
    <g>
        <g transform="matrix(0.671189,0,0,0.671189,29.1377,29.0719)">
            <path d="M82,86.8L13.7,86.8C10.9,86.8 8.7,84.6 8.7,81.8L8.7,13.5C8.7,10.7 10.9,8.5 13.7,8.5L82,8.5C84.8,8.5 87,10.7 87,13.5L87,81.8C87,84.5 84.8,86.8 82,86.8Z" style="fill:white;fill-rule:nonzero;stroke:rgb(32,45,73);stroke-width:2.5px;"/>
            <g transform="matrix(1,0,0,1,0,14.8989)">
                <path d="M8.7,17.7L87,17.7" style="fill:none;fill-rule:nonzero;stroke:rgb(32,45,73);stroke-width:2.5px;"/>
            </g>
            <g transform="matrix(1,0,0,1,0,-14.8989)">
                <path d="M21,57.4L46.6,57.4" style="fill:none;fill-rule:nonzero;stroke:rgb(32,45,73);stroke-width:2.5px;stroke-linecap:round;"/>
            </g>
            <g transform="matrix(1,0,0,1,0,-14.8989)">
                <path d="M27,65L65.2,65" style="fill:none;fill-rule:nonzero;stroke:rgb(32,45,73);stroke-width:2.5px;stroke-linecap:round;"/>
            </g>
            <g transform="matrix(1,0,0,1,0,-14.8989)">
                <path d="M27,72.5L65.2,72.5" style="fill:none;fill-rule:nonzero;stroke:rgb(32,45,73);stroke-width:2.5px;stroke-linecap:round;"/>
            </g>
            <g transform="matrix(1,0,0,1,0,11.9192)">
                <path d="M21,57.4L46.6,57.4" style="fill:none;fill-rule:nonzero;stroke:rgb(32,45,73);stroke-width:2.5px;stroke-linecap:round;"/>
            </g>
            <g transform="matrix(1,0,0,1,0,11.9192)">
                <path d="M27,65L65.2,65" style="fill:none;fill-rule:nonzero;stroke:rgb(32,45,73);stroke-width:2.5px;stroke-linecap:round;"/>
            </g>
        </g>
        <g transform="matrix(1.6677,0,0,1.6677,-73.9166,29.3035)">
            <g transform="matrix(8.39478,0,0,8.39478,73.777,10.9909)">
                <path d="M0.271,0.02C0.241,0.02 0.213,0.016 0.189,0.009C0.165,0.001 0.143,-0.008 0.125,-0.02C0.107,-0.031 0.091,-0.043 0.079,-0.055C0.066,-0.067 0.057,-0.078 0.051,-0.088C0.042,-0.1 0.036,-0.111 0.034,-0.12C0.031,-0.129 0.032,-0.138 0.037,-0.147C0.041,-0.156 0.049,-0.166 0.061,-0.176C0.073,-0.186 0.084,-0.192 0.095,-0.192C0.105,-0.192 0.115,-0.189 0.124,-0.183C0.134,-0.176 0.143,-0.167 0.153,-0.155C0.169,-0.134 0.187,-0.118 0.207,-0.11C0.227,-0.1 0.247,-0.096 0.267,-0.096C0.293,-0.096 0.316,-0.099 0.335,-0.106C0.354,-0.113 0.369,-0.124 0.38,-0.138C0.391,-0.152 0.397,-0.169 0.397,-0.192C0.397,-0.21 0.391,-0.224 0.38,-0.236C0.369,-0.248 0.355,-0.258 0.337,-0.267C0.319,-0.275 0.298,-0.283 0.276,-0.29C0.254,-0.297 0.232,-0.304 0.209,-0.313C0.193,-0.318 0.177,-0.325 0.161,-0.333C0.145,-0.34 0.13,-0.349 0.116,-0.359C0.102,-0.369 0.09,-0.381 0.08,-0.395C0.07,-0.408 0.062,-0.424 0.056,-0.442C0.05,-0.46 0.047,-0.481 0.047,-0.505C0.047,-0.543 0.056,-0.576 0.075,-0.605C0.094,-0.634 0.12,-0.657 0.153,-0.674C0.186,-0.691 0.224,-0.7 0.267,-0.7C0.294,-0.7 0.319,-0.697 0.341,-0.692C0.362,-0.687 0.381,-0.681 0.397,-0.673C0.412,-0.666 0.425,-0.658 0.435,-0.651C0.445,-0.643 0.453,-0.636 0.458,-0.631C0.473,-0.616 0.481,-0.603 0.483,-0.592C0.485,-0.582 0.479,-0.568 0.465,-0.551C0.451,-0.533 0.438,-0.523 0.425,-0.522C0.412,-0.52 0.397,-0.525 0.381,-0.537C0.37,-0.548 0.36,-0.557 0.349,-0.564C0.338,-0.571 0.326,-0.576 0.313,-0.58C0.3,-0.583 0.284,-0.585 0.266,-0.585C0.252,-0.585 0.239,-0.583 0.227,-0.579C0.215,-0.575 0.205,-0.57 0.196,-0.563C0.187,-0.556 0.18,-0.548 0.175,-0.538C0.17,-0.528 0.168,-0.516 0.168,-0.504C0.168,-0.487 0.172,-0.472 0.182,-0.462C0.192,-0.451 0.205,-0.441 0.222,-0.434C0.239,-0.427 0.257,-0.421 0.278,-0.415C0.298,-0.409 0.319,-0.402 0.341,-0.396C0.363,-0.389 0.385,-0.38 0.406,-0.37C0.427,-0.36 0.446,-0.347 0.463,-0.333C0.479,-0.318 0.493,-0.299 0.503,-0.277C0.513,-0.254 0.518,-0.227 0.518,-0.195C0.518,-0.158 0.511,-0.126 0.497,-0.099C0.483,-0.072 0.464,-0.049 0.44,-0.032C0.416,-0.015 0.389,-0.002 0.36,0.007C0.331,0.015 0.301,0.02 0.271,0.02Z" style="fill:rgb(218,86,73);fill-rule:nonzero;"/>
            </g>
            <g transform="matrix(8.39478,0,0,8.39478,78.1255,10.9909)">
                <path d="M0.686,-0.075C0.692,-0.062 0.696,-0.051 0.696,-0.041C0.697,-0.032 0.694,-0.023 0.688,-0.016C0.682,-0.009 0.672,-0.002 0.658,0.005C0.637,0.015 0.62,0.018 0.608,0.013C0.596,0.008 0.586,-0.005 0.576,-0.026L0.353,-0.497L0.131,-0.026C0.121,-0.005 0.11,0.007 0.098,0.012C0.086,0.016 0.069,0.014 0.048,0.004C0.034,-0.002 0.024,-0.009 0.018,-0.017C0.012,-0.024 0.01,-0.033 0.011,-0.044C0.012,-0.054 0.016,-0.066 0.023,-0.081L0.298,-0.654C0.303,-0.664 0.311,-0.673 0.321,-0.679C0.331,-0.686 0.342,-0.689 0.354,-0.689C0.362,-0.689 0.369,-0.688 0.376,-0.685C0.383,-0.682 0.389,-0.678 0.395,-0.673C0.4,-0.667 0.405,-0.661 0.409,-0.653L0.686,-0.075ZM0.175,-0.172L0.223,-0.275L0.484,-0.275L0.532,-0.172L0.175,-0.172Z" style="fill:rgb(218,86,73);fill-rule:nonzero;"/>
            </g>
            <g transform="matrix(8.39478,0,0,8.39478,84.0103,10.9909)">
                <path d="M0.271,0.02C0.241,0.02 0.213,0.016 0.189,0.009C0.165,0.001 0.143,-0.008 0.125,-0.02C0.107,-0.031 0.091,-0.043 0.079,-0.055C0.066,-0.067 0.057,-0.078 0.051,-0.088C0.042,-0.1 0.036,-0.111 0.034,-0.12C0.031,-0.129 0.032,-0.138 0.037,-0.147C0.041,-0.156 0.049,-0.166 0.061,-0.176C0.073,-0.186 0.084,-0.192 0.095,-0.192C0.105,-0.192 0.115,-0.189 0.124,-0.183C0.134,-0.176 0.143,-0.167 0.153,-0.155C0.169,-0.134 0.187,-0.118 0.207,-0.11C0.227,-0.1 0.247,-0.096 0.267,-0.096C0.293,-0.096 0.316,-0.099 0.335,-0.106C0.354,-0.113 0.369,-0.124 0.38,-0.138C0.391,-0.152 0.397,-0.169 0.397,-0.192C0.397,-0.21 0.391,-0.224 0.38,-0.236C0.369,-0.248 0.355,-0.258 0.337,-0.267C0.319,-0.275 0.298,-0.283 0.276,-0.29C0.254,-0.297 0.232,-0.304 0.209,-0.313C0.193,-0.318 0.177,-0.325 0.161,-0.333C0.145,-0.34 0.13,-0.349 0.116,-0.359C0.102,-0.369 0.09,-0.381 0.08,-0.395C0.07,-0.408 0.062,-0.424 0.056,-0.442C0.05,-0.46 0.047,-0.481 0.047,-0.505C0.047,-0.543 0.056,-0.576 0.075,-0.605C0.094,-0.634 0.12,-0.657 0.153,-0.674C0.186,-0.691 0.224,-0.7 0.267,-0.7C0.294,-0.7 0.319,-0.697 0.341,-0.692C0.362,-0.687 0.381,-0.681 0.397,-0.673C0.412,-0.666 0.425,-0.658 0.435,-0.651C0.445,-0.643 0.453,-0.636 0.458,-0.631C0.473,-0.616 0.481,-0.603 0.483,-0.592C0.485,-0.582 0.479,-0.568 0.465,-0.551C0.451,-0.533 0.438,-0.523 0.425,-0.522C0.412,-0.52 0.397,-0.525 0.381,-0.537C0.37,-0.548 0.36,-0.557 0.349,-0.564C0.338,-0.571 0.326,-0.576 0.313,-0.58C0.3,-0.583 0.284,-0.585 0.266,-0.585C0.252,-0.585 0.239,-0.583 0.227,-0.579C0.215,-0.575 0.205,-0.57 0.196,-0.563C0.187,-0.556 0.18,-0.548 0.175,-0.538C0.17,-0.528 0.168,-0.516 0.168,-0.504C0.168,-0.487 0.172,-0.472 0.182,-0.462C0.192,-0.451 0.205,-0.441 0.222,-0.434C0.239,-0.427 0.257,-0.421 0.278,-0.415C0.298,-0.409 0.319,-0.402 0.341,-0.396C0.363,-0.389 0.385,-0.38 0.406,-0.37C0.427,-0.36 0.446,-0.347 0.463,-0.333C0.479,-0.318 0.493,-0.299 0.503,-0.277C0.513,-0.254 0.518,-0.227 0.518,-0.195C0.518,-0.158 0.511,-0.126 0.497,-0.099C0.483,-0.072 0.464,-0.049 0.44,-0.032C0.416,-0.015 0.389,-0.002 0.36,0.007C0.331,0.015 0.301,0.02 0.271,0.02Z" style="fill:rgb(218,86,73);fill-rule:nonzero;"/>
            </g>
        </g>
    </g>
</svg>
