<?xml version="1.0" encoding="UTF-8" standalone="no"?>
<!DOCTYPE svg PUBLIC "-//W3C//DTD SVG 1.1//EN" "http://www.w3.org/Graphics/SVG/1.1/DTD/svg11.dtd">
<svg width="100%" height="100%" viewBox="0 0 95 95" version="1.1" xmlns="http://www.w3.org/2000/svg" xmlns:xlink="http://www.w3.org/1999/xlink" xml:space="preserve" xmlns:serif="http://www.serif.com/" style="fill-rule:evenodd;clip-rule:evenodd;stroke-linecap:round;stroke-linejoin:round;stroke-miterlimit:1;">
    <g transform="matrix(1,0,0,1,0.191845,-0.103352)">
        <rect x="43.036" y="55.532" width="39.953" height="17.819" style="fill:none;stroke:rgb(32,45,73);stroke-width:1.2px;"/>
        <rect x="11.627" y="21.856" width="25.947" height="51.496" style="fill:none;stroke:rgb(32,45,73);stroke-width:1.2px;"/>
        <g transform="matrix(0.596036,0,0,0.596036,34.6641,7.50662)">
            <g>
                <g>
                    <g>
                        <g transform="matrix(1,0,0,1,-0.005,10.2231)">
                            <path d="M23.375,47.495L42.713,35.123L56.124,49.572L71.487,25.366" style="fill:none;stroke:rgb(32,45,73);stroke-width:2.01px;stroke-linejoin:miter;"/>
                        </g>
                        <g transform="matrix(1,0,0,1,46.9351,-13.3288)">
                            <circle cx="24.547" cy="49.805" r="4.855" style="fill:white;stroke:rgb(32,45,73);stroke-width:2.01px;stroke-linejoin:miter;"/>
                        </g>
                        <g transform="matrix(1,0,0,1,31.2863,8.98453)">
                            <circle cx="24.547" cy="49.805" r="4.855" style="fill:white;stroke:rgb(32,45,73);stroke-width:2.01px;stroke-linejoin:miter;"/>
                        </g>
                        <g transform="matrix(1,0,0,1,18.1595,-4.33079)">
                            <circle cx="24.547" cy="49.805" r="4.855" style="fill:white;stroke:rgb(32,45,73);stroke-width:2.01px;stroke-linejoin:miter;"/>
                        </g>
                        <g transform="matrix(1,0,0,1,-1.17722,7.91803)">
                            <circle cx="24.547" cy="49.805" r="4.855" style="fill:white;stroke:rgb(32,45,73);stroke-width:2.01px;stroke-linejoin:miter;"/>
                        </g>
                    </g>
                    <g transform="matrix(1,0,0,1,0.131037,52.5614)">
                        <path d="M23.375,47.495L42.571,42.035L56.124,49.572L72.29,39.11" style="fill:none;stroke:rgb(32,45,73);stroke-width:2.01px;"/>
                    </g>
                    <g transform="matrix(1,0,0,1,-0.005,7.22306)">
                        <path d="M14.051,53.575L81.083,36.379" style="fill:none;stroke:rgb(218,86,73);stroke-width:2.01px;stroke-linejoin:miter;"/>
                    </g>
                </g>
                <g transform="matrix(1,0,0,1,-0.005,10.2231)">
                    <rect x="14.051" y="13.851" width="67.032" height="47.755" style="fill:none;stroke:rgb(32,45,73);stroke-width:2.01px;"/>
                </g>
                <g transform="matrix(1,0,0,1,-0.005,10.2231)">
                    <rect x="14.051" y="13.851" width="67.032" height="47.755" style="fill:none;stroke:rgb(32,45,73);stroke-width:2.01px;"/>
                </g>
            </g>
        </g>
        <g transform="matrix(1,0,0,1,2.84705,4.65174)">
            <g transform="matrix(11,0,0,11,11.6268,29.4533)">
                <path d="M0.622,-0.002C0.61,0.008 0.6,0.015 0.591,0.018C0.582,0.021 0.573,0.021 0.565,0.016C0.556,0.012 0.547,0.004 0.537,-0.008L0.065,-0.59C0.051,-0.606 0.044,-0.62 0.044,-0.633C0.044,-0.646 0.053,-0.66 0.07,-0.675C0.082,-0.686 0.092,-0.693 0.102,-0.696C0.111,-0.699 0.119,-0.698 0.128,-0.694C0.136,-0.689 0.145,-0.681 0.155,-0.669L0.627,-0.086C0.642,-0.069 0.65,-0.055 0.65,-0.043C0.65,-0.03 0.64,-0.017 0.622,-0.002ZM0.071,-0.002C0.053,-0.017 0.044,-0.03 0.044,-0.043C0.044,-0.055 0.051,-0.069 0.066,-0.086L0.538,-0.669C0.548,-0.681 0.557,-0.689 0.565,-0.694C0.573,-0.698 0.582,-0.699 0.591,-0.696C0.6,-0.693 0.611,-0.686 0.623,-0.675C0.641,-0.66 0.65,-0.646 0.65,-0.633C0.65,-0.62 0.642,-0.606 0.628,-0.59L0.156,-0.008C0.146,0.004 0.137,0.012 0.128,0.016C0.12,0.021 0.111,0.021 0.102,0.018C0.093,0.015 0.083,0.008 0.071,-0.002Z" style="fill:rgb(32,45,73);fill-rule:nonzero;"/>
            </g>
            <g transform="matrix(11,0,0,11,19.2828,29.4533)">
                <path d="M0.111,-0.322C0.086,-0.322 0.068,-0.327 0.058,-0.337C0.048,-0.347 0.043,-0.364 0.043,-0.388C0.043,-0.405 0.045,-0.419 0.05,-0.429C0.054,-0.439 0.061,-0.446 0.071,-0.451C0.081,-0.455 0.094,-0.457 0.111,-0.457C0.136,-0.457 0.153,-0.452 0.163,-0.442C0.173,-0.432 0.178,-0.414 0.178,-0.389C0.178,-0.373 0.176,-0.36 0.172,-0.35C0.168,-0.339 0.161,-0.332 0.151,-0.328C0.141,-0.324 0.128,-0.322 0.111,-0.322ZM0.11,0.011C0.085,0.011 0.067,0.006 0.058,-0.004C0.048,-0.014 0.043,-0.031 0.043,-0.056C0.043,-0.073 0.045,-0.086 0.049,-0.096C0.053,-0.106 0.061,-0.113 0.071,-0.118C0.081,-0.122 0.094,-0.125 0.111,-0.125C0.135,-0.125 0.153,-0.119 0.163,-0.11C0.173,-0.099 0.178,-0.082 0.178,-0.057C0.178,-0.04 0.175,-0.027 0.171,-0.017C0.167,-0.007 0.16,0 0.15,0.004C0.14,0.008 0.127,0.011 0.11,0.011Z" style="fill:rgb(32,45,73);fill-rule:nonzero;"/>
            </g>
            <g transform="matrix(11,0,0,11,24.7608,29.4533)">
                <path d="M0.095,0.006C0.079,0.006 0.065,-0.001 0.053,-0.013C0.041,-0.026 0.035,-0.04 0.035,-0.057C0.035,-0.067 0.036,-0.078 0.037,-0.088C0.038,-0.098 0.041,-0.107 0.046,-0.117C0.05,-0.126 0.057,-0.135 0.067,-0.144C0.097,-0.169 0.128,-0.192 0.16,-0.214C0.192,-0.235 0.223,-0.255 0.252,-0.275C0.281,-0.294 0.308,-0.314 0.331,-0.333C0.354,-0.353 0.372,-0.373 0.386,-0.395C0.399,-0.417 0.406,-0.44 0.406,-0.466C0.406,-0.486 0.402,-0.505 0.394,-0.522C0.385,-0.538 0.372,-0.552 0.354,-0.562C0.336,-0.572 0.312,-0.577 0.282,-0.577C0.261,-0.577 0.243,-0.574 0.228,-0.568C0.212,-0.562 0.199,-0.553 0.188,-0.542C0.178,-0.531 0.17,-0.517 0.164,-0.501C0.159,-0.484 0.156,-0.466 0.156,-0.445C0.156,-0.434 0.155,-0.424 0.153,-0.415C0.151,-0.406 0.146,-0.399 0.138,-0.394C0.129,-0.389 0.115,-0.387 0.095,-0.387C0.075,-0.387 0.061,-0.39 0.053,-0.396C0.044,-0.402 0.039,-0.41 0.038,-0.42C0.036,-0.43 0.035,-0.441 0.035,-0.453C0.035,-0.486 0.041,-0.517 0.052,-0.547C0.063,-0.577 0.079,-0.603 0.1,-0.625C0.121,-0.648 0.147,-0.665 0.178,-0.678C0.208,-0.691 0.242,-0.698 0.281,-0.698C0.33,-0.698 0.373,-0.688 0.41,-0.668C0.447,-0.648 0.476,-0.62 0.497,-0.584C0.518,-0.548 0.528,-0.505 0.528,-0.455C0.528,-0.429 0.524,-0.405 0.516,-0.382C0.508,-0.359 0.497,-0.338 0.483,-0.319C0.469,-0.299 0.452,-0.281 0.434,-0.264C0.416,-0.247 0.396,-0.231 0.375,-0.216C0.354,-0.201 0.333,-0.187 0.312,-0.174C0.291,-0.161 0.27,-0.149 0.25,-0.137L0.212,-0.117L0.496,-0.117C0.507,-0.117 0.518,-0.115 0.527,-0.113C0.536,-0.111 0.543,-0.105 0.548,-0.097C0.553,-0.088 0.556,-0.074 0.556,-0.055C0.556,-0.036 0.553,-0.023 0.548,-0.014C0.542,-0.005 0.535,0 0.526,0.002C0.516,0.004 0.506,0.006 0.494,0.006L0.095,0.006Z" style="fill:rgb(32,45,73);fill-rule:nonzero;"/>
            </g>
            <g transform="matrix(11,0,0,11,11.6268,41.4533)">
                <path d="M0.586,-0.682C0.605,-0.669 0.616,-0.656 0.618,-0.644C0.62,-0.632 0.615,-0.618 0.604,-0.602L0.381,-0.265L0.381,-0.05C0.381,-0.039 0.379,-0.028 0.377,-0.019C0.375,-0.01 0.369,-0.003 0.361,0.003C0.352,0.008 0.339,0.011 0.32,0.011C0.301,0.011 0.287,0.008 0.278,0.003C0.27,-0.003 0.264,-0.01 0.262,-0.02C0.26,-0.029 0.259,-0.04 0.259,-0.052L0.259,-0.265L0.035,-0.601C0.023,-0.617 0.018,-0.632 0.021,-0.644C0.024,-0.656 0.035,-0.668 0.054,-0.681C0.067,-0.69 0.079,-0.696 0.088,-0.698C0.098,-0.7 0.107,-0.698 0.115,-0.693C0.123,-0.688 0.13,-0.679 0.138,-0.667L0.318,-0.382L0.501,-0.667C0.509,-0.679 0.517,-0.688 0.525,-0.693C0.532,-0.698 0.541,-0.699 0.551,-0.698C0.561,-0.696 0.572,-0.691 0.586,-0.682Z" style="fill:rgb(32,45,73);fill-rule:nonzero;"/>
            </g>
            <g transform="matrix(11,0,0,11,18.6448,41.4533)">
                <path d="M0.111,-0.322C0.086,-0.322 0.068,-0.327 0.058,-0.337C0.048,-0.347 0.043,-0.364 0.043,-0.388C0.043,-0.405 0.045,-0.419 0.05,-0.429C0.054,-0.439 0.061,-0.446 0.071,-0.451C0.081,-0.455 0.094,-0.457 0.111,-0.457C0.136,-0.457 0.153,-0.452 0.163,-0.442C0.173,-0.432 0.178,-0.414 0.178,-0.389C0.178,-0.373 0.176,-0.36 0.172,-0.35C0.168,-0.339 0.161,-0.332 0.151,-0.328C0.141,-0.324 0.128,-0.322 0.111,-0.322ZM0.11,0.011C0.085,0.011 0.067,0.006 0.058,-0.004C0.048,-0.014 0.043,-0.031 0.043,-0.056C0.043,-0.073 0.045,-0.086 0.049,-0.096C0.053,-0.106 0.061,-0.113 0.071,-0.118C0.081,-0.122 0.094,-0.125 0.111,-0.125C0.135,-0.125 0.153,-0.119 0.163,-0.11C0.173,-0.099 0.178,-0.082 0.178,-0.057C0.178,-0.04 0.175,-0.027 0.171,-0.017C0.167,-0.007 0.16,0 0.15,0.004C0.14,0.008 0.127,0.011 0.11,0.011Z" style="fill:rgb(32,45,73);fill-rule:nonzero;"/>
            </g>
            <g transform="matrix(11,0,0,11,24.1228,41.4533)">
                <path d="M0.443,0.01C0.424,0.01 0.411,0.007 0.402,0.001C0.394,-0.004 0.388,-0.012 0.386,-0.021C0.384,-0.03 0.383,-0.041 0.383,-0.052L0.383,-0.204L0.091,-0.204C0.072,-0.204 0.059,-0.206 0.05,-0.212C0.041,-0.218 0.036,-0.225 0.034,-0.235C0.031,-0.244 0.03,-0.254 0.03,-0.265C0.03,-0.27 0.03,-0.274 0.031,-0.278C0.031,-0.282 0.032,-0.286 0.033,-0.29L0.132,-0.645C0.138,-0.67 0.146,-0.685 0.157,-0.69C0.168,-0.695 0.184,-0.695 0.206,-0.69C0.223,-0.686 0.237,-0.679 0.246,-0.67C0.255,-0.661 0.257,-0.65 0.254,-0.636L0.165,-0.317L0.383,-0.317L0.383,-0.634C0.383,-0.644 0.384,-0.654 0.387,-0.662C0.389,-0.67 0.394,-0.677 0.403,-0.682C0.412,-0.687 0.426,-0.69 0.445,-0.69C0.464,-0.69 0.477,-0.687 0.486,-0.681C0.494,-0.676 0.5,-0.668 0.502,-0.659C0.504,-0.65 0.505,-0.64 0.505,-0.629L0.505,-0.05C0.505,-0.039 0.504,-0.029 0.501,-0.02C0.499,-0.011 0.493,-0.003 0.485,0.002C0.476,0.007 0.462,0.01 0.443,0.01Z" style="fill:rgb(32,45,73);fill-rule:nonzero;"/>
            </g>
        </g>
    </g>
    <g transform="matrix(1.05583,0,0,1.07212,-3.21659,6.85592)">
        <path d="M86.975,14.676C86.975,11.47 84.333,8.868 81.077,8.868L14.992,8.868C11.737,8.868 9.094,11.47 9.094,14.676L9.094,61.144C9.094,64.35 11.737,66.953 14.992,66.953L81.077,66.953C84.333,66.953 86.975,64.35 86.975,61.144L86.975,14.676Z" style="fill:none;stroke:rgb(32,45,73);stroke-width:1.13px;stroke-linejoin:miter;"/>
    </g>
</svg>
