<?xml version="1.0" encoding="UTF-8" standalone="no"?>
<!DOCTYPE svg PUBLIC "-//W3C//DTD SVG 1.1//EN" "http://www.w3.org/Graphics/SVG/1.1/DTD/svg11.dtd">
<svg width="100%" height="100%" viewBox="0 0 95 95" version="1.1" xmlns="http://www.w3.org/2000/svg" xmlns:xlink="http://www.w3.org/1999/xlink" xml:space="preserve" xmlns:serif="http://www.serif.com/" style="fill-rule:evenodd;clip-rule:evenodd;stroke-linecap:round;stroke-linejoin:round;stroke-miterlimit:1.5;">
    <g>
        <g>
            <g transform="matrix(0.957853,0,0,0.961581,3.66678,3.33478)">
                <path d="M87,9.443C87,7.196 85.169,5.372 82.913,5.372L8.977,5.372C6.721,5.372 4.889,7.196 4.889,9.443L4.889,82.729C4.889,84.976 6.721,86.8 8.977,86.8L82.913,86.8C85.169,86.8 87,84.976 87,82.729L87,9.443Z" style="fill:white;stroke:rgb(32,45,73);stroke-width:0.83px;"/>
            </g>
            <path d="M8.35,29.331L87,29.331L87,12.415C87,10.254 85.246,8.5 83.085,8.5L12.265,8.5C10.104,8.5 8.35,10.254 8.35,12.415L8.35,29.331Z" style="fill:rgb(245,245,245);stroke:rgb(32,45,73);stroke-width:0.8px;"/>
        </g>
        <g transform="matrix(1,0,0,1,-0.163692,-15.4507)">
            <g transform="matrix(9,0,0,9,13.2921,62.9147)">
                <path d="M0.226,0.011C0.2,0.011 0.175,0.006 0.152,-0.004C0.129,-0.014 0.109,-0.03 0.091,-0.05C0.073,-0.07 0.059,-0.096 0.048,-0.127C0.038,-0.158 0.033,-0.194 0.033,-0.235C0.033,-0.275 0.038,-0.311 0.048,-0.341C0.058,-0.371 0.072,-0.396 0.089,-0.417C0.107,-0.437 0.128,-0.452 0.151,-0.462C0.174,-0.472 0.2,-0.477 0.227,-0.477C0.242,-0.477 0.257,-0.475 0.272,-0.471C0.286,-0.467 0.299,-0.461 0.31,-0.453C0.322,-0.446 0.331,-0.435 0.339,-0.422L0.339,-0.671L0.46,-0.671L0.46,-0.662C0.456,-0.658 0.454,-0.653 0.452,-0.649C0.451,-0.644 0.451,-0.636 0.451,-0.625L0.45,-0.062C0.45,-0.052 0.451,-0.041 0.452,-0.031C0.453,-0.021 0.456,-0.01 0.461,-0L0.35,-0C0.346,-0.007 0.344,-0.013 0.343,-0.018C0.341,-0.023 0.341,-0.028 0.341,-0.033C0.34,-0.038 0.34,-0.044 0.34,-0.051C0.332,-0.037 0.322,-0.026 0.31,-0.016C0.298,-0.007 0.285,0 0.271,0.005C0.257,0.009 0.242,0.011 0.226,0.011ZM0.245,-0.08C0.261,-0.08 0.274,-0.083 0.286,-0.09C0.297,-0.096 0.307,-0.106 0.314,-0.118C0.322,-0.131 0.327,-0.147 0.331,-0.167C0.335,-0.186 0.337,-0.209 0.337,-0.234C0.337,-0.268 0.333,-0.297 0.327,-0.32C0.32,-0.343 0.31,-0.36 0.296,-0.372C0.282,-0.383 0.264,-0.389 0.242,-0.389C0.226,-0.389 0.212,-0.385 0.2,-0.378C0.187,-0.371 0.177,-0.361 0.169,-0.348C0.161,-0.335 0.155,-0.319 0.15,-0.3C0.146,-0.281 0.144,-0.26 0.144,-0.237C0.144,-0.204 0.148,-0.176 0.158,-0.153C0.167,-0.13 0.179,-0.111 0.194,-0.099C0.21,-0.086 0.227,-0.08 0.245,-0.08Z" style="fill:rgb(218,86,73);fill-rule:nonzero;"/>
            </g>
            <g transform="matrix(9,0,0,9,17.7921,62.9147)">
                <path d="M0.271,0.011C0.237,0.011 0.207,0.006 0.178,-0.005C0.15,-0.016 0.125,-0.031 0.105,-0.052C0.084,-0.072 0.067,-0.097 0.056,-0.127C0.045,-0.157 0.039,-0.191 0.039,-0.229C0.039,-0.268 0.044,-0.303 0.056,-0.333C0.067,-0.364 0.083,-0.39 0.103,-0.411C0.123,-0.432 0.146,-0.448 0.172,-0.46C0.199,-0.471 0.228,-0.476 0.258,-0.476C0.285,-0.476 0.311,-0.472 0.335,-0.462C0.359,-0.453 0.38,-0.439 0.398,-0.42C0.416,-0.401 0.431,-0.377 0.442,-0.349C0.452,-0.321 0.458,-0.288 0.458,-0.25C0.458,-0.243 0.458,-0.235 0.457,-0.226C0.457,-0.216 0.457,-0.208 0.456,-0.202L0.148,-0.202C0.149,-0.18 0.154,-0.161 0.161,-0.146C0.169,-0.13 0.178,-0.117 0.19,-0.107C0.202,-0.097 0.215,-0.09 0.23,-0.085C0.245,-0.08 0.26,-0.077 0.276,-0.077C0.29,-0.077 0.304,-0.079 0.317,-0.081C0.329,-0.084 0.342,-0.089 0.353,-0.095C0.365,-0.102 0.376,-0.11 0.387,-0.121L0.445,-0.065C0.43,-0.047 0.414,-0.033 0.395,-0.022C0.377,-0.01 0.358,-0.002 0.337,0.003C0.316,0.009 0.294,0.011 0.271,0.011ZM0.15,-0.287L0.348,-0.287C0.348,-0.303 0.346,-0.318 0.342,-0.33C0.337,-0.343 0.331,-0.354 0.323,-0.362C0.315,-0.371 0.305,-0.378 0.293,-0.382C0.281,-0.386 0.268,-0.388 0.253,-0.388C0.24,-0.388 0.228,-0.386 0.216,-0.383C0.205,-0.379 0.194,-0.372 0.185,-0.364C0.176,-0.355 0.168,-0.345 0.162,-0.332C0.156,-0.319 0.152,-0.304 0.15,-0.287Z" style="fill:rgb(218,86,73);fill-rule:nonzero;"/>
            </g>
            <g transform="matrix(9,0,0,9,22.2921,62.9147)">
                <path d="M0.139,-0.377L0.038,-0.377L0.038,-0.465L0.139,-0.465L0.139,-0.493C0.139,-0.535 0.148,-0.57 0.166,-0.597C0.183,-0.625 0.207,-0.645 0.236,-0.658C0.266,-0.672 0.297,-0.678 0.331,-0.678C0.363,-0.678 0.392,-0.673 0.419,-0.662C0.445,-0.651 0.468,-0.635 0.487,-0.614L0.445,-0.537L0.44,-0.529L0.432,-0.534C0.43,-0.539 0.428,-0.544 0.426,-0.549C0.424,-0.554 0.418,-0.56 0.41,-0.567C0.398,-0.575 0.387,-0.581 0.376,-0.585C0.365,-0.588 0.352,-0.59 0.337,-0.59C0.32,-0.59 0.304,-0.586 0.291,-0.579C0.278,-0.572 0.268,-0.561 0.261,-0.547C0.254,-0.533 0.251,-0.516 0.251,-0.494L0.251,-0.465L0.391,-0.465L0.391,-0.377L0.251,-0.377L0.251,-0L0.139,-0L0.139,-0.377Z" style="fill:rgb(218,86,73);fill-rule:nonzero;"/>
            </g>
            <g transform="matrix(9,0,0,9,31.2921,62.9147)">
                <path d="M0.139,-0.377L0.038,-0.377L0.038,-0.465L0.139,-0.465L0.139,-0.493C0.139,-0.535 0.148,-0.57 0.166,-0.597C0.183,-0.625 0.207,-0.645 0.236,-0.658C0.266,-0.672 0.297,-0.678 0.331,-0.678C0.363,-0.678 0.392,-0.673 0.419,-0.662C0.445,-0.651 0.468,-0.635 0.487,-0.614L0.445,-0.537L0.44,-0.529L0.432,-0.534C0.43,-0.539 0.428,-0.544 0.426,-0.549C0.424,-0.554 0.418,-0.56 0.41,-0.567C0.398,-0.575 0.387,-0.581 0.376,-0.585C0.365,-0.588 0.352,-0.59 0.337,-0.59C0.32,-0.59 0.304,-0.586 0.291,-0.579C0.278,-0.572 0.268,-0.561 0.261,-0.547C0.254,-0.533 0.251,-0.516 0.251,-0.494L0.251,-0.465L0.391,-0.465L0.391,-0.377L0.251,-0.377L0.251,-0L0.139,-0L0.139,-0.377Z" style="fill:rgb(32,45,73);fill-rule:nonzero;"/>
            </g>
            <g transform="matrix(9,0,0,9,35.7921,62.9147)">
                <path d="M0.212,0.012C0.193,0.012 0.175,0.009 0.159,0.004C0.142,-0.001 0.127,-0.008 0.114,-0.019C0.1,-0.029 0.089,-0.042 0.079,-0.058C0.069,-0.074 0.062,-0.093 0.057,-0.116C0.052,-0.138 0.049,-0.163 0.049,-0.192L0.049,-0.465L0.163,-0.465L0.163,-0.192C0.163,-0.171 0.164,-0.154 0.168,-0.139C0.171,-0.125 0.177,-0.113 0.183,-0.104C0.19,-0.095 0.198,-0.089 0.207,-0.085C0.215,-0.081 0.225,-0.079 0.235,-0.079C0.249,-0.079 0.262,-0.081 0.273,-0.086C0.285,-0.091 0.295,-0.099 0.304,-0.109C0.312,-0.119 0.318,-0.131 0.323,-0.147C0.327,-0.162 0.33,-0.18 0.33,-0.2L0.33,-0.465L0.443,-0.465L0.443,-0.074C0.443,-0.06 0.444,-0.047 0.445,-0.035C0.446,-0.023 0.449,-0.012 0.453,-0L0.35,-0C0.346,-0.007 0.344,-0.014 0.343,-0.02C0.341,-0.027 0.34,-0.034 0.34,-0.04C0.34,-0.047 0.34,-0.054 0.34,-0.06C0.333,-0.049 0.325,-0.038 0.315,-0.029C0.306,-0.02 0.295,-0.013 0.284,-0.007C0.273,-0.001 0.262,0.004 0.25,0.007C0.237,0.01 0.225,0.012 0.212,0.012Z" style="fill:rgb(32,45,73);fill-rule:nonzero;"/>
            </g>
            <g transform="matrix(9,0,0,9,40.2921,62.9147)">
                <path d="M0.055,-0L0.055,-0.465L0.168,-0.465L0.168,-0.401C0.18,-0.416 0.192,-0.429 0.205,-0.44C0.218,-0.451 0.233,-0.46 0.249,-0.467C0.266,-0.473 0.283,-0.476 0.302,-0.476C0.329,-0.476 0.354,-0.47 0.377,-0.457C0.4,-0.443 0.418,-0.422 0.432,-0.394C0.446,-0.365 0.453,-0.327 0.453,-0.281L0.453,-0L0.34,-0L0.34,-0.279C0.34,-0.305 0.337,-0.326 0.332,-0.342C0.327,-0.358 0.319,-0.37 0.309,-0.378C0.298,-0.386 0.286,-0.389 0.272,-0.389C0.259,-0.389 0.247,-0.387 0.234,-0.382C0.222,-0.376 0.211,-0.369 0.201,-0.359C0.191,-0.349 0.183,-0.338 0.177,-0.324C0.171,-0.31 0.168,-0.295 0.168,-0.277L0.168,-0L0.055,-0Z" style="fill:rgb(32,45,73);fill-rule:nonzero;"/>
            </g>
            <g transform="matrix(9,0,0,9,44.7921,62.9147)">
                <path d="M0.278,0.012C0.244,0.012 0.213,0.006 0.183,-0.006C0.154,-0.018 0.129,-0.035 0.107,-0.056C0.086,-0.078 0.069,-0.103 0.057,-0.132C0.045,-0.161 0.039,-0.194 0.039,-0.229C0.039,-0.263 0.045,-0.295 0.057,-0.325C0.069,-0.355 0.086,-0.381 0.107,-0.404C0.129,-0.426 0.154,-0.444 0.183,-0.456C0.213,-0.469 0.244,-0.476 0.279,-0.476C0.322,-0.476 0.359,-0.468 0.391,-0.452C0.423,-0.436 0.448,-0.414 0.467,-0.386L0.398,-0.31L0.39,-0.316C0.39,-0.322 0.389,-0.327 0.388,-0.333C0.386,-0.338 0.382,-0.345 0.375,-0.353C0.362,-0.366 0.348,-0.374 0.333,-0.378C0.317,-0.383 0.3,-0.385 0.28,-0.385C0.263,-0.385 0.247,-0.382 0.232,-0.375C0.217,-0.368 0.204,-0.358 0.192,-0.344C0.18,-0.331 0.171,-0.315 0.164,-0.296C0.157,-0.276 0.154,-0.254 0.154,-0.229C0.154,-0.207 0.158,-0.186 0.165,-0.168C0.172,-0.149 0.181,-0.133 0.193,-0.121C0.205,-0.108 0.218,-0.098 0.234,-0.091C0.25,-0.084 0.266,-0.08 0.283,-0.08C0.297,-0.08 0.311,-0.082 0.324,-0.086C0.338,-0.09 0.351,-0.096 0.364,-0.104C0.377,-0.112 0.389,-0.124 0.4,-0.138L0.463,-0.066C0.438,-0.039 0.409,-0.019 0.377,-0.007C0.344,0.005 0.311,0.012 0.278,0.012Z" style="fill:rgb(32,45,73);fill-rule:nonzero;"/>
            </g>
            <g transform="matrix(9,0,0,9,49.2921,62.9147)">
                <path d="M0.396,0.108C0.332,0.08 0.279,0.044 0.235,0C0.191,-0.043 0.158,-0.093 0.136,-0.148C0.114,-0.203 0.103,-0.26 0.103,-0.32C0.103,-0.38 0.114,-0.436 0.136,-0.49C0.158,-0.543 0.19,-0.591 0.233,-0.634C0.276,-0.677 0.328,-0.712 0.39,-0.739L0.418,-0.645C0.385,-0.628 0.356,-0.609 0.331,-0.586C0.305,-0.564 0.284,-0.539 0.266,-0.512C0.248,-0.484 0.234,-0.454 0.225,-0.422C0.216,-0.389 0.212,-0.354 0.212,-0.317C0.212,-0.28 0.216,-0.245 0.226,-0.212C0.236,-0.179 0.25,-0.148 0.268,-0.119C0.287,-0.091 0.309,-0.065 0.335,-0.042C0.362,-0.019 0.392,0.001 0.426,0.018L0.396,0.108Z" style="fill:rgb(32,45,73);fill-rule:nonzero;"/>
            </g>
            <g transform="matrix(9,0,0,9,53.7921,62.9147)">
                <path d="M0.028,-0L0.189,-0.233L0.03,-0.465L0.149,-0.465L0.249,-0.321L0.342,-0.465L0.456,-0.465L0.309,-0.237L0.476,-0L0.354,-0L0.249,-0.148L0.149,-0L0.028,-0Z" style="fill:rgb(32,45,73);fill-rule:nonzero;"/>
            </g>
            <g transform="matrix(9,0,0,9,58.2921,62.9147)">
                <path d="M0.213,0.17L0.152,0.119C0.17,0.102 0.185,0.085 0.195,0.068C0.205,0.051 0.21,0.037 0.21,0.025C0.21,0.018 0.207,0.011 0.203,0.004C0.198,-0.002 0.193,-0.009 0.187,-0.016C0.18,-0.022 0.175,-0.03 0.17,-0.039C0.166,-0.047 0.163,-0.057 0.163,-0.069C0.163,-0.091 0.171,-0.108 0.187,-0.12C0.202,-0.132 0.22,-0.138 0.24,-0.138C0.266,-0.138 0.287,-0.129 0.302,-0.111C0.318,-0.092 0.325,-0.068 0.325,-0.038C0.325,-0.022 0.323,-0.006 0.318,0.01C0.314,0.026 0.307,0.043 0.298,0.061C0.289,0.078 0.277,0.096 0.263,0.114C0.249,0.132 0.233,0.151 0.213,0.17Z" style="fill:rgb(32,45,73);fill-rule:nonzero;"/>
            </g>
            <g transform="matrix(9,0,0,9,67.2921,62.9147)">
                <path d="M0.126,0.176C0.104,0.176 0.084,0.172 0.066,0.165C0.049,0.157 0.032,0.146 0.015,0.133L0.054,0.055L0.058,0.046L0.067,0.05C0.069,0.055 0.071,0.06 0.074,0.065C0.077,0.069 0.083,0.075 0.092,0.081C0.097,0.084 0.102,0.086 0.108,0.087C0.114,0.088 0.119,0.089 0.126,0.089C0.139,0.089 0.151,0.085 0.161,0.078C0.17,0.07 0.179,0.059 0.187,0.044C0.196,0.029 0.204,0.009 0.212,-0.015L0.313,-0.3C0.323,-0.329 0.331,-0.357 0.338,-0.383C0.345,-0.41 0.349,-0.437 0.351,-0.465L0.456,-0.465C0.453,-0.435 0.447,-0.403 0.435,-0.37C0.424,-0.337 0.412,-0.305 0.401,-0.275L0.286,0.041C0.267,0.09 0.245,0.125 0.219,0.146C0.192,0.166 0.161,0.176 0.126,0.176ZM0.031,-0.465L0.144,-0.465L0.281,-0.11L0.222,0.011L0.031,-0.465Z" style="fill:rgb(32,45,73);fill-rule:nonzero;"/>
            </g>
            <g transform="matrix(9,0,0,9,71.7921,62.9147)">
                <path d="M0.132,0.108L0.102,0.018C0.136,0.001 0.166,-0.019 0.193,-0.042C0.219,-0.065 0.241,-0.091 0.26,-0.119C0.278,-0.148 0.292,-0.179 0.302,-0.212C0.312,-0.245 0.316,-0.28 0.316,-0.317C0.316,-0.354 0.312,-0.389 0.303,-0.422C0.294,-0.454 0.28,-0.484 0.262,-0.512C0.244,-0.539 0.223,-0.564 0.197,-0.586C0.172,-0.609 0.143,-0.628 0.11,-0.645L0.138,-0.739C0.2,-0.712 0.253,-0.677 0.295,-0.634C0.338,-0.591 0.37,-0.543 0.392,-0.49C0.414,-0.436 0.425,-0.38 0.425,-0.32C0.425,-0.26 0.414,-0.203 0.392,-0.148C0.37,-0.093 0.337,-0.043 0.293,0C0.25,0.044 0.196,0.08 0.132,0.108Z" style="fill:rgb(32,45,73);fill-rule:nonzero;"/>
            </g>
            <g transform="matrix(9,0,0,9,76.2921,62.9147)">
                <path d="M0.235,-0.291C0.214,-0.291 0.197,-0.298 0.182,-0.314C0.167,-0.329 0.16,-0.346 0.16,-0.366C0.16,-0.386 0.167,-0.404 0.182,-0.419C0.197,-0.435 0.214,-0.442 0.235,-0.442C0.254,-0.442 0.272,-0.435 0.288,-0.42C0.303,-0.405 0.311,-0.387 0.311,-0.366C0.311,-0.346 0.304,-0.329 0.289,-0.314C0.275,-0.298 0.257,-0.291 0.235,-0.291ZM0.235,0.012C0.214,0.012 0.196,0.005 0.181,-0.01C0.167,-0.025 0.16,-0.043 0.16,-0.063C0.16,-0.083 0.167,-0.101 0.182,-0.117C0.197,-0.132 0.214,-0.14 0.235,-0.14C0.254,-0.14 0.272,-0.132 0.288,-0.117C0.303,-0.102 0.311,-0.084 0.311,-0.063C0.311,-0.043 0.304,-0.026 0.29,-0.011C0.275,0.005 0.257,0.012 0.235,0.012Z" style="fill:rgb(32,45,73);fill-rule:nonzero;"/>
            </g>
            <g transform="matrix(9,0,0,9,22.2921,71.9147)">
                <path d="M0.04,-0.068L0.297,-0.372L0.06,-0.372L0.06,-0.465L0.437,-0.465L0.437,-0.394L0.185,-0.093L0.414,-0.093C0.425,-0.093 0.433,-0.094 0.438,-0.095C0.442,-0.096 0.447,-0.099 0.451,-0.103L0.46,-0.103L0.46,-0L0.04,-0L0.04,-0.068Z" style="fill:rgb(32,45,73);fill-rule:nonzero;"/>
            </g>
            <g transform="matrix(9,0,0,9,31.2921,71.9147)">
                <path d="M0.043,-0.376L0.043,-0.464L0.461,-0.464L0.461,-0.376L0.043,-0.376ZM0.043,-0.168L0.043,-0.255L0.461,-0.255L0.461,-0.168L0.043,-0.168Z" style="fill:rgb(32,45,73);fill-rule:nonzero;"/>
            </g>
            <g transform="matrix(9,0,0,9,40.2921,71.9147)">
                <path d="M0.028,-0L0.189,-0.233L0.03,-0.465L0.149,-0.465L0.249,-0.321L0.342,-0.465L0.456,-0.465L0.309,-0.237L0.476,-0L0.354,-0L0.249,-0.148L0.149,-0L0.028,-0Z" style="fill:rgb(32,45,73);fill-rule:nonzero;"/>
            </g>
            <g transform="matrix(9,0,0,9,49.2921,71.9147)">
                <path d="M0.207,-0.103L0.207,-0.28L0.04,-0.28L0.04,-0.368L0.207,-0.368L0.207,-0.53L0.302,-0.53L0.302,-0.368L0.464,-0.368L0.464,-0.28L0.302,-0.28L0.302,-0.103L0.207,-0.103Z" style="fill:rgb(32,45,73);fill-rule:nonzero;"/>
            </g>
            <g transform="matrix(9,0,0,9,58.2921,71.9147)">
                <path d="M0.126,0.176C0.104,0.176 0.084,0.172 0.066,0.165C0.049,0.157 0.032,0.146 0.015,0.133L0.054,0.055L0.058,0.046L0.067,0.05C0.069,0.055 0.071,0.06 0.074,0.065C0.077,0.069 0.083,0.075 0.092,0.081C0.097,0.084 0.102,0.086 0.108,0.087C0.114,0.088 0.119,0.089 0.126,0.089C0.139,0.089 0.151,0.085 0.161,0.078C0.17,0.07 0.179,0.059 0.187,0.044C0.196,0.029 0.204,0.009 0.212,-0.015L0.313,-0.3C0.323,-0.329 0.331,-0.357 0.338,-0.383C0.345,-0.41 0.349,-0.437 0.351,-0.465L0.456,-0.465C0.453,-0.435 0.447,-0.403 0.435,-0.37C0.424,-0.337 0.412,-0.305 0.401,-0.275L0.286,0.041C0.267,0.09 0.245,0.125 0.219,0.146C0.192,0.166 0.161,0.176 0.126,0.176ZM0.031,-0.465L0.144,-0.465L0.281,-0.11L0.222,0.011L0.031,-0.465Z" style="fill:rgb(32,45,73);fill-rule:nonzero;"/>
            </g>
            <g transform="matrix(9,0,0,9,62.7921,71.9147)">
                <path d="M0.155,-0.108L0.065,-0.18L0.187,-0.31L0.031,-0.355L0.071,-0.457L0.21,-0.382L0.188,-0.543L0.321,-0.543L0.293,-0.382L0.428,-0.45L0.469,-0.351L0.314,-0.311L0.432,-0.18L0.341,-0.109L0.25,-0.259L0.155,-0.108Z" style="fill:rgb(32,45,73);fill-rule:nonzero;"/>
            </g>
            <g transform="matrix(9,0,0,9,67.2921,71.9147)">
                <path d="M0.155,-0.108L0.065,-0.18L0.187,-0.31L0.031,-0.355L0.071,-0.457L0.21,-0.382L0.188,-0.543L0.321,-0.543L0.293,-0.382L0.428,-0.45L0.469,-0.351L0.314,-0.311L0.432,-0.18L0.341,-0.109L0.25,-0.259L0.155,-0.108Z" style="fill:rgb(32,45,73);fill-rule:nonzero;"/>
            </g>
            <g transform="matrix(9,0,0,9,71.7921,71.9147)">
                <path d="M0.057,-0.084C0.096,-0.121 0.13,-0.154 0.16,-0.184C0.19,-0.213 0.216,-0.239 0.239,-0.263C0.261,-0.287 0.28,-0.309 0.295,-0.329C0.31,-0.349 0.321,-0.369 0.328,-0.389C0.335,-0.409 0.339,-0.43 0.339,-0.452C0.339,-0.467 0.337,-0.479 0.333,-0.49C0.329,-0.501 0.324,-0.509 0.316,-0.517C0.309,-0.524 0.3,-0.529 0.289,-0.532C0.278,-0.536 0.265,-0.538 0.251,-0.538C0.237,-0.538 0.224,-0.536 0.211,-0.533C0.199,-0.53 0.188,-0.525 0.177,-0.518C0.166,-0.511 0.156,-0.502 0.146,-0.491C0.14,-0.482 0.136,-0.475 0.134,-0.47C0.133,-0.466 0.132,-0.461 0.133,-0.455L0.127,-0.448L0.12,-0.453L0.042,-0.513C0.057,-0.539 0.076,-0.56 0.097,-0.578C0.119,-0.596 0.143,-0.609 0.169,-0.618C0.195,-0.627 0.223,-0.632 0.252,-0.632C0.288,-0.632 0.321,-0.624 0.35,-0.61C0.38,-0.595 0.403,-0.574 0.42,-0.547C0.438,-0.52 0.446,-0.489 0.446,-0.452C0.446,-0.426 0.442,-0.402 0.435,-0.379C0.427,-0.356 0.416,-0.333 0.403,-0.311C0.389,-0.29 0.372,-0.267 0.352,-0.245C0.332,-0.222 0.31,-0.198 0.285,-0.173C0.261,-0.148 0.234,-0.121 0.205,-0.092L0.402,-0.092C0.413,-0.092 0.421,-0.093 0.426,-0.094C0.43,-0.096 0.435,-0.098 0.439,-0.102L0.448,-0.102L0.448,-0L0.057,-0L0.057,-0.084Z" style="fill:rgb(32,45,73);fill-rule:nonzero;"/>
            </g>
            <g transform="matrix(9,0,0,9,22.2921,80.9147)">
                <path d="M0.089,-0.465L0.206,-0.465L0.205,-0.335L0.192,-0.343C0.194,-0.363 0.2,-0.382 0.209,-0.398C0.218,-0.414 0.23,-0.428 0.243,-0.44C0.257,-0.452 0.272,-0.461 0.288,-0.467C0.305,-0.473 0.322,-0.476 0.339,-0.476C0.365,-0.476 0.389,-0.472 0.41,-0.464C0.431,-0.455 0.45,-0.442 0.468,-0.423L0.42,-0.328L0.417,-0.32L0.408,-0.324C0.406,-0.329 0.404,-0.335 0.402,-0.341C0.4,-0.346 0.395,-0.353 0.387,-0.36C0.378,-0.367 0.368,-0.373 0.358,-0.377C0.348,-0.381 0.336,-0.383 0.324,-0.383C0.308,-0.383 0.293,-0.38 0.278,-0.375C0.264,-0.369 0.251,-0.361 0.24,-0.35C0.229,-0.338 0.22,-0.324 0.214,-0.306C0.207,-0.289 0.204,-0.268 0.204,-0.244L0.204,0L0.089,0L0.089,-0.465Z" style="fill:rgb(218,86,73);fill-rule:nonzero;"/>
            </g>
            <g transform="matrix(9,0,0,9,26.7921,80.9147)">
                <path d="M0.271,0.011C0.237,0.011 0.207,0.006 0.178,-0.005C0.15,-0.016 0.125,-0.031 0.105,-0.052C0.084,-0.072 0.067,-0.097 0.056,-0.127C0.045,-0.157 0.039,-0.191 0.039,-0.229C0.039,-0.268 0.044,-0.303 0.056,-0.333C0.067,-0.364 0.083,-0.39 0.103,-0.411C0.123,-0.432 0.146,-0.448 0.172,-0.46C0.199,-0.471 0.228,-0.476 0.258,-0.476C0.285,-0.476 0.311,-0.472 0.335,-0.462C0.359,-0.453 0.38,-0.439 0.398,-0.42C0.416,-0.401 0.431,-0.377 0.442,-0.349C0.452,-0.321 0.458,-0.288 0.458,-0.25C0.458,-0.243 0.458,-0.235 0.457,-0.226C0.457,-0.216 0.457,-0.208 0.456,-0.202L0.148,-0.202C0.149,-0.18 0.154,-0.161 0.161,-0.146C0.169,-0.13 0.178,-0.117 0.19,-0.107C0.202,-0.097 0.215,-0.09 0.23,-0.085C0.245,-0.08 0.26,-0.077 0.276,-0.077C0.29,-0.077 0.304,-0.079 0.317,-0.081C0.329,-0.084 0.342,-0.089 0.353,-0.095C0.365,-0.102 0.376,-0.11 0.387,-0.121L0.445,-0.065C0.43,-0.047 0.414,-0.033 0.395,-0.022C0.377,-0.01 0.358,-0.002 0.337,0.003C0.316,0.009 0.294,0.011 0.271,0.011ZM0.15,-0.287L0.348,-0.287C0.348,-0.303 0.346,-0.318 0.342,-0.33C0.337,-0.343 0.331,-0.354 0.323,-0.362C0.315,-0.371 0.305,-0.378 0.293,-0.382C0.281,-0.386 0.268,-0.388 0.253,-0.388C0.24,-0.388 0.228,-0.386 0.216,-0.383C0.205,-0.379 0.194,-0.372 0.185,-0.364C0.176,-0.355 0.168,-0.345 0.162,-0.332C0.156,-0.319 0.152,-0.304 0.15,-0.287Z" style="fill:rgb(218,86,73);fill-rule:nonzero;"/>
            </g>
            <g transform="matrix(9,0,0,9,31.2921,80.9147)">
                <path d="M0.299,0.01C0.272,0.01 0.249,0.006 0.229,-0.003C0.21,-0.011 0.193,-0.025 0.18,-0.045C0.168,-0.064 0.158,-0.09 0.153,-0.122C0.147,-0.154 0.145,-0.194 0.147,-0.241L0.16,-0.575L0.277,-0.59L0.286,-0.591L0.287,-0.582C0.284,-0.577 0.281,-0.572 0.279,-0.568C0.276,-0.563 0.275,-0.555 0.274,-0.544L0.263,-0.406L0.268,-0.399L0.26,-0.243C0.258,-0.2 0.259,-0.167 0.264,-0.143C0.269,-0.119 0.277,-0.103 0.288,-0.094C0.298,-0.085 0.311,-0.081 0.325,-0.081C0.346,-0.081 0.365,-0.085 0.382,-0.094C0.399,-0.102 0.415,-0.112 0.43,-0.124L0.454,-0.042C0.431,-0.025 0.407,-0.013 0.382,-0.004C0.356,0.006 0.329,0.01 0.299,0.01ZM0.059,-0.465L0.417,-0.465L0.416,-0.376L0.057,-0.376L0.059,-0.465Z" style="fill:rgb(218,86,73);fill-rule:nonzero;"/>
            </g>
            <g transform="matrix(9,0,0,9,35.7921,80.9147)">
                <path d="M0.212,0.012C0.193,0.012 0.175,0.009 0.159,0.004C0.142,-0.001 0.127,-0.008 0.114,-0.019C0.1,-0.029 0.089,-0.042 0.079,-0.058C0.069,-0.074 0.062,-0.093 0.057,-0.116C0.052,-0.138 0.049,-0.163 0.049,-0.192L0.049,-0.465L0.163,-0.465L0.163,-0.192C0.163,-0.171 0.164,-0.154 0.168,-0.139C0.171,-0.125 0.177,-0.113 0.183,-0.104C0.19,-0.095 0.198,-0.089 0.207,-0.085C0.215,-0.081 0.225,-0.079 0.235,-0.079C0.249,-0.079 0.262,-0.081 0.273,-0.086C0.285,-0.091 0.295,-0.099 0.304,-0.109C0.312,-0.119 0.318,-0.131 0.323,-0.147C0.327,-0.162 0.33,-0.18 0.33,-0.2L0.33,-0.465L0.443,-0.465L0.443,-0.074C0.443,-0.06 0.444,-0.047 0.445,-0.035C0.446,-0.023 0.449,-0.012 0.453,-0L0.35,-0C0.346,-0.007 0.344,-0.014 0.343,-0.02C0.341,-0.027 0.34,-0.034 0.34,-0.04C0.34,-0.047 0.34,-0.054 0.34,-0.06C0.333,-0.049 0.325,-0.038 0.315,-0.029C0.306,-0.02 0.295,-0.013 0.284,-0.007C0.273,-0.001 0.262,0.004 0.25,0.007C0.237,0.01 0.225,0.012 0.212,0.012Z" style="fill:rgb(218,86,73);fill-rule:nonzero;"/>
            </g>
            <g transform="matrix(9,0,0,9,40.2921,80.9147)">
                <path d="M0.089,-0.465L0.206,-0.465L0.205,-0.335L0.192,-0.343C0.194,-0.363 0.2,-0.382 0.209,-0.398C0.218,-0.414 0.23,-0.428 0.243,-0.44C0.257,-0.452 0.272,-0.461 0.288,-0.467C0.305,-0.473 0.322,-0.476 0.339,-0.476C0.365,-0.476 0.389,-0.472 0.41,-0.464C0.431,-0.455 0.45,-0.442 0.468,-0.423L0.42,-0.328L0.417,-0.32L0.408,-0.324C0.406,-0.329 0.404,-0.335 0.402,-0.341C0.4,-0.346 0.395,-0.353 0.387,-0.36C0.378,-0.367 0.368,-0.373 0.358,-0.377C0.348,-0.381 0.336,-0.383 0.324,-0.383C0.308,-0.383 0.293,-0.38 0.278,-0.375C0.264,-0.369 0.251,-0.361 0.24,-0.35C0.229,-0.338 0.22,-0.324 0.214,-0.306C0.207,-0.289 0.204,-0.268 0.204,-0.244L0.204,0L0.089,0L0.089,-0.465Z" style="fill:rgb(218,86,73);fill-rule:nonzero;"/>
            </g>
            <g transform="matrix(9,0,0,9,44.7921,80.9147)">
                <path d="M0.055,-0L0.055,-0.465L0.168,-0.465L0.168,-0.401C0.18,-0.416 0.192,-0.429 0.205,-0.44C0.218,-0.451 0.233,-0.46 0.249,-0.467C0.266,-0.473 0.283,-0.476 0.302,-0.476C0.329,-0.476 0.354,-0.47 0.377,-0.457C0.4,-0.443 0.418,-0.422 0.432,-0.394C0.446,-0.365 0.453,-0.327 0.453,-0.281L0.453,-0L0.34,-0L0.34,-0.279C0.34,-0.305 0.337,-0.326 0.332,-0.342C0.327,-0.358 0.319,-0.37 0.309,-0.378C0.298,-0.386 0.286,-0.389 0.272,-0.389C0.259,-0.389 0.247,-0.387 0.234,-0.382C0.222,-0.376 0.211,-0.369 0.201,-0.359C0.191,-0.349 0.183,-0.338 0.177,-0.324C0.171,-0.31 0.168,-0.295 0.168,-0.277L0.168,-0L0.055,-0Z" style="fill:rgb(218,86,73);fill-rule:nonzero;"/>
            </g>
            <g transform="matrix(9,0,0,9,53.7921,80.9147)">
                <path d="M0.04,-0.068L0.297,-0.372L0.06,-0.372L0.06,-0.465L0.437,-0.465L0.437,-0.394L0.185,-0.093L0.414,-0.093C0.425,-0.093 0.433,-0.094 0.438,-0.095C0.442,-0.096 0.447,-0.099 0.451,-0.103L0.46,-0.103L0.46,-0L0.04,-0L0.04,-0.068Z" style="fill:rgb(32,45,73);fill-rule:nonzero;"/>
            </g>
        </g>
    </g>
    <g transform="matrix(1,0,0,1,11.3683,3.58001)">
        <path d="M15.203,18.765C15.143,18.765 15.092,18.753 15.048,18.73C15.005,18.707 14.972,18.672 14.948,18.625C14.925,18.578 14.913,18.522 14.913,18.455L14.913,12.075C14.913,12.008 14.925,11.955 14.948,11.915C14.972,11.875 15.007,11.843 15.053,11.82C15.1,11.797 15.157,11.785 15.223,11.785C15.29,11.785 15.347,11.788 15.393,11.795C15.44,11.802 15.482,11.815 15.518,11.835C15.555,11.855 15.59,11.885 15.623,11.925L18.423,16.085L18.023,16.085L20.863,11.885C20.89,11.852 20.922,11.828 20.958,11.815C20.995,11.802 21.038,11.793 21.088,11.79C21.138,11.787 21.193,11.785 21.253,11.785C21.32,11.785 21.375,11.797 21.418,11.82C21.462,11.843 21.495,11.878 21.518,11.925C21.542,11.972 21.553,12.028 21.553,12.095L21.553,18.475C21.553,18.535 21.542,18.587 21.518,18.63C21.495,18.673 21.46,18.707 21.413,18.73C21.367,18.753 21.31,18.765 21.243,18.765C21.183,18.765 21.132,18.753 21.088,18.73C21.045,18.707 21.012,18.672 20.988,18.625C20.965,18.578 20.953,18.522 20.953,18.455L20.953,12.715L18.493,16.385C18.473,16.412 18.45,16.435 18.423,16.455C18.397,16.475 18.367,16.49 18.333,16.5C18.3,16.51 18.263,16.515 18.223,16.515C18.183,16.515 18.15,16.51 18.123,16.5C18.097,16.49 18.072,16.475 18.048,16.455C18.025,16.435 17.993,16.405 17.953,16.365L15.503,12.715L15.503,18.475C15.503,18.535 15.492,18.587 15.468,18.63C15.445,18.673 15.412,18.707 15.368,18.73C15.325,18.753 15.27,18.765 15.203,18.765Z" style="fill:rgb(32,45,73);fill-rule:nonzero;stroke:rgb(32,45,73);stroke-width:0.5px;stroke-linecap:butt;stroke-miterlimit:2;"/>
        <path d="M28.263,11.775C28.35,11.842 28.4,11.903 28.413,11.96C28.427,12.017 28.407,12.082 28.353,12.155L25.883,15.915L25.883,18.465C25.883,18.538 25.873,18.597 25.853,18.64C25.833,18.683 25.802,18.715 25.758,18.735C25.715,18.755 25.657,18.765 25.583,18.765C25.51,18.765 25.452,18.755 25.408,18.735C25.365,18.715 25.333,18.682 25.313,18.635C25.293,18.588 25.283,18.525 25.283,18.445L25.283,15.905L22.793,12.175C22.747,12.102 22.732,12.037 22.748,11.98C22.765,11.923 22.817,11.862 22.903,11.795C22.97,11.748 23.025,11.718 23.068,11.705C23.112,11.692 23.153,11.695 23.193,11.715C23.233,11.735 23.27,11.775 23.303,11.835L25.583,15.395L27.853,11.835C27.887,11.782 27.922,11.745 27.958,11.725C27.995,11.705 28.038,11.698 28.088,11.705C28.138,11.712 28.197,11.735 28.263,11.775Z" style="fill:rgb(32,45,73);fill-rule:nonzero;stroke:rgb(32,45,73);stroke-width:0.5px;stroke-linecap:butt;stroke-miterlimit:2;"/>
        <path d="M35.433,18.755C35.04,18.755 34.67,18.698 34.323,18.585C33.977,18.472 33.66,18.31 33.373,18.1C33.087,17.89 32.84,17.637 32.633,17.34C32.427,17.043 32.267,16.713 32.153,16.35C32.04,15.987 31.983,15.598 31.983,15.185C31.983,14.778 32.04,14.398 32.153,14.045C32.267,13.692 32.427,13.375 32.633,13.095C32.84,12.815 33.087,12.573 33.373,12.37C33.66,12.167 33.977,12.01 34.323,11.9C34.67,11.79 35.04,11.732 35.433,11.725C35.767,11.725 36.05,11.757 36.283,11.82C36.517,11.883 36.707,11.952 36.853,12.025C37,12.098 37.103,12.155 37.163,12.195C37.243,12.242 37.322,12.297 37.398,12.36C37.475,12.423 37.52,12.492 37.533,12.565C37.547,12.632 37.545,12.682 37.528,12.715C37.512,12.748 37.493,12.782 37.473,12.815C37.447,12.862 37.413,12.895 37.373,12.915C37.333,12.935 37.29,12.945 37.243,12.945C37.183,12.945 37.13,12.925 37.083,12.885C37.037,12.845 36.977,12.802 36.903,12.755C36.863,12.728 36.777,12.682 36.643,12.615C36.51,12.548 36.338,12.485 36.128,12.425C35.918,12.365 35.673,12.335 35.393,12.335C34.993,12.335 34.622,12.405 34.278,12.545C33.935,12.685 33.637,12.883 33.383,13.14C33.13,13.397 32.933,13.702 32.793,14.055C32.653,14.408 32.583,14.802 32.583,15.235C32.583,15.668 32.653,16.063 32.793,16.42C32.933,16.777 33.13,17.083 33.383,17.34C33.637,17.597 33.935,17.795 34.278,17.935C34.622,18.075 34.993,18.145 35.393,18.145C35.673,18.145 35.918,18.115 36.128,18.055C36.338,17.995 36.51,17.93 36.643,17.86C36.777,17.79 36.863,17.745 36.903,17.725C36.977,17.685 37.037,17.645 37.083,17.605C37.13,17.565 37.183,17.545 37.243,17.545C37.29,17.545 37.333,17.553 37.373,17.57C37.413,17.587 37.447,17.618 37.473,17.665C37.493,17.692 37.512,17.725 37.528,17.765C37.545,17.805 37.547,17.858 37.533,17.925C37.52,17.998 37.475,18.067 37.398,18.13C37.322,18.193 37.243,18.248 37.163,18.295C37.103,18.328 36.998,18.383 36.848,18.46C36.698,18.537 36.507,18.605 36.273,18.665C36.04,18.725 35.76,18.755 35.433,18.755Z" style="fill:rgb(32,45,73);fill-rule:nonzero;stroke:rgb(32,45,73);stroke-width:0.5px;stroke-linecap:butt;stroke-miterlimit:2;"/>
        <path d="M41.883,18.815C41.41,18.815 40.967,18.725 40.553,18.545C40.14,18.365 39.775,18.115 39.458,17.795C39.142,17.475 38.895,17.105 38.718,16.685C38.542,16.265 38.453,15.815 38.453,15.335C38.453,14.842 38.54,14.378 38.713,13.945C38.887,13.512 39.127,13.132 39.433,12.805C39.74,12.478 40.095,12.222 40.498,12.035C40.902,11.848 41.333,11.755 41.793,11.755C42.267,11.755 42.71,11.845 43.123,12.025C43.537,12.205 43.898,12.457 44.208,12.78C44.518,13.103 44.762,13.48 44.938,13.91C45.115,14.34 45.203,14.802 45.203,15.295C45.203,15.775 45.117,16.227 44.943,16.65C44.77,17.073 44.53,17.448 44.223,17.775C43.917,18.102 43.563,18.357 43.163,18.54C42.763,18.723 42.337,18.815 41.883,18.815ZM41.823,18.215C42.21,18.215 42.572,18.14 42.908,17.99C43.245,17.84 43.54,17.63 43.793,17.36C44.047,17.09 44.245,16.778 44.388,16.425C44.532,16.072 44.603,15.692 44.603,15.285C44.603,14.885 44.532,14.508 44.388,14.155C44.245,13.802 44.045,13.49 43.788,13.22C43.532,12.95 43.237,12.738 42.903,12.585C42.57,12.432 42.213,12.355 41.833,12.355C41.453,12.355 41.095,12.432 40.758,12.585C40.422,12.738 40.125,12.948 39.868,13.215C39.612,13.482 39.412,13.793 39.268,14.15C39.125,14.507 39.053,14.888 39.053,15.295C39.053,15.695 39.127,16.072 39.273,16.425C39.42,16.778 39.62,17.088 39.873,17.355C40.127,17.622 40.42,17.832 40.753,17.985C41.087,18.138 41.443,18.215 41.823,18.215Z" style="fill:rgb(32,45,73);fill-rule:nonzero;stroke:rgb(32,45,73);stroke-width:0.5px;stroke-linecap:butt;stroke-miterlimit:2;"/>
        <path d="M46.563,18.765C46.503,18.765 46.452,18.752 46.408,18.725C46.365,18.698 46.332,18.662 46.308,18.615C46.285,18.568 46.273,18.515 46.273,18.455L46.273,12.075C46.273,12.008 46.285,11.953 46.308,11.91C46.332,11.867 46.367,11.833 46.413,11.81C46.46,11.787 46.513,11.775 46.573,11.775L48.623,11.785C49.123,11.785 49.572,11.863 49.968,12.02C50.365,12.177 50.702,12.403 50.978,12.7C51.255,12.997 51.465,13.358 51.608,13.785C51.752,14.212 51.823,14.695 51.823,15.235C51.823,15.788 51.75,16.283 51.603,16.72C51.457,17.157 51.245,17.527 50.968,17.83C50.692,18.133 50.353,18.365 49.953,18.525C49.553,18.685 49.1,18.765 48.593,18.765L46.563,18.765ZM46.863,18.165L48.623,18.165C49.17,18.165 49.637,18.05 50.023,17.82C50.41,17.59 50.707,17.26 50.913,16.83C51.12,16.4 51.223,15.885 51.223,15.285C51.223,14.678 51.12,14.158 50.913,13.725C50.707,13.292 50.408,12.96 50.018,12.73C49.628,12.5 49.16,12.385 48.613,12.385L46.863,12.385L46.863,18.165Z" style="fill:rgb(32,45,73);fill-rule:nonzero;stroke:rgb(32,45,73);stroke-width:0.5px;stroke-linecap:butt;stroke-miterlimit:2;"/>
        <path d="M53.723,18.765C53.65,18.765 53.592,18.755 53.548,18.735C53.505,18.715 53.475,18.682 53.458,18.635C53.442,18.588 53.433,18.528 53.433,18.455L53.433,12.085C53.433,11.972 53.457,11.893 53.503,11.85C53.55,11.807 53.633,11.785 53.753,11.785L57.893,11.785C57.967,11.785 58.025,11.795 58.068,11.815C58.112,11.835 58.142,11.867 58.158,11.91C58.175,11.953 58.183,12.015 58.183,12.095C58.183,12.168 58.173,12.227 58.153,12.27C58.133,12.313 58.102,12.343 58.058,12.36C58.015,12.377 57.957,12.385 57.883,12.385L54.023,12.385L54.023,14.855L56.733,14.855C56.807,14.855 56.865,14.865 56.908,14.885C56.952,14.905 56.983,14.937 57.003,14.98C57.023,15.023 57.033,15.085 57.033,15.165C57.033,15.238 57.023,15.297 57.003,15.34C56.983,15.383 56.95,15.413 56.903,15.43C56.857,15.447 56.793,15.455 56.713,15.455L54.023,15.455L54.023,18.165L57.893,18.165C57.967,18.165 58.025,18.175 58.068,18.195C58.112,18.215 58.142,18.247 58.158,18.29C58.175,18.333 58.183,18.392 58.183,18.465C58.183,18.538 58.173,18.597 58.153,18.64C58.133,18.683 58.102,18.715 58.058,18.735C58.015,18.755 57.957,18.765 57.883,18.765L53.723,18.765Z" style="fill:rgb(32,45,73);fill-rule:nonzero;stroke:rgb(32,45,73);stroke-width:0.5px;stroke-linecap:butt;stroke-miterlimit:2;"/>
    </g>
</svg>
