<?xml version="1.0" encoding="UTF-8" standalone="no"?>
<!DOCTYPE svg PUBLIC "-//W3C//DTD SVG 1.1//EN" "http://www.w3.org/Graphics/SVG/1.1/DTD/svg11.dtd">
<svg width="100%" height="100%" viewBox="0 0 95 95" version="1.1" xmlns="http://www.w3.org/2000/svg" xmlns:xlink="http://www.w3.org/1999/xlink" xml:space="preserve" xmlns:serif="http://www.serif.com/" style="fill-rule:evenodd;clip-rule:evenodd;stroke-linecap:round;stroke-miterlimit:1;">
    <g transform="matrix(0.585863,0,0,0.585863,19.6715,-2.31976)">
        <g transform="matrix(1.05583,0,0,1.07212,-3.21659,6.85592)">
            <path d="M86.975,14.676C86.975,11.47 84.333,8.868 81.077,8.868L14.992,8.868C11.737,8.868 9.094,11.47 9.094,14.676L9.094,61.144C9.094,64.35 11.737,66.953 14.992,66.953L81.077,66.953C84.333,66.953 86.975,64.35 86.975,61.144L86.975,14.676Z" style="fill:none;stroke:rgb(32,45,73);stroke-width:1.93px;"/>
        </g>
        <g transform="matrix(1,0,0,1,-0.0619967,-0.45153)">
            <g transform="matrix(1,0,0,1,-0.005,10.2231)">
                <path d="M23.375,47.495L42.713,35.123L56.124,49.572L71.487,25.366" style="fill:none;stroke:rgb(32,45,73);stroke-width:2.05px;"/>
            </g>
            <g transform="matrix(1,0,0,1,46.9351,-13.3288)">
                <circle cx="24.547" cy="49.805" r="4.855" style="fill:white;stroke:rgb(32,45,73);stroke-width:2.05px;"/>
            </g>
            <g transform="matrix(1,0,0,1,31.2863,8.98453)">
                <circle cx="24.547" cy="49.805" r="4.855" style="fill:white;stroke:rgb(32,45,73);stroke-width:2.05px;"/>
            </g>
            <g transform="matrix(1,0,0,1,18.1595,-4.33079)">
                <circle cx="24.547" cy="49.805" r="4.855" style="fill:white;stroke:rgb(32,45,73);stroke-width:2.05px;"/>
            </g>
            <g transform="matrix(1,0,0,1,-1.17722,7.91803)">
                <circle cx="24.547" cy="49.805" r="4.855" style="fill:white;stroke:rgb(32,45,73);stroke-width:2.05px;"/>
            </g>
            <g transform="matrix(1,0,0,1,-0.005,10.2231)">
                <rect x="14.051" y="13.851" width="67.032" height="47.755" style="fill:none;stroke:rgb(32,45,73);stroke-width:2.05px;stroke-linejoin:round;"/>
            </g>
        </g>
    </g>
    <g transform="matrix(1,0,0,1,0.101832,2.76376)">
        <g transform="matrix(1,0,0,1,-0.554201,-3.72085)">
            <circle cx="48.054" cy="48.614" r="11.365" style="fill:rgb(32,45,73);stroke:rgb(32,45,73);stroke-width:1.5px;stroke-linejoin:round;"/>
        </g>
        <g transform="matrix(4.86506e-18,-0.0786406,0.0786406,4.86506e-18,9.58051,72.1105)">
            <g transform="matrix(1.00511,-0.00469684,0.00472088,0.999989,-5.75206,64.7249)">
                <path d="M237.717,419.279L458.454,420.316" style="fill:none;stroke:white;stroke-width:15.22px;stroke-linejoin:round;stroke-miterlimit:1.5;"/>
            </g>
            <path d="M457.028,482.883L393.021,418.835" style="fill:none;stroke:white;stroke-width:15.26px;stroke-linejoin:round;stroke-miterlimit:1.5;"/>
            <path d="M457.028,482.883L393.021,545.539" style="fill:none;stroke:white;stroke-width:15.26px;stroke-linejoin:round;stroke-miterlimit:1.5;"/>
        </g>
    </g>
    <g transform="matrix(0.354746,0,0,0.33407,30.5254,58.736)">
        <g>
            <g>
                <path d="M82,86.8L13.7,86.8C10.9,86.8 8.7,84.6 8.7,81.8L8.7,13.5C8.7,10.7 10.9,8.5 13.7,8.5L82,8.5C84.8,8.5 87,10.7 87,13.5L87,81.8C87,84.5 84.8,86.8 82,86.8Z" style="fill:white;fill-rule:nonzero;stroke:rgb(32,45,73);stroke-width:3.48px;stroke-linecap:butt;stroke-miterlimit:10;"/>
                <g>
                    <g transform="matrix(1,-8.67362e-19,-8.67362e-19,1,-3.62354,-36.5438)">
                        <path d="M21,57.4L81.947,57.669" style="fill:none;fill-rule:nonzero;stroke:rgb(32,45,73);stroke-width:3.48px;stroke-miterlimit:10;"/>
                    </g>
                    <g transform="matrix(1,-8.67362e-19,-8.67362e-19,1,-3.62354,-23.0524)">
                        <path d="M21,57.4L81.947,57.669" style="fill:none;fill-rule:nonzero;stroke:rgb(32,45,73);stroke-width:3.48px;stroke-miterlimit:10;"/>
                    </g>
                    <g transform="matrix(1,-8.67362e-19,-8.67362e-19,1,-3.62354,-9.56097)">
                        <path d="M21,57.4L81.947,57.669" style="fill:none;fill-rule:nonzero;stroke:rgb(32,45,73);stroke-width:3.48px;stroke-miterlimit:10;"/>
                    </g>
                    <g transform="matrix(1,-8.67362e-19,-8.67362e-19,1,-3.62354,3.93043)">
                        <path d="M21,57.4L81.947,57.669" style="fill:none;fill-rule:nonzero;stroke:rgb(32,45,73);stroke-width:3.48px;stroke-miterlimit:10;"/>
                    </g>
                    <g transform="matrix(1,-8.67362e-19,-8.67362e-19,1,-3.62354,17.4218)">
                        <path d="M21,57.4L81.947,57.669" style="fill:none;fill-rule:nonzero;stroke:rgb(32,45,73);stroke-width:3.48px;stroke-miterlimit:10;"/>
                    </g>
                </g>
            </g>
        </g>
    </g>
</svg>
