<?xml version="1.0" encoding="UTF-8" standalone="no"?>
<!DOCTYPE svg PUBLIC "-//W3C//DTD SVG 1.1//EN" "http://www.w3.org/Graphics/SVG/1.1/DTD/svg11.dtd">
<svg width="100%" height="100%" viewBox="0 0 95 95" version="1.1" xmlns="http://www.w3.org/2000/svg" xmlns:xlink="http://www.w3.org/1999/xlink" xml:space="preserve" xmlns:serif="http://www.serif.com/" style="fill-rule:evenodd;clip-rule:evenodd;stroke-linecap:round;stroke-linejoin:round;stroke-miterlimit:1;">
    <g transform="matrix(1,0,0,1,0.191845,-0.103352)">
        <rect x="43.036" y="55.532" width="39.953" height="17.819" style="fill:none;stroke:rgb(32,45,73);stroke-width:1.7px;"/>
        <rect x="11.627" y="21.856" width="25.947" height="51.496" style="fill:none;stroke:rgb(32,45,73);stroke-width:1.7px;"/>
        <g transform="matrix(0.596036,0,0,0.596036,34.6641,7.50662)">
            <g>
                <g>
                    <g>
                        <g transform="matrix(1,0,0,1,-0.005,10.2231)">
                            <path d="M23.375,47.495L42.713,35.123L56.124,49.572L71.487,25.366" style="fill:none;stroke:rgb(32,45,73);stroke-width:2.85px;stroke-linejoin:miter;"/>
                        </g>
                        <g transform="matrix(1,0,0,1,46.9351,-13.3288)">
                            <circle cx="24.547" cy="49.805" r="4.855" style="fill:white;stroke:rgb(32,45,73);stroke-width:2.85px;stroke-linejoin:miter;"/>
                        </g>
                        <g transform="matrix(1,0,0,1,31.2863,8.98453)">
                            <circle cx="24.547" cy="49.805" r="4.855" style="fill:white;stroke:rgb(32,45,73);stroke-width:2.85px;stroke-linejoin:miter;"/>
                        </g>
                        <g transform="matrix(1,0,0,1,18.1595,-4.33079)">
                            <circle cx="24.547" cy="49.805" r="4.855" style="fill:white;stroke:rgb(32,45,73);stroke-width:2.85px;stroke-linejoin:miter;"/>
                        </g>
                        <g transform="matrix(1,0,0,1,-1.17722,7.91803)">
                            <circle cx="24.547" cy="49.805" r="4.855" style="fill:white;stroke:rgb(32,45,73);stroke-width:2.85px;stroke-linejoin:miter;"/>
                        </g>
                    </g>
                    <g transform="matrix(1,0,0,1,0.131037,52.5614)">
                        <path d="M23.375,47.495L42.571,42.035L56.124,49.572L72.29,39.11" style="fill:none;stroke:rgb(32,45,73);stroke-width:2.85px;"/>
                    </g>
                    <g transform="matrix(1,0,0,1,-0.005,7.22306)">
                        <path d="M14.051,53.575L81.083,36.379" style="fill:none;stroke:rgb(218,86,73);stroke-width:2.85px;stroke-linejoin:miter;"/>
                    </g>
                </g>
                <g transform="matrix(1,0,0,1,-0.005,10.2231)">
                    <rect x="14.051" y="13.851" width="67.032" height="47.755" style="fill:none;stroke:rgb(32,45,73);stroke-width:2.85px;"/>
                </g>
                <g transform="matrix(1,0,0,1,-0.005,10.2231)">
                    <rect x="14.051" y="13.851" width="67.032" height="47.755" style="fill:none;stroke:rgb(32,45,73);stroke-width:2.85px;"/>
                </g>
            </g>
        </g>
        <g transform="matrix(1,0,0,1,2.84705,4.65174)">
            <path d="M18.469,29.437C18.337,29.547 18.221,29.619 18.122,29.654C18.023,29.689 17.928,29.682 17.836,29.632C17.745,29.583 17.644,29.494 17.534,29.365L12.342,22.969C12.184,22.789 12.106,22.63 12.108,22.49C12.11,22.351 12.206,22.197 12.397,22.028C12.529,21.911 12.644,21.836 12.743,21.803C12.842,21.77 12.939,21.777 13.032,21.825C13.126,21.872 13.225,21.962 13.332,22.094L18.524,28.507C18.689,28.691 18.771,28.85 18.771,28.986C18.771,29.121 18.67,29.272 18.469,29.437ZM12.402,29.437C12.208,29.272 12.11,29.121 12.108,28.986C12.106,28.85 12.186,28.691 12.347,28.507L17.539,22.094C17.649,21.962 17.75,21.872 17.842,21.825C17.933,21.777 18.03,21.77 18.131,21.803C18.231,21.836 18.346,21.911 18.474,22.028C18.672,22.197 18.771,22.351 18.771,22.49C18.771,22.63 18.691,22.789 18.529,22.969L13.337,29.365C13.231,29.494 13.131,29.583 13.038,29.632C12.944,29.682 12.848,29.689 12.749,29.654C12.65,29.619 12.534,29.547 12.402,29.437Z" style="fill:rgb(32,45,73);fill-rule:nonzero;stroke:rgb(32,45,73);stroke-width:0.3px;stroke-linecap:butt;stroke-miterlimit:2;"/>
            <path d="M20.498,25.911C20.223,25.911 20.031,25.857 19.921,25.749C19.811,25.641 19.756,25.453 19.756,25.185C19.756,24.995 19.78,24.844 19.827,24.734C19.875,24.624 19.954,24.545 20.064,24.498C20.174,24.45 20.32,24.426 20.504,24.426C20.779,24.426 20.97,24.481 21.079,24.591C21.187,24.701 21.241,24.896 21.241,25.174C21.241,25.354 21.218,25.499 21.172,25.609C21.126,25.719 21.049,25.797 20.941,25.843C20.833,25.888 20.685,25.911 20.498,25.911ZM20.493,29.569C20.218,29.569 20.025,29.515 19.915,29.407C19.805,29.298 19.75,29.11 19.75,28.843C19.75,28.652 19.774,28.503 19.822,28.395C19.869,28.286 19.948,28.208 20.058,28.158C20.168,28.109 20.315,28.084 20.498,28.084C20.773,28.084 20.965,28.139 21.073,28.249C21.181,28.359 21.235,28.553 21.235,28.832C21.235,29.015 21.212,29.161 21.167,29.269C21.121,29.377 21.044,29.454 20.936,29.5C20.827,29.546 20.68,29.569 20.493,29.569Z" style="fill:rgb(32,45,73);fill-rule:nonzero;stroke:rgb(32,45,73);stroke-width:0.3px;stroke-linecap:butt;stroke-miterlimit:2;"/>
            <path d="M25.806,29.514C25.633,29.514 25.48,29.445 25.347,29.308C25.213,29.17 25.146,29.011 25.146,28.832C25.146,28.714 25.153,28.601 25.168,28.491C25.182,28.381 25.215,28.274 25.264,28.169C25.314,28.065 25.391,27.966 25.498,27.875C25.831,27.596 26.173,27.339 26.524,27.105C26.874,26.87 27.21,26.646 27.533,26.431C27.855,26.217 28.144,26.002 28.399,25.788C28.654,25.573 28.856,25.347 29.004,25.108C29.153,24.87 29.227,24.61 29.227,24.327C29.227,24.104 29.181,23.9 29.089,23.717C28.998,23.533 28.852,23.387 28.652,23.277C28.452,23.167 28.189,23.112 27.863,23.112C27.635,23.112 27.436,23.144 27.263,23.208C27.091,23.272 26.947,23.367 26.832,23.491C26.716,23.616 26.628,23.768 26.568,23.948C26.507,24.127 26.477,24.331 26.477,24.558C26.477,24.683 26.466,24.794 26.444,24.891C26.422,24.988 26.365,25.064 26.273,25.119C26.182,25.174 26.026,25.202 25.806,25.202C25.586,25.202 25.43,25.168 25.338,25.1C25.247,25.032 25.192,24.942 25.173,24.831C25.155,24.719 25.146,24.6 25.146,24.476C25.146,24.109 25.206,23.763 25.327,23.436C25.448,23.11 25.626,22.823 25.861,22.576C26.095,22.328 26.38,22.134 26.713,21.993C27.047,21.851 27.426,21.781 27.852,21.781C28.387,21.781 28.858,21.89 29.265,22.108C29.672,22.326 29.991,22.634 30.222,23.032C30.453,23.43 30.569,23.902 30.569,24.448C30.569,24.734 30.525,25.002 30.437,25.251C30.349,25.501 30.227,25.733 30.071,25.95C29.915,26.166 29.736,26.367 29.535,26.552C29.333,26.737 29.118,26.911 28.889,27.075C28.659,27.238 28.427,27.392 28.193,27.537C27.958,27.681 27.731,27.82 27.511,27.952L27.087,28.172L30.217,28.172C30.341,28.172 30.454,28.185 30.555,28.21C30.656,28.236 30.735,28.296 30.792,28.392C30.848,28.487 30.877,28.641 30.877,28.854C30.877,29.055 30.847,29.204 30.786,29.299C30.726,29.395 30.644,29.454 30.541,29.478C30.439,29.502 30.323,29.514 30.195,29.514L25.806,29.514Z" style="fill:rgb(32,45,73);fill-rule:nonzero;stroke:rgb(32,45,73);stroke-width:0.3px;stroke-linecap:butt;stroke-miterlimit:2;"/>
            <path d="M18.073,33.951C18.282,34.098 18.397,34.237 18.419,34.369C18.441,34.501 18.39,34.657 18.265,34.837L15.812,38.544L15.812,40.909C15.812,41.03 15.799,41.141 15.774,41.242C15.748,41.342 15.689,41.423 15.595,41.484C15.502,41.544 15.35,41.574 15.141,41.574C14.932,41.574 14.781,41.544 14.688,41.484C14.594,41.423 14.534,41.341 14.509,41.236C14.483,41.132 14.47,41.015 14.47,40.887L14.47,38.538L12.006,34.848C11.878,34.664 11.829,34.506 11.861,34.372C11.892,34.238 12.01,34.102 12.215,33.962C12.366,33.86 12.493,33.798 12.598,33.778C12.702,33.758 12.798,33.776 12.886,33.833C12.974,33.89 13.059,33.986 13.139,34.122L15.125,37.257L17.138,34.122C17.226,33.986 17.312,33.891 17.396,33.836C17.481,33.781 17.577,33.762 17.685,33.781C17.793,33.799 17.922,33.856 18.073,33.951Z" style="fill:rgb(32,45,73);fill-rule:nonzero;stroke:rgb(32,45,73);stroke-width:0.3px;stroke-linecap:butt;stroke-miterlimit:2;"/>
            <path d="M19.86,37.911C19.585,37.911 19.393,37.857 19.283,37.749C19.173,37.641 19.118,37.453 19.118,37.185C19.118,36.995 19.142,36.844 19.189,36.734C19.237,36.624 19.316,36.545 19.426,36.498C19.536,36.45 19.682,36.426 19.866,36.426C20.141,36.426 20.332,36.481 20.441,36.591C20.549,36.701 20.603,36.896 20.603,37.174C20.603,37.354 20.58,37.499 20.534,37.609C20.488,37.719 20.411,37.797 20.303,37.843C20.195,37.888 20.047,37.911 19.86,37.911ZM19.855,41.569C19.58,41.569 19.387,41.515 19.277,41.407C19.167,41.298 19.112,41.11 19.112,40.843C19.112,40.652 19.136,40.503 19.184,40.395C19.231,40.286 19.31,40.208 19.42,40.158C19.53,40.109 19.677,40.084 19.86,40.084C20.135,40.084 20.327,40.139 20.435,40.249C20.543,40.359 20.597,40.553 20.597,40.832C20.597,41.015 20.574,41.161 20.529,41.269C20.483,41.377 20.406,41.454 20.298,41.5C20.189,41.546 20.042,41.569 19.855,41.569Z" style="fill:rgb(32,45,73);fill-rule:nonzero;stroke:rgb(32,45,73);stroke-width:0.3px;stroke-linecap:butt;stroke-miterlimit:2;"/>
            <path d="M28.996,41.558C28.79,41.558 28.641,41.528 28.548,41.467C28.454,41.407 28.395,41.325 28.372,41.222C28.348,41.12 28.336,41.008 28.336,40.887L28.336,39.215L25.118,39.215C24.917,39.215 24.768,39.184 24.673,39.121C24.577,39.059 24.517,38.976 24.491,38.874C24.466,38.771 24.453,38.661 24.453,38.544C24.453,38.485 24.456,38.435 24.461,38.393C24.467,38.35 24.475,38.307 24.486,38.263L25.569,34.364C25.639,34.085 25.732,33.919 25.85,33.866C25.967,33.813 26.145,33.812 26.383,33.863C26.578,33.907 26.724,33.98 26.823,34.081C26.922,34.181 26.952,34.309 26.911,34.463L25.938,37.972L28.336,37.972L28.336,34.479C28.336,34.366 28.349,34.264 28.374,34.174C28.4,34.084 28.461,34.011 28.559,33.954C28.656,33.897 28.809,33.869 29.018,33.869C29.223,33.869 29.373,33.899 29.466,33.96C29.56,34.02 29.618,34.101 29.642,34.202C29.666,34.302 29.678,34.415 29.678,34.54L29.678,40.903C29.678,41.024 29.664,41.135 29.637,41.236C29.609,41.337 29.549,41.416 29.455,41.473C29.362,41.529 29.208,41.558 28.996,41.558Z" style="fill:rgb(32,45,73);fill-rule:nonzero;stroke:rgb(32,45,73);stroke-width:0.3px;stroke-linecap:butt;stroke-miterlimit:2;"/>
        </g>
    </g>
    <g transform="matrix(1.05583,0,0,1.07212,-3.21659,6.85592)">
        <path d="M86.975,14.676C86.975,11.47 84.333,8.868 81.077,8.868L14.992,8.868C11.737,8.868 9.094,11.47 9.094,14.676L9.094,61.144C9.094,64.35 11.737,66.953 14.992,66.953L81.077,66.953C84.333,66.953 86.975,64.35 86.975,61.144L86.975,14.676Z" style="fill:none;stroke:rgb(32,45,73);stroke-width:1.6px;stroke-linejoin:miter;"/>
    </g>
</svg>
