<?xml version="1.0" encoding="UTF-8" standalone="no"?>
<svg
   width="270"
   height="100"
   version="1.1"
   viewBox="0 0 71.437498 26.458333"
   id="svg4"
   sodipodi:docname="CSIRO_Logo.svg"
   inkscape:version="1.4.2 (ebf0e940d0, 2025-05-08)"
   xmlns:inkscape="http://www.inkscape.org/namespaces/inkscape"
   xmlns:sodipodi="http://sodipodi.sourceforge.net/DTD/sodipodi-0.dtd"
   xmlns="http://www.w3.org/2000/svg"
   xmlns:svg="http://www.w3.org/2000/svg">
  <defs
     id="defs4" />
  <sodipodi:namedview
     id="namedview4"
     pagecolor="#ffffff"
     bordercolor="#000000"
     borderopacity="0.25"
     inkscape:showpageshadow="2"
     inkscape:pageopacity="0.0"
     inkscape:pagecheckerboard="0"
     inkscape:deskcolor="#d1d1d1"
     inkscape:document-units="mm"
     showgrid="false"
     inkscape:zoom="2.260915"
     inkscape:cx="205.66895"
     inkscape:cy="1.9903447"
     inkscape:window-width="1704"
     inkscape:window-height="996"
     inkscape:window-x="0"
     inkscape:window-y="0"
     inkscape:window-maximized="1"
     inkscape:current-layer="svg4" />
  <g
     transform="translate(-57.024,-54.635)"
     id="g4">
    <g
       transform="matrix(1.0662,0,0,1.0663,-3.7769,-5.3737)"
       id="g3">
      <g
         transform="matrix(0.35278,0,0,-0.35278,81.838,68.687)"
         id="g1">
        <path
           d="m 0,0 c 0,-19.425 -15.746,-35.17 -35.17,-35.17 -19.425,0 -35.171,15.745 -35.171,35.17 0,19.424 15.746,35.169 35.171,35.169 C -15.746,35.169 0,19.424 0,0"
           fill="#00afdb"
           id="path1" />
      </g>
      <g
         transform="matrix(0.35278,0,0,-0.35278,68.35,59.258)"
         id="g2">
        <path
           d="m 0,0 c -0.963,0 -1.746,-0.78 -1.746,-1.745 v -14.933 c 0,-0.965 0.783,-1.745 1.746,-1.745 0.962,0 1.744,0.78 1.744,1.745 V -1.745 C 1.744,-0.78 0.962,0 0,0 M 11.687,0 C 10.725,0 9.942,-0.78 9.942,-1.745 v -21.633 c 0,-0.963 0.783,-1.746 1.745,-1.746 0.964,0 1.744,0.783 1.744,1.746 V -1.745 C 13.431,-0.78 12.651,0 11.687,0 m -23.375,-8.375 c -0.964,0 -1.745,-0.781 -1.745,-1.745 v -9.91 c 0,-0.961 0.781,-1.744 1.745,-1.744 0.963,0 1.743,0.783 1.743,1.744 v 9.91 c 0,0.964 -0.78,1.745 -1.743,1.745 m 29.219,0 c -0.962,0 -1.745,-0.781 -1.745,-1.745 v -9.91 c 0,-0.961 0.783,-1.744 1.745,-1.744 0.963,0 1.743,0.783 1.743,1.744 v 9.91 c 0,0.964 -0.78,1.745 -1.743,1.745 m -23.375,5.0261 c -0.964,0 -1.746,-0.781 -1.746,-1.745 v -13.259 c 0,-0.964 0.782,-1.746 1.746,-1.746 0.963,0 1.745,0.782 1.745,1.746 v 13.259 c 0,0.964 -0.782,1.745 -1.745,1.745 M 5.845,-5.0241 c -0.965,0 -1.746,-0.782 -1.746,-1.745 v -14.935 c 0,-0.961 0.781,-1.744 1.746,-1.744 0.962,0 1.743,0.783 1.743,1.744 v 14.935 c 0,0.963 -0.781,1.745 -1.743,1.745 m 7.7277,-23.657 c 0,-1.041 -0.844,-1.883 -1.885,-1.883 -1.04,0 -1.884,0.842 -1.884,1.883 0,1.039 0.844,1.882 1.884,1.882 1.041,0 1.885,-0.843 1.885,-1.882 m 12.31,-11.002 c 0,1.866 -1.368,3.422 -3.296,3.422 -1.928,0 -3.264,-1.524 -3.264,-3.39 v -0.032 c 0,-1.863 1.366,-3.42 3.296,-3.42 1.927,0 3.264,1.524 3.264,3.39 z m -3.296,-5.625 c -3.357,0 -5.767,2.5 -5.767,5.595 v 0.03 c 0,3.095 2.442,5.629 5.799,5.629 3.358,0 5.765,-2.504 5.765,-5.597 v -0.032 c 0,-3.092 -2.44,-5.625 -5.797,-5.625 m -9.8757,7.3509 c 0,1.026 -0.712,1.555 -1.878,1.555 H 8.455 v -3.125 h 2.424 c 1.167,0 1.832,0.621 1.832,1.539 z m -0.045,-7.165 -2.331,3.479 h -1.88 v -3.479 H 6.061 v 10.881 h 4.973 c 2.563,0 4.103,-1.353 4.103,-3.59 v -0.033 c 0,-1.755 -0.946,-2.86 -2.331,-3.373 l 2.659,-3.885 z m -12.061,2e-4 v 10.881 h 2.393 v -10.881 z m -6.6427,-0.1558 c -1.647,0 -3.309,0.575 -4.615,1.741 l 1.412,1.695 c 0.98,-0.809 2.007,-1.323 3.252,-1.323 0.979,0 1.569,0.39 1.569,1.026 v 0.031 c 0,0.609 -0.374,0.918 -2.194,1.384 -2.187,0.56 -3.606,1.168 -3.606,3.327 v 0.031 c 0,1.973 1.586,3.28 3.809,3.28 1.586,0 2.941,-0.495 4.042,-1.384 l -1.244,-1.803 c -0.962,0.669 -1.91,1.074 -2.829,1.074 -0.917,0 -1.399,-0.42 -1.399,-0.949 v -0.034 c 0,-0.713 0.466,-0.944 2.348,-1.425 2.207,-0.578 3.449,-1.37 3.449,-3.268 v -0.03 c 0,-2.164 -1.647,-3.373 -3.994,-3.373 m -10.64,-0.0308 c -3.201,0 -5.58,2.472 -5.58,5.595 v 0.03 c 0,3.096 2.331,5.63 5.673,5.63 2.055,0 3.28,-0.688 4.292,-1.681 l -1.524,-1.754 c -0.841,0.759 -1.694,1.227 -2.783,1.227 -1.833,0 -3.156,-1.524 -3.156,-3.39 v -0.032 c 0,-1.862 1.292,-3.419 3.156,-3.419 1.246,0 2.006,0.498 2.861,1.276 l 1.523,-1.541 c -1.119,-1.195 -2.363,-1.941 -4.462,-1.941"
           fill="#ffffff"
           id="path2" />
      </g>
    </g>
  </g>
  <text
     xml:space="preserve"
     style="font-style:normal;font-variant:normal;font-weight:normal;font-stretch:normal;font-size:6.35px;font-family:Montserrat;-inkscape-font-specification:Montserrat;text-align:start;writing-mode:lr-tb;direction:ltr;text-anchor:start;fill:#00afdb;fill-opacity:1;stroke-width:0.132292;stroke-dasharray:none"
     x="32.173035"
     y="7.2175808"
     id="text4"><tspan
       sodipodi:role="line"
       id="tspan4"
       style="font-style:normal;font-variant:normal;font-weight:normal;font-stretch:normal;font-size:6.35px;font-family:Montserrat;-inkscape-font-specification:Montserrat;fill:#00afdb;fill-opacity:1;stroke:#00afdb;stroke-width:0.132292;stroke-dasharray:none;stroke-opacity:1"
       x="32.173035"
       y="7.2175808">ON</tspan><tspan
       sodipodi:role="line"
       style="font-style:normal;font-variant:normal;font-weight:normal;font-stretch:normal;font-size:6.35px;font-family:Montserrat;-inkscape-font-specification:Montserrat;fill:#00afdb;fill-opacity:1;stroke:#00afdb;stroke-width:0.132292;stroke-dasharray:none;stroke-opacity:1"
       x="32.173035"
       y="15.155081"
       id="tspan5">Innovation</tspan><tspan
       sodipodi:role="line"
       style="font-style:normal;font-variant:normal;font-weight:normal;font-stretch:normal;font-size:6.35px;font-family:Montserrat;-inkscape-font-specification:Montserrat;fill:#00afdb;fill-opacity:1;stroke:#00afdb;stroke-width:0.132292;stroke-dasharray:none;stroke-opacity:1"
       x="32.173035"
       y="23.092581"
       id="tspan6">Program</tspan></text>
</svg>
