<?xml version="1.0" encoding="UTF-8" standalone="no"?>
<svg
   width="270"
   height="100"
   version="1.1"
   viewBox="0 0 71.437498 26.458333"
   id="svg4"
   sodipodi:docname="csiro.svg"
   inkscape:version="1.4.2 (ebf0e940d0, 2025-05-08)"
   xmlns:inkscape="http://www.inkscape.org/namespaces/inkscape"
   xmlns:sodipodi="http://sodipodi.sourceforge.net/DTD/sodipodi-0.dtd"
   xmlns="http://www.w3.org/2000/svg"
   xmlns:svg="http://www.w3.org/2000/svg">
  <defs
     id="defs4" />
  <sodipodi:namedview
     id="namedview4"
     pagecolor="#ffffff"
     bordercolor="#000000"
     borderopacity="0.25"
     inkscape:showpageshadow="2"
     inkscape:pageopacity="0.0"
     inkscape:pagecheckerboard="0"
     inkscape:deskcolor="#d1d1d1"
     inkscape:document-units="mm"
     showgrid="false"
     inkscape:zoom="2.260915"
     inkscape:cx="205.66894"
     inkscape:cy="1.9903446"
     inkscape:window-width="1704"
     inkscape:window-height="996"
     inkscape:window-x="0"
     inkscape:window-y="0"
     inkscape:window-maximized="1"
     inkscape:current-layer="svg4" />
  <g
     transform="translate(-57.024,-54.635)"
     id="g4">
    <g
       transform="matrix(1.0662,0,0,1.0663,-3.7769,-5.3737)"
       id="g3">
      <g
         transform="matrix(0.35278,0,0,-0.35278,81.838,68.687)"
         id="g1">
        <path
           d="m 0,0 c 0,-19.425 -15.746,-35.17 -35.17,-35.17 -19.425,0 -35.171,15.745 -35.171,35.17 0,19.424 15.746,35.169 35.171,35.169 C -15.746,35.169 0,19.424 0,0"
           fill="#00afdb"
           id="path1" />
      </g>
      <g
         transform="matrix(0.35278,0,0,-0.35278,68.35,59.258)"
         id="g2">
        <path
           d="m 0,0 c -0.963,0 -1.746,-0.78 -1.746,-1.745 v -14.933 c 0,-0.965 0.783,-1.745 1.746,-1.745 0.962,0 1.744,0.78 1.744,1.745 V -1.745 C 1.744,-0.78 0.962,0 0,0 M 11.687,0 C 10.725,0 9.942,-0.78 9.942,-1.745 v -21.633 c 0,-0.963 0.783,-1.746 1.745,-1.746 0.964,0 1.744,0.783 1.744,1.746 V -1.745 C 13.431,-0.78 12.651,0 11.687,0 m -23.375,-8.375 c -0.964,0 -1.745,-0.781 -1.745,-1.745 v -9.91 c 0,-0.961 0.781,-1.744 1.745,-1.744 0.963,0 1.743,0.783 1.743,1.744 v 9.91 c 0,0.964 -0.78,1.745 -1.743,1.745 m 29.219,0 c -0.962,0 -1.745,-0.781 -1.745,-1.745 v -9.91 c 0,-0.961 0.783,-1.744 1.745,-1.744 0.963,0 1.743,0.783 1.743,1.744 v 9.91 c 0,0.964 -0.78,1.745 -1.743,1.745 m -23.375,5.0261 c -0.964,0 -1.746,-0.781 -1.746,-1.745 v -13.259 c 0,-0.964 0.782,-1.746 1.746,-1.746 0.963,0 1.745,0.782 1.745,1.746 v 13.259 c 0,0.964 -0.782,1.745 -1.745,1.745 M 5.845,-5.0241 c -0.965,0 -1.746,-0.782 -1.746,-1.745 v -14.935 c 0,-0.961 0.781,-1.744 1.746,-1.744 0.962,0 1.743,0.783 1.743,1.744 v 14.935 c 0,0.963 -0.781,1.745 -1.743,1.745 m 7.7277,-23.657 c 0,-1.041 -0.844,-1.883 -1.885,-1.883 -1.04,0 -1.884,0.842 -1.884,1.883 0,1.039 0.844,1.882 1.884,1.882 1.041,0 1.885,-0.843 1.885,-1.882 m 12.31,-11.002 c 0,1.866 -1.368,3.422 -3.296,3.422 -1.928,0 -3.264,-1.524 -3.264,-3.39 v -0.032 c 0,-1.863 1.366,-3.42 3.296,-3.42 1.927,0 3.264,1.524 3.264,3.39 z m -3.296,-5.625 c -3.357,0 -5.767,2.5 -5.767,5.595 v 0.03 c 0,3.095 2.442,5.629 5.799,5.629 3.358,0 5.765,-2.504 5.765,-5.597 v -0.032 c 0,-3.092 -2.44,-5.625 -5.797,-5.625 m -9.8757,7.3509 c 0,1.026 -0.712,1.555 -1.878,1.555 H 8.455 v -3.125 h 2.424 c 1.167,0 1.832,0.621 1.832,1.539 z m -0.045,-7.165 -2.331,3.479 h -1.88 v -3.479 H 6.061 v 10.881 h 4.973 c 2.563,0 4.103,-1.353 4.103,-3.59 v -0.033 c 0,-1.755 -0.946,-2.86 -2.331,-3.373 l 2.659,-3.885 z m -12.061,2e-4 v 10.881 h 2.393 v -10.881 z m -6.6427,-0.1558 c -1.647,0 -3.309,0.575 -4.615,1.741 l 1.412,1.695 c 0.98,-0.809 2.007,-1.323 3.252,-1.323 0.979,0 1.569,0.39 1.569,1.026 v 0.031 c 0,0.609 -0.374,0.918 -2.194,1.384 -2.187,0.56 -3.606,1.168 -3.606,3.327 v 0.031 c 0,1.973 1.586,3.28 3.809,3.28 1.586,0 2.941,-0.495 4.042,-1.384 l -1.244,-1.803 c -0.962,0.669 -1.91,1.074 -2.829,1.074 -0.917,0 -1.399,-0.42 -1.399,-0.949 v -0.034 c 0,-0.713 0.466,-0.944 2.348,-1.425 2.207,-0.578 3.449,-1.37 3.449,-3.268 v -0.03 c 0,-2.164 -1.647,-3.373 -3.994,-3.373 m -10.64,-0.0308 c -3.201,0 -5.58,2.472 -5.58,5.595 v 0.03 c 0,3.096 2.331,5.63 5.673,5.63 2.055,0 3.28,-0.688 4.292,-1.681 l -1.524,-1.754 c -0.841,0.759 -1.694,1.227 -2.783,1.227 -1.833,0 -3.156,-1.524 -3.156,-3.39 v -0.032 c 0,-1.862 1.292,-3.419 3.156,-3.419 1.246,0 2.006,0.498 2.861,1.276 l 1.523,-1.541 c -1.119,-1.195 -2.363,-1.941 -4.462,-1.941"
           fill="#ffffff"
           id="path2" />
      </g>
    </g>
  </g>
  <g
     id="text4"
     style="font-size:6.35px;font-family:Montserrat;-inkscape-font-specification:Montserrat;fill:#00afdb;stroke-width:0.132292"
     aria-label="ON&#10;Innovation&#10;Program">
    <path
       style="stroke:#00afdb"
       d="m 34.840035,7.2556808 c 1.3335,0 2.33045,-0.95885 2.33045,-2.2606 0,-1.30175 -0.99695,-2.2605999 -2.33045,-2.2605999 -1.3462,0 -2.3368,0.9651999 -2.3368,2.2605999 0,1.2954 0.9906,2.2606 2.3368,2.2606 z m 0,-0.4191 c -1.07315,0 -1.87325,-0.78105 -1.87325,-1.8415 0,-1.06045 0.8001,-1.8414999 1.87325,-1.8414999 1.0668,0 1.86055,0.7810499 1.86055,1.8414999 0,1.06045 -0.79375,1.8415 -1.86055,1.8415 z m 3.384554,0.381 h 0.4699 v -3.6068 l 2.8575,3.6068 h 0.38735 V 2.7725809 h -0.46355 v 3.6067999 l -2.86385,-3.6067999 h -0.38735 z"
       id="path3" />
    <path
       style="stroke:#00afdb"
       d="m 32.896935,15.155081 h 0.4699 v -4.445 h -0.4699 z m 1.82245,0 h 0.45085 v -1.7526 c 0,-0.762 0.45085,-1.2065 1.1684,-1.2065 0.635,0 1.0033,0.36195 1.0033,1.0668 v 1.8923 h 0.45085 v -1.93675 c 0,-0.95885 -0.5588,-1.42875 -1.3716,-1.42875 -0.5842,0 -1.0287,0.23495 -1.27,0.64135 v -0.61595 h -0.4318 z m 4.29895,0 h 0.45085 v -1.7526 c 0,-0.762 0.45085,-1.2065 1.1684,-1.2065 0.635,0 1.0033,0.36195 1.0033,1.0668 v 1.8923 h 0.45085 v -1.93675 c 0,-0.95885 -0.5588,-1.42875 -1.3716,-1.42875 -0.5842,0 -1.0287,0.23495 -1.27,0.64135 v -0.61595 h -0.4318 z m 5.6642,0.03175 c 0.9779,0 1.69545,-0.7112 1.69545,-1.7018 0,-0.9906 -0.71755,-1.69545 -1.69545,-1.69545 -0.9779,0 -1.7018,0.70485 -1.7018,1.69545 0,0.9906 0.7239,1.7018 1.7018,1.7018 z m 0,-0.40005 c -0.7112,0 -1.2446,-0.5207 -1.2446,-1.30175 0,-0.78105 0.5334,-1.30175 1.2446,-1.30175 0.7112,0 1.23825,0.5207 1.23825,1.30175 0,0.78105 -0.52705,1.30175 -1.23825,1.30175 z m 3.378209,0.3683 h 0.46355 l 1.4859,-3.3401 h -0.4445 l -1.26365,2.8448 -1.25095,-2.8448 h -0.4699 z m 4.546596,0 h 0.4318 v -2.0701 c 0,-0.8636 -0.48895,-1.2954 -1.35255,-1.2954 -0.52705,0 -1.02235,0.1651 -1.3589,0.45085 l 0.2032,0.33655 c 0.27305,-0.2413 0.67945,-0.3937 1.11125,-0.3937 0.6223,0 0.94615,0.31115 0.94615,0.88265 v 0.2032 h -1.06045 c -0.95885,0 -1.28905,0.4318 -1.28905,0.94615 0,0.57785 0.46355,0.97155 1.2192,0.97155 0.55245,0 0.94615,-0.20955 1.14935,-0.55245 z m -0.01905,-1.0033 c -0.1778,0.43815 -0.55245,0.67945 -1.06045,0.67945 -0.5334,0 -0.84455,-0.2413 -0.84455,-0.62865 0,-0.3429 0.20955,-0.5969 0.85725,-0.5969 h 1.04775 z m 2.730502,1.03505 c 0.26035,0 0.52705,-0.0762 0.70485,-0.23495 l -0.15875,-0.32385 c -0.127,0.1143 -0.31115,0.17145 -0.4953,0.17145 -0.37465,0 -0.57785,-0.2159 -0.57785,-0.6096 v -1.9939 h 1.016 v -0.381 h -1.016 v -0.73025 h -0.45085 v 0.73025 h -0.5969 v 0.381 h 0.5969 v 2.0193 c 0,0.61595 0.34925,0.97155 0.9779,0.97155 z m 1.524,-0.03175 h 0.45085 v -3.3401 h -0.45085 z m 0.2286,-4.07035 c 0.1905,0 0.3302,-0.14605 0.3302,-0.3302 0,-0.17145 -0.14605,-0.31115 -0.3302,-0.31115 -0.1905,0 -0.3302,0.14605 -0.3302,0.3175 0,0.1778 0.1397,0.32385 0.3302,0.32385 z m 2.844795,4.1021 c 0.9779,0 1.69545,-0.7112 1.69545,-1.7018 0,-0.9906 -0.71755,-1.69545 -1.69545,-1.69545 -0.9779,0 -1.7018,0.70485 -1.7018,1.69545 0,0.9906 0.7239,1.7018 1.7018,1.7018 z m 0,-0.40005 c -0.7112,0 -1.2446,-0.5207 -1.2446,-1.30175 0,-0.78105 0.5334,-1.30175 1.2446,-1.30175 0.7112,0 1.23825,0.5207 1.23825,1.30175 0,0.78105 -0.52705,1.30175 -1.23825,1.30175 z m 2.616205,0.3683 h 0.45085 v -1.7526 c 0,-0.762 0.45085,-1.2065 1.1684,-1.2065 0.635,0 1.0033,0.36195 1.0033,1.0668 v 1.8923 h 0.45085 v -1.93675 c 0,-0.95885 -0.5588,-1.42875 -1.3716,-1.42875 -0.5842,0 -1.0287,0.23495 -1.27,0.64135 v -0.61595 h -0.4318 z"
       id="path4" />
    <path
       style="stroke:#00afdb"
       d="m 32.896935,23.092581 h 0.4699 v -1.40335 h 1.1938 c 1.1303,0 1.8161,-0.5715 1.8161,-1.51765 0,-0.9525 -0.6858,-1.524 -1.8161,-1.524 h -1.6637 z m 0.4699,-1.8161 v -2.2225 h 1.1811 c 0.889,0 1.3589,0.4064 1.3589,1.1176 0,0.6985 -0.4699,1.1049 -1.3589,1.1049 z m 3.848098,1.8161 h 0.45085 v -1.7018 c 0,-0.7874 0.42545,-1.2319 1.12395,-1.2319 0.03175,0 0.06985,0.0063 0.10795,0.0063 v -0.43815 c -0.6096,0 -1.0414,0.23495 -1.25095,0.6731 v -0.6477 h -0.4318 z m 3.829041,0.03175 c 0.9779,0 1.69545,-0.7112 1.69545,-1.7018 0,-0.9906 -0.71755,-1.69545 -1.69545,-1.69545 -0.9779,0 -1.7018,0.70485 -1.7018,1.69545 0,0.9906 0.7239,1.7018 1.7018,1.7018 z m 0,-0.40005 c -0.7112,0 -1.2446,-0.5207 -1.2446,-1.30175 0,-0.78105 0.5334,-1.30175 1.2446,-1.30175 0.7112,0 1.23825,0.5207 1.23825,1.30175 0,0.78105 -0.52705,1.30175 -1.23825,1.30175 z m 4.038604,1.63195 c 1.1049,0 1.67005,-0.5207 1.67005,-1.67005 v -2.9337 h -0.4318 v 0.635 c -0.2794,-0.4318 -0.762,-0.6604 -1.3208,-0.6604 -0.9525,0 -1.6764,0.65405 -1.6764,1.6129 0,0.95885 0.7239,1.6256 1.6764,1.6256 0.5461,0 1.02235,-0.2286 1.30175,-0.64135 v 0.4191 c 0,0.8255 -0.38735,1.21285 -1.2319,1.21285 -0.51435,0 -0.99695,-0.17145 -1.31445,-0.4572 l -0.2286,0.3429 c 0.34925,0.3302 0.94615,0.51435 1.55575,0.51435 z m -0.0381,-1.7907 c -0.7366,0 -1.26365,-0.50165 -1.26365,-1.22555 0,-0.7239 0.52705,-1.2192 1.26365,-1.2192 0.7366,0 1.27,0.4953 1.27,1.2192 0,0.7239 -0.5334,1.22555 -1.27,1.22555 z m 2.971806,0.52705 h 0.45085 v -1.7018 c 0,-0.7874 0.42545,-1.2319 1.12395,-1.2319 0.03175,0 0.06985,0.0063 0.10795,0.0063 v -0.43815 c -0.6096,0 -1.0414,0.23495 -1.25095,0.6731 v -0.6477 h -0.4318 z m 4.375142,0 h 0.4318 v -2.0701 c 0,-0.8636 -0.48895,-1.2954 -1.35255,-1.2954 -0.52705,0 -1.02235,0.1651 -1.3589,0.45085 l 0.2032,0.33655 c 0.27305,-0.2413 0.67945,-0.3937 1.11125,-0.3937 0.6223,0 0.94615,0.31115 0.94615,0.88265 v 0.2032 h -1.06045 c -0.95885,0 -1.28905,0.4318 -1.28905,0.94615 0,0.57785 0.46355,0.97155 1.2192,0.97155 0.55245,0 0.94615,-0.20955 1.14935,-0.55245 z m -0.01905,-1.0033 c -0.1778,0.43815 -0.55245,0.67945 -1.06045,0.67945 -0.5334,0 -0.84455,-0.2413 -0.84455,-0.62865 0,-0.3429 0.20955,-0.5969 0.85725,-0.5969 h 1.04775 z m 1.6764,1.0033 h 0.45085 v -1.7526 c 0,-0.762 0.43815,-1.2065 1.1176,-1.2065 0.6096,0 0.9652,0.36195 0.9652,1.0668 v 1.8923 h 0.45085 v -1.7526 c 0,-0.762 0.4318,-1.2065 1.1176,-1.2065 0.60325,0 0.95885,0.36195 0.95885,1.0668 v 1.8923 h 0.45085 v -1.93675 c 0,-0.95885 -0.5334,-1.42875 -1.3462,-1.42875 -0.60325,0 -1.0795,0.27305 -1.3208,0.70485 -0.19685,-0.4699 -0.635,-0.70485 -1.18745,-0.70485 -0.5588,0 -0.9906,0.23495 -1.22555,0.635 v -0.6096 h -0.4318 z"
       id="path5" />
  </g>
</svg>
