<?xml version="1.0" encoding="UTF-8" standalone="no"?>
<!-- Generator: Adobe Illustrator 16.0.0, SVG Export Plug-In . SVG Version: 6.00 Build 0)  -->

<svg
   xmlns:dc="http://purl.org/dc/elements/1.1/"
   xmlns:cc="http://creativecommons.org/ns#"
   xmlns:rdf="http://www.w3.org/1999/02/22-rdf-syntax-ns#"
   xmlns:svg="http://www.w3.org/2000/svg"
   xmlns="http://www.w3.org/2000/svg"
   xmlns:sodipodi="http://sodipodi.sourceforge.net/DTD/sodipodi-0.dtd"
   xmlns:inkscape="http://www.inkscape.org/namespaces/inkscape"
   version="1.2"
   id="Layer_1"
   x="0px"
   y="0px"
   width="910.953"
   height="386.18225"
   viewBox="0 0 910.953 386.18225"
   xml:space="preserve"
   sodipodi:docname="unsw.svg"
   inkscape:version="0.92.5 (2060ec1f9f, 2020-04-08)"><metadata
   id="metadata45"><rdf:RDF><cc:Work
       rdf:about=""><dc:format>image/svg+xml</dc:format><dc:type
         rdf:resource="http://purl.org/dc/dcmitype/StillImage" /><dc:title></dc:title></cc:Work></rdf:RDF></metadata><defs
   id="defs43" /><sodipodi:namedview
   pagecolor="#ffffff"
   bordercolor="#666666"
   borderopacity="1"
   objecttolerance="10"
   gridtolerance="10"
   guidetolerance="10"
   inkscape:pageopacity="0"
   inkscape:pageshadow="2"
   inkscape:window-width="5056"
   inkscape:window-height="2778"
   id="namedview41"
   showgrid="false"
   fit-margin-top="0"
   fit-margin-left="0"
   fit-margin-right="0"
   fit-margin-bottom="0"
   inkscape:zoom="1.3350176"
   inkscape:cx="545.01357"
   inkscape:cy="-87.01631"
   inkscape:window-x="3870"
   inkscape:window-y="68"
   inkscape:window-maximized="0"
   inkscape:current-layer="Layer_1" />
<g
   id="g38"
   transform="translate(-59.596,-313.785)">
	<path
   d="M 303.49,313.785 H 59.597 v 246.491 c 0,10.345 6.065,19.783 15.659,24.365 L 181.546,635.38 287.768,585 c 9.624,-4.575 15.723,-14.03 15.723,-24.398 V 313.785"
   id="path2"
   inkscape:connector-curvature="0"
   style="fill:#bcbec0" />
	<path
   d="m 298.067,381.308 v 179.294 c 0,8.306 -4.985,16.025 -12.695,19.678 L 181.557,629.525 77.656,579.93 C 69.861,576.217 65.02,568.684 65.02,560.288 V 319.22 h 233.047 v 62.088"
   id="path4"
   inkscape:connector-curvature="0"
   style="fill:#ffffff" />
	<path
   d="m 298.067,457.818 -72.096,-0.092 0.005,-76.417 h -90.078 v 76.417 H 65.02 v 79.083 h 70.873 v 71.215 l 45.664,21.509 44.42,-21.067 V 536.81 l 72.084,0.096 0.006,-79.088"
   id="path6"
   inkscape:connector-curvature="0"
   style="fill:#d94827" />
	<path
   d="M 65.02,381.308 H 298.067 V 319.214 H 65.02 v 62.094"
   id="path8"
   inkscape:connector-curvature="0"
   style="fill:#231f20" />
	<path
   d="m 302.625,616.217 -16.097,-7.686 c -3.888,-1.848 -8.147,-2.8 -12.454,-2.795 -4.24,0 -8.479,0.925 -12.382,2.761 l -80.141,38.023 -80.162,-38.023 c -7.861,-3.718 -16.975,-3.707 -24.83,0.034 l -16.098,7.686 c -0.524,0.248 -0.859,0.777 -0.865,1.353 v 44.514 c 0,3.494 2.966,6.041 6.243,6.041 0.918,0 1.86,-0.191 2.77,-0.62 l 7.95,-3.803 c 3.891,-1.849 8.143,-2.808 12.447,-2.808 4.235,0 8.48,0.925 12.388,2.768 l 73.264,34.755 c 4.358,2.067 9.408,2.067 13.762,0 l 73.276,-34.744 c 3.874,-1.83 8.097,-2.778 12.376,-2.778 4.272,0 8.528,0.937 12.447,2.808 l 7.956,3.803 c 0.914,0.429 1.845,0.62 2.771,0.62 3.271,0 6.242,-2.53 6.242,-6.041 v -44.514 c -0.003,-0.577 -0.339,-1.106 -0.863,-1.354"
   id="path10"
   inkscape:connector-curvature="0"
   style="fill:#bcbec0" />
	<path
   d="m 298.124,663.48 -9.213,-4.406 c -4.64,-2.197 -9.706,-3.336 -14.837,-3.347 -5.099,0.011 -10.137,1.139 -14.751,3.313 l -73.279,34.756 c -2.857,1.34 -6.15,1.34 -9.007,0 L 103.758,659.04 c -4.615,-2.174 -9.652,-3.302 -14.751,-3.302 -5.114,0 -10.247,1.15 -14.83,3.348 l -9.218,4.395 v -43.657 l 13.985,-6.672 c 6.347,-3.014 13.709,-3.024 20.067,-0.034 l 82.534,39.151 82.52,-39.14 c 6.359,-2.997 13.72,-2.986 20.073,0.034 l 13.994,6.66 v 43.657"
   id="path12"
   inkscape:connector-curvature="0"
   style="fill:#ffffff" />
	<path
   d="m 177.857,677.201 c -1.998,-0.05 -5.286,-0.305 -7.384,-0.084 l -0.515,-0.496 c 0.681,-0.755 1.304,-1.51 1.35,-2.457 -0.113,-2.355 0.092,-4.541 -0.028,-6.863 -0.057,-0.698 -0.848,-1.307 -1.488,-2.181 l 0.403,-0.214 c 2.383,-0.072 5.292,0.31 7.387,0.13 0.722,-0.062 1.412,-0.163 1.868,0.359 0,0.953 0.623,1.86 0.29,2.694 -1.084,0.282 -1.068,-0.709 -1.541,-1.193 -1.364,-0.835 -3.06,-0.808 -4.466,-0.689 -0.29,-0.111 -0.423,0.205 -0.231,0.604 -0.048,0.93 -0.059,1.921 -0.116,2.907 1.305,0.119 2.902,0.366 3.634,-0.67 0.397,-0.157 0.397,-0.157 0.694,-0.057 0.374,0.817 -0.06,0.97 0.154,1.375 0.082,0.653 0.126,1.364 -0.38,1.804 -0.611,-0.226 -0.744,-1.59 -1.882,-1.319 -0.673,0.062 -1.256,-0.152 -2.082,0.18 -0.175,1.263 -0.403,2.802 0.012,4.266 0.969,0.998 3.682,1.032 4.812,-0.185 0.524,-0.486 0.67,-1.691 1.367,-1.803 l 0.389,0.827 c -0.463,1.144 -0.833,2.947 -2.247,3.065 m 8.633,-0.084 c -0.787,0.078 -1.576,0 -2.339,-0.214 -0.177,-0.396 0.22,-0.563 0.665,-0.728 1.096,-1.944 0.558,-6.744 0.535,-10.063 -0.622,-0.23 -2.169,0.175 -2.693,0.67 -0.507,0.462 -0.439,1.128 -1.27,1.517 -0.911,-0.345 -0.166,-1.392 -0.341,-1.787 0.231,-0.608 0.048,-0.991 0.164,-1.278 0.219,-0.569 7.609,-0.197 10.351,-0.151 1.039,0.011 0.589,1.171 0.761,1.56 0.06,0.716 0.423,1.494 -0.397,1.888 -0.913,-0.337 -0.682,-0.946 -1.155,-1.442 -0.358,-0.777 -1.673,-0.935 -2.417,-0.88 -0.578,-0.213 -0.507,0.441 -0.507,0.441 -0.288,2.579 -0.369,6.186 0.022,8.677 0.07,0.664 0.992,1.003 1.063,1.667 -0.532,0.505 -1.451,0.162 -2.442,0.123 m -23.474,-19.091 c -0.938,-0.101 -1.961,1.082 -2.066,1.962 -1.084,1.667 -1.729,2.872 -2.82,4.529 -1.126,2.074 -1.916,4.621 -4.294,5.273 -1.344,0.282 -1.834,0.648 -2.724,0.125 -3.113,-0.354 -7.787,-3.061 -7.978,-5.714 -0.192,-2.215 1.448,-4.237 2.58,-6.311 1.192,-2.069 3.189,-4.045 2.634,-6.796 -0.392,-0.474 -0.817,-0.523 -0.338,-0.901 0.045,-0.423 0.921,-0.327 1.31,0.142 0.888,0.534 2.654,1.148 3.459,1.739 0.395,0.464 1.767,0.609 1.223,1.421 -0.981,0.316 -2.336,0.648 -2.941,1.442 -2.119,2.813 -3.415,5.793 -4.646,8.711 -0.589,1.285 0.566,2.694 1.387,3.702 0.836,0.514 2.589,1.139 3.904,1.279 3.231,-0.067 5.229,-5.596 6.452,-8.081 0.589,-1.21 1.24,-2.917 0.566,-4.761 -0.381,-0.467 0.05,-0.417 0.05,-0.417 1.761,0.614 3.023,1.183 4.778,1.809 -0.059,0.49 -0.104,0.913 -0.538,0.868 m -17.635,-8.573 c -2.46,1.504 -4.178,4.373 -5.368,6.867 -1.147,1.64 -2.273,3.725 -2.913,5.421 -0.55,0.366 -0.601,0.789 -1.096,1.155 -0.428,-0.045 -1.305,-0.141 -1.755,-0.619 0,0 -0.381,-0.468 -0.335,-0.879 -0.326,-0.958 -0.358,-4.452 -0.437,-7.579 -0.307,-2.045 -0.527,-4.113 -0.654,-6.188 -0.385,-0.523 -0.23,-1.785 -0.715,-1.419 -1.631,2.022 -2.226,3.295 -3.474,5.799 -0.633,1.7 -1.775,3.768 -1.481,5.082 0.391,0.473 0.769,1.003 0.29,1.38 -0.499,0.378 -1.33,-0.141 -1.772,-0.625 -0.901,-0.632 -1.927,-1.064 -3.012,-1.251 0.104,-0.846 0.536,-0.8 1.031,-1.161 1.854,-0.294 2.654,-3.252 3.739,-4.479 1.194,-2.485 1.721,-3.296 2.915,-5.358 0.485,-0.377 1.031,-1.229 0.646,-1.702 -1.327,-0.58 -2.291,0.175 -3.221,0.507 -0.501,-0.055 -0.94,-0.106 -0.456,-0.484 0.048,-0.416 0.608,-0.789 1.53,-1.114 0.923,-0.384 2.4,-1.071 3.727,-0.503 1.254,0.569 2.575,1.201 2.482,2.047 1.384,3.695 1.367,7.6 1.35,11.572 0.313,0.959 -0.16,1.318 0.166,2.221 1.64,-2.017 2.327,-4.147 3.463,-6.221 0.208,-1.747 1.397,-3.815 0.168,-5.23 0.057,-0.427 0.491,-0.37 0.491,-0.37 2.197,0.664 3.904,1.712 5.606,2.817 -0.05,0.409 -0.478,0.363 -0.915,0.314 m -24.869,6.05 c -1.327,-0.563 -3.462,-1.712 -5.159,-2.333 -0.507,-0.062 -0.888,-0.523 -0.408,-0.9 0.563,-0.43 0.938,0.118 0.938,0.118 1.964,-1.139 1.679,-2.947 1.888,-4.695 -1.657,-1.014 -3.358,-1.938 -5.105,-2.765 -1.595,1.594 -2.718,3.672 -2.482,5.482 -0.549,0.788 -1.316,-0.152 -1.812,-0.203 -0.831,-0.519 -1.651,-1.048 -2.526,-1.628 -0.44,-0.046 -0.865,-0.098 -1.266,-0.57 0.543,-0.801 1.31,0.147 2.35,-0.597 3.975,-3.11 7.063,-6.255 10.218,-9.444 0.485,-0.371 -1.327,-0.574 -2.192,-0.665 -0.94,-0.113 -1.468,0.688 -1.865,0.214 l 0.059,-0.416 c 1.961,-1.128 4.35,-2.142 6.497,-1.055 2.153,1.089 2.279,3.793 2.018,5.969 l -1.229,10.373 c -0.104,0.896 0.231,1.797 0.566,2.754 0,0 -0.059,0.412 -0.49,0.361 z m -2.933,-10.029 c -0.864,-0.096 -3.057,-0.771 -3.893,-1.713 1.149,-1.646 3.11,-2.783 4.604,-4.327 0.405,0.478 -0.663,5.612 -0.711,6.04 m -6.812,-11.259 c -0.884,-0.598 -1.259,-1.063 -2.192,-0.743 -1.04,0.812 -2.223,3.302 -2.817,4.587 -1.245,2.489 -2.423,4.981 -3.606,7.055 -0.051,0.417 0.76,1.431 0.236,2.231 l -0.936,-0.113 c -1.174,-0.901 -2.467,-1.645 -3.854,-2.186 -0.38,-0.484 -0.831,-0.53 -0.335,-0.902 0.983,-0.326 2.839,-1.037 3.539,-2.727 1.136,-2.074 2.825,-4.519 3.992,-7.011 l -0.439,-0.05 c -3.877,1.764 -7.345,4.445 -10.897,7.162 -0.484,0.366 -0.865,-0.091 -0.865,-0.091 -0.186,-2.23 -0.031,-3.55 0.437,-7.477 -0.38,-0.475 0.133,-4.813 -0.33,-5.298 -1.499,1.612 -2.738,4.12 -3.448,6.222 -1.034,1.239 -2.229,3.302 -1.051,5.154 0,0 -0.057,0.476 -0.496,0.424 -1.696,-1.099 -3.463,-1.725 -5.164,-2.768 l 0.056,-0.478 c 2.285,-0.176 4.023,-3.043 5.592,-4.639 1.136,-2.072 2.775,-4.103 3.953,-6.604 0.044,-0.405 -1.26,-1.048 -1.702,-1.092 -0.825,-0.525 -1.876,0.28 -2.789,0.603 -0.392,-0.473 -0.333,-0.952 0.104,-0.902 1.178,-1.318 3.032,-1.792 4.691,-1.194 1.755,0.626 3.417,2.09 3.705,3.466 0.023,3.55 -0.386,6.987 -0.358,10.537 l -0.056,0.423 c 3.98,-2.61 7.517,-5.782 10.847,-6.751 2.295,-0.175 3.126,0.344 3.502,0.873 0.89,0.523 1.271,0.991 1.228,1.409 -0.057,0.43 -0.491,0.385 -0.547,0.88 m 168.318,3.286 c -2.44,1.194 -6.562,2.946 -8.941,4.541 -0.418,0.057 -0.953,-0.275 -0.953,-0.275 0.298,-1.33 0.546,-2.66 -0.037,-3.811 -1.717,-2.749 -2.94,-5.532 -4.648,-8.248 -0.538,-0.807 -1.899,-1.055 -3.265,-1.68 -0.06,-0.462 0.352,-0.519 0.352,-0.519 2.821,-1.589 6.565,-2.958 8.971,-4.484 0.831,-0.529 1.597,-1.087 2.498,-0.743 0.635,1.159 2.004,1.857 2.169,3.064 -1.129,1.025 -1.777,-0.181 -2.67,-0.473 -2.195,-0.13 -4.229,0.946 -5.84,1.982 -0.42,0.051 -0.358,0.513 0.115,0.851 0.579,1.155 1.234,2.367 1.829,3.584 1.651,-0.682 3.752,-1.369 3.924,-3.083 0.37,-0.45 0.37,-0.45 0.792,-0.512 1.002,0.75 0.586,1.205 1.113,1.549 0.535,0.755 1.068,1.566 0.766,2.43 -0.899,0.117 -1.96,-1.448 -3.149,-0.418 -0.787,0.514 -1.62,0.614 -2.401,1.539 0.651,1.61 1.403,3.628 2.902,5.139 1.822,0.58 5.113,-1.07 5.654,-3.251 0.313,-0.907 -0.326,-2.463 0.441,-3.038 0.473,-0.057 1.002,0.755 1.002,0.755 0.23,1.659 0.991,4.069 -0.624,5.101 m -17.327,8.22 c -0.825,0.519 -2.025,1.083 -2.924,1.196 -0.467,-0.351 -0.115,-0.807 0.305,-1.269 0.029,-3.004 -3.809,-8.356 -6.035,-12.279 -0.9,0.114 -2.47,1.545 -2.757,2.458 -0.308,0.855 0.219,1.617 -0.496,2.581 -1.311,0.168 -1.127,-1.562 -1.593,-1.898 -0.115,-0.862 -0.599,-1.212 -0.659,-1.619 -0.104,-0.805 8.897,-4.935 12.187,-6.604 1.247,-0.637 1.477,1.049 1.952,1.387 0.535,0.813 1.476,1.511 0.766,2.49 -1.311,0.169 -1.432,-0.698 -2.325,-1.003 -0.935,-0.698 -2.597,-0.067 -3.446,0.45 -0.832,0.107 -0.307,0.846 -0.307,0.846 1.347,3.234 3.653,7.562 5.77,10.267 0.533,0.755 1.842,0.58 2.367,1.342 -0.3,0.919 -1.604,1.092 -2.805,1.655 m -11.148,4.948 c -4.685,-2.383 -9.001,-5.173 -13.698,-7.552 1.823,3.568 2.752,7.259 6.193,9.737 0.115,0.868 1.304,0.305 1.003,1.173 -0.358,0.45 -1.668,0.603 -2.038,1.07 -1.315,0.174 -1.96,1.556 -2.56,0.326 0.794,-3.437 -1.802,-6.501 -3.088,-9.669 -0.579,-1.217 -1.178,-2.422 -1.768,-3.172 -1.67,0.221 -2.265,2.395 -2.506,3.725 -0.364,0.45 -1.387,-0.293 -1.801,-0.236 -0.527,-0.767 -1.468,-1.455 -2.719,-0.88 -1.265,0.575 -2.451,1.128 -3.716,1.707 0.654,1.617 1.356,3.229 2.424,4.784 0.06,0.395 0.423,-0.057 0.423,-0.057 1.667,-0.613 2.913,-1.262 3.177,-2.523 l 0.407,-0.057 c 0.938,0.704 1.533,1.51 2.116,2.66 -0.893,0.111 -1.361,-0.232 -1.777,-0.182 -1.257,0.575 -2.522,0.733 -3.69,1.771 0.627,1.554 1.8,3.516 2.868,5.076 0.546,0.807 1.785,0.175 3.089,0.011 2.45,-1.132 3.365,-3.763 3.023,-6.242 0.479,-0.063 0.838,-0.581 0.902,-0.118 0.992,1.104 1.16,2.365 1.742,3.516 0.115,0.867 0.66,1.212 -0.238,1.33 -3.222,1.701 -5.731,2.84 -8.959,4.541 -0.884,0.118 -1.228,0.568 -2.019,1.076 -0.473,-0.344 -0.426,0.063 -0.473,-0.344 -0.475,0.057 -0.057,-0.4 -0.117,-0.868 0.439,-2.975 -1.155,-4.878 -2.971,-8.868 -0.53,-0.75 -2.365,-4.327 -3.658,-4.159 -0.419,0.057 -0.369,0.452 -0.313,0.862 l 0.117,0.863 c -0.479,-0.412 -1.317,-0.316 -2.134,0.271 l 0.05,0.405 c 0.232,1.667 0.865,3.222 1.993,4.777 1.591,2.311 2.527,5.591 5.369,7.331 0.468,0.354 0.06,0.4 -0.31,0.861 -1.259,0.621 -2.971,0.846 -4.115,1.814 -0.998,-0.698 -0.231,-1.667 -0.333,-2.479 -0.236,-1.673 -0.89,-2.874 -1.938,-4.372 -0.614,-1.826 -1.442,-3.567 -2.471,-5.196 -0.308,0.869 -0.606,1.781 -0.441,2.987 -0.011,3.003 -0.089,5.927 0.37,9.269 0,0 -0.419,0.051 -0.37,0.451 -0.419,0.062 -0.875,-0.287 -0.931,-0.693 -2.858,-1.747 -6.949,-5.905 -10.19,-7.596 0,0 0.172,1.273 0.577,1.206 1.714,3.189 2.584,5.995 4.649,8.655 0.588,0.817 1.479,1.104 2.366,1.397 -0.408,0.057 0.057,0.404 -0.352,0.461 -0.778,0.575 -1.194,0.621 -2.025,1.133 -0.842,0.118 -1.984,1.482 -2.5,0.732 1.017,-2.236 -0.684,-4.941 -1.338,-6.563 -1.239,-2.351 -2.353,-4.327 -3.53,-6.751 l -0.466,0.062 c -0.778,0.57 -0.612,1.776 -0.854,3.106 -0.369,0.45 -0.369,0.45 -0.854,0.519 -0.105,-0.813 -0.285,-2.074 0.092,-2.942 -0.18,-1.342 0.525,-2.638 1.747,-3.218 1.189,-0.568 3.271,-1.239 4.338,-0.141 2.903,2.198 4.964,4.445 7.825,6.198 l 0.347,-0.462 c -0.331,-2.783 -0.426,-5.596 -0.293,-8.384 -0.259,-1.443 0.408,-2.896 1.685,-3.629 0.413,-0.463 1.673,-0.614 2.62,-0.334 0.363,-0.45 1.076,-1.431 1.494,-1.48 3.287,-1.64 6.082,-3.297 9.426,-4.548 l 0.411,-0.057 c 0.519,0.755 0.645,1.617 1.547,1.499 0.298,-0.912 0.188,-1.718 0.899,-2.688 1.149,-1.381 3.639,-2.113 5.538,-1.121 3.156,0.884 9.008,5.173 11.281,5.759 -1.239,-2.424 -2.365,-4.379 -3.49,-6.351 -0.998,-0.687 -2.059,-2.254 -3.43,-2.49 -0.413,0.056 -0.458,-0.35 -0.458,-0.35 1.659,-0.619 3.26,-1.708 4.885,-2.322 0.948,0.282 -0.242,1.324 -0.131,2.119 0.878,3.286 2.569,5.996 3.797,8.769 1.072,1.148 1.73,2.761 2.307,3.92 0.466,0.433 -1.565,1.515 -2.034,1.165"
   id="path14"
   inkscape:connector-curvature="0"
   style="fill:#231f20" />
	<path
   d="m 181.545,371.963 h 47.486 v -9.007 l 6.344,-3.55 -6.344,-3.541 v -7.554 l 6.344,-3.549 -6.344,-3.542 v -9.317 c 0,0 -2.273,-0.076 -3.809,0.068 -1.518,0.143 -3.099,0.561 -3.099,0.561 -1.189,0.271 -2.395,0.448 -3.611,0.518 -9.596,0.544 -14.128,-5.699 -22.462,-5.852 -3.415,-0.068 -8.365,0.879 -14.504,5.781 -6.147,-4.902 -11.103,-5.849 -14.513,-5.781 -8.336,0.152 -12.867,6.396 -22.462,5.846 -1.211,-0.071 -2.417,-0.242 -3.606,-0.513 0,0 -1.581,-0.417 -3.116,-0.561 -1.519,-0.145 -3.789,-0.068 -3.789,-0.068 v 9.317 l -6.354,3.542 6.344,3.549 v 7.56 l -6.344,3.535 6.344,3.55 v 9.007 h 47.495"
   id="path16"
   inkscape:connector-curvature="0"
   style="fill:#ffffff" />
	<path
   d="m 153.163,354.496 c 0,1.86 -1.76,2.916 -3.533,2.916 -1.31,-0.011 -2.556,-0.566 -3.437,-1.535 l 0.017,-0.296 0.864,-0.91 0.33,-0.017 c 0.69,0.589 1.384,0.958 2.271,0.958 0.857,0 1.536,-0.451 1.536,-1.155 0,-1.742 -4.829,-1.212 -4.829,-4.432 0,-1.719 1.501,-2.758 3.172,-2.758 1.27,0 2.299,0.521 3.116,1.31 v 0.29 l -0.806,0.943 -0.301,0.049 c -0.716,-0.539 -1.223,-0.792 -1.95,-0.792 -0.814,0 -1.293,0.423 -1.293,0.998 0,1.731 4.848,1.016 4.843,4.431 m 11.349,1.194 v 0.301 c -0.958,0.918 -2.234,1.431 -3.556,1.42 -2.902,0 -5.237,-2.24 -5.237,-5.065 0,-2.846 2.335,-5.08 5.237,-5.08 1.42,0 2.654,0.549 3.556,1.426 v 0.29 l -0.958,1.003 -0.307,0.011 c -0.634,-0.555 -1.454,-0.854 -2.301,-0.842 -1.725,-0.023 -3.145,1.355 -3.173,3.082 0,0.034 0,0.073 0,0.11 0,1.817 1.395,3.178 3.173,3.178 0.842,0.011 1.667,-0.288 2.301,-0.843 l 0.307,0.012 0.958,0.997 m 3.281,-8.308 h 1.559 l 0.214,0.209 v 9.421 l -0.214,0.214 h -1.559 l -0.219,-0.214 v -9.421 l 0.219,-0.209 m 11.206,8.356 v 1.273 l -0.217,0.214 h -5.367 l -0.22,-0.214 v -9.421 l 0.22,-0.209 h 5.353 l 0.22,0.209 v 1.281 l -0.22,0.206 h -3.575 v 2.229 h 3.358 l 0.216,0.209 v 1.279 l -0.216,0.214 h -3.364 v 2.516 h 3.595 l 0.217,0.214 m 11.631,-8.147 v 9.421 l -0.208,0.214 h -1.786 l -0.274,-0.144 -3.91,-6.677 v 6.607 l -0.214,0.214 h -1.564 l -0.214,-0.214 v -9.421 l 0.214,-0.209 h 1.79 l 0.265,0.146 3.914,6.675 v -6.618 l 0.217,-0.209 h 1.558 l 0.212,0.215 m 9.684,0 v 1.281 l -0.22,0.206 h -2.197 v 7.934 l -0.215,0.214 h -1.557 l -0.22,-0.214 v -7.928 h -2.208 l -0.221,-0.206 v -1.282 l 0.221,-0.209 h 6.402 l 0.215,0.204 m 3.045,-0.209 h 1.559 l 0.22,0.209 v 9.421 l -0.22,0.214 h -1.559 l -0.219,-0.214 v -9.421 l 0.219,-0.209 m 13.391,9.839 h -1.62 l -0.248,-0.162 -0.595,-1.701 h -3.778 l -0.6,1.701 -0.248,0.167 h -1.619 l -0.172,-0.242 3.542,-9.433 0.243,-0.175 h 1.453 l 0.277,0.175 3.538,9.433 z m -3.018,-3.497 -1.338,-3.837 -1.338,3.837 h 2.676"
   id="path18"
   inkscape:connector-curvature="0"
   style="fill:#231f20" />
	<path
   d="m 168.603,451.149 c 0.45,0 3.667,1.67 3.667,1.67 2.53,-1.896 4.59,-2.357 7.068,-2.357 2.939,0 3.765,-1.415 3.843,-3.175 -4.269,0.854 -6.463,-0.911 -11.584,2.885 1.856,-1.875 3.276,-2.913 6.79,-3.305 2.539,-0.491 4.386,0.287 5.437,-1.246 l -0.659,0.045 c -1.708,0 -3.173,-0.859 -5.257,-0.859 -3.034,0.002 -7.193,1.286 -9.305,6.342 m -9.647,-3.625 c 0.248,0.572 0.496,1.127 0.744,1.657 0.451,0.172 0.964,0.451 1.414,0.875 0.404,-1.354 1.037,-2.803 1.902,-4.168 l 0.423,-1.322 c -1.652,-2.036 -4.731,-4.563 -8.016,-4.563 0.78,1.315 1.479,2.814 2.141,4.332 0.693,1.096 1.132,2.191 1.392,3.189 m 4.35,3.522 0.865,-0.094 0.634,0.045 0.11,0.018 1.079,0.23 c 1.53,-3.634 6.418,-8.271 8.886,-9.144 0,0 -1.037,-0.305 -2.142,-0.305 -3.831,0 -6.42,2.273 -8.054,4.794 l -0.403,1.327 c -0.346,1.113 -0.692,2.255 -0.974,3.114 v 0.015 m -15.009,13.61 c 0.307,0.519 0.605,0.998 0.907,1.442 0.91,1.398 1.78,2.55 2.648,3.75 l 0.898,0.434 h 0.034 l 0.133,-0.02 0.121,-0.018 h 0.009 c 0.363,-0.115 0.667,-0.363 0.848,-0.705 0.69,-0.839 0.084,-1.037 -0.539,-1.458 l -0.138,-0.103 -0.187,-0.152 -0.321,-0.392 -0.259,-0.253 -0.099,-0.138 -0.082,-0.128 -0.566,-0.768 -0.75,-0.259 c -0.518,0.028 -0.749,-0.38 -0.777,-0.905 -0.037,-0.52 0.155,-0.625 0.64,-1.188 l 0.462,-0.216 0.299,-0.053 0.273,0.026 0.138,0.022 0.364,0.178 c 0.558,0.509 0.848,1.217 0.882,1.743 0.044,0.6 0.594,1.095 1.155,1.582 l 0.392,0.043 0.121,0.018 0.687,0.164 0.479,0.115 0.149,0.017 0.313,0.041 h 0.056 l 0.017,-0.618 0.017,-0.115 0.203,-0.837 0.028,-0.358 c -0.529,0.038 -1.009,0.655 -1.563,0.094 -0.732,-0.537 -1.344,-1.218 -1.794,-2.009 l 0.132,-0.311 0.268,-0.196 1.174,-0.693 c 0.485,-0.558 2.021,-1.17 2.539,-2.325 -0.034,-0.519 0.433,-1.598 0.399,-2.119 -0.042,-0.611 -0.578,-0.574 -0.578,-0.574 l -0.809,-0.175 c -0.408,1.673 -1.211,2.477 -2.29,3.059 l -0.259,-0.047 -0.15,-0.029 -0.23,-0.104 -0.11,-0.045 -0.197,-0.126 -0.051,-0.036 -0.092,-0.075 -0.155,-0.577 v -0.191 l -0.012,-0.403 0.034,-0.226 0.059,-0.364 0.08,-0.264 0.109,-0.308 0.144,-0.321 0.109,-0.23 0.215,-0.37 0.081,-0.144 0.288,-0.423 0.028,-0.045 0.33,-0.417 0.059,-0.079 c -0.637,-0.561 -1.226,-1.567 -1.761,-1.536 -0.479,0.548 -0.963,1.092 -1.563,1.131 -1.524,0.687 -0.901,2.228 -0.865,2.746 -0.254,1.482 -0.952,3.063 -1.502,4.616 v 0.015 l -0.253,0.766 c -0.155,0.476 -0.283,0.96 -0.369,1.444"
   id="path20"
   inkscape:connector-curvature="0"
   style="fill:#ffe600" />
	<path
   d="m 160.387,458.374 -1.31,0.073 c -0.324,2.016 -0.497,3.689 -3.116,4.841 -0.671,0.256 -0.248,0.867 0.073,1.05 0.55,-0.027 1.018,-0.259 1.513,-0.324 h 0.011 l 0.144,-0.011 0.087,-0.01 0.772,0.219 0.006,-0.005 0.423,0.287 1.002,0.873 0.589,-0.034 c 1.011,-0.653 0.617,-0.554 0.017,-1.572 -1.789,-2.077 0.347,-4.903 -0.211,-5.387 m -16.45,41.995 0.044,-0.011 -0.044,0.011 h -0.175 0.175 m 15.064,-49.647 c 0,0 -2.401,-0.381 -4.328,-0.556 l -0.006,-0.004 -0.82,-0.063 h -0.056 l -0.676,-0.031 -0.299,0.015 -0.578,-0.854 -0.203,-0.209 -0.364,-0.352 -0.242,-0.126 -0.347,-0.175 -0.253,-0.039 -0.318,-0.045 h -0.073 c -0.451,0.011 -1.471,0.287 -1.64,0.599 -1.153,1.575 -0.693,4.06 0.555,4.898 l 0.288,0.142 0.907,-0.011 c 1.014,-0.188 1.862,-0.886 2.237,-1.85 l 0.011,-0.041 0.064,-0.185 0.012,-0.029 0.045,-0.16 0.301,0.332 c 0.777,0.82 2.693,2.558 4.344,3.742 h 0.005 c 0.792,0.575 1.524,1.019 2.021,1.141 0.484,-1.155 0.803,-2.25 0.881,-3.203 v -0.012 c 0.124,-1.388 -0.268,-2.467 -1.468,-2.924 m 0,19.423 -0.145,-0.262 -0.053,-0.094 -0.338,-0.062 -0.099,-0.016 -0.543,1.811 -1.268,4.251 -1.096,-0.271 1.442,-6.063 -0.924,-0.175 -0.006,-0.005 c -2.263,2.163 -2.752,5.459 -2.378,7.651 0.167,0.94 0.491,1.662 0.902,2.021 l 0.09,0.062 0.417,0.171 0.259,0.031 0.104,-0.011 0.149,-0.016 0.276,-0.071 0.164,-0.057 0.316,-0.157 0.138,-0.068 0.462,-0.318 0.076,-0.064 0.38,-0.344 0.174,-0.186 0.271,-0.3 0.183,-0.23 0.248,-0.319 0.175,-0.259 0.076,-0.104 v -0.005 c 1.142,-1.828 1.748,-4.351 0.548,-6.541"
   id="path22"
   inkscape:connector-curvature="0"
   style="fill:#ffe600" />
	<path
   d="m 160.928,468.66 1.079,0.087 h 0.006 l 0.611,-0.045 0.082,-0.005 0.484,-0.147 0.082,-0.034 0.316,-0.259 0.028,-0.058 0.104,-0.415 c 0.253,-0.682 0.544,-0.797 1.057,-0.825 l 0.445,-0.133 0.166,0.005 0.104,0.018 0.187,0.092 0.067,0.045 0.22,0.214 0.082,0.133 c 0.243,0.375 0.398,0.907 0.431,1.426 -0.462,1.079 -1.927,0.842 -2.527,0.876 -1.003,0.595 -2.059,0.648 -3.172,0.714 0.634,1.619 0.028,2.897 0.577,3.381 l 0.156,-0.115 c 2.256,-1.647 4.96,-3.039 6.674,-4.327 l 0.191,-0.133 0.606,-0.53 0.155,-0.133 0.521,-0.648 c 0.347,-2.19 0.915,-4.344 1.713,-6.42 -1.01,-0.703 -1.641,-2.578 -1.674,-3.099 -1.288,0.076 -2.158,0.403 -2.713,0.739 l -0.414,0.273 c 0.149,1.521 0.97,3.172 -0.634,3.801 h -0.186 l -0.122,-0.011 -0.155,-0.022 -0.175,-0.041 -0.138,-0.058 -0.217,-0.115 -0.115,-0.083 -0.237,-0.21 -0.087,-0.105 -0.259,-0.363 -0.031,-0.07 c -0.397,-0.8 -0.639,-1.673 -0.708,-2.561 l -0.025,-0.156 c 0,0 -0.865,-0.115 -1.383,-0.087 -0.907,2.234 -0.335,4.604 0.809,6.106 l 0.039,0.595 -0.501,0.6 -0.33,0.369 -0.056,0.057 -0.307,0.203 -0.011,0.011 -0.403,0.065 h -0.098 l -0.485,-0.042 c -1.039,-0.167 -1.459,-1.868 -1.963,-1.315 l 0.048,0.779 0.093,1.379 c 0.229,0.203 1.048,0.462 1.95,0.6 h 0.043 m -27.633,29.644 c 0.496,0.084 1,0.123 1.502,0.123 5.838,0 10.583,-5.387 11.343,-7.93 0.518,-1.734 1.068,-3.43 1.628,-5.055 0.496,-2.569 1.152,-5.429 2.386,-7.289 l 0.648,-0.577 c 0.315,-0.728 0.617,-1.367 0.898,-1.951 -0.005,-0.813 0.071,-1.625 0.231,-2.422 -0.22,-0.468 -0.327,-0.98 -0.321,-1.502 l -0.087,-0.027 c -0.386,0.768 -1.102,1.32 -1.944,1.5 l -0.163,0.034 c -0.398,0.065 -0.783,0.183 -1.147,0.365 -1.668,1.534 -3.601,3.969 -5.345,7.392 -1.823,3.564 -4.521,8.475 -10.246,12.295 0.501,0.078 0.98,0.115 1.442,0.115 7.004,0 10.252,-7.917 11.737,-11.655 -0.824,7.819 -4.69,12.087 -12.562,16.584 m 43.097,-16.099 c 0.536,0 -2.36,-1.441 -2.718,-6.077 -0.324,-4.129 -1.037,-6.438 -2.204,-8.165 l -0.022,0.152 -0.197,0.53 c -0.843,1.421 -2.787,2.599 -5.038,3.969 -1.268,0.767 -2.566,1.559 -3.722,2.413 -0.33,0.241 -0.721,0.374 -1.13,0.374 l -0.313,-0.055 c -0.144,0.436 -0.324,0.859 -0.53,1.267 0.541,2.868 0.09,5.806 -0.357,8.68 l -0.186,1.228 c 0.011,0.404 0.017,0.805 0.064,1.212 1.054,2.527 1.592,3.508 4.311,5.539 -1.6,-5.039 0.611,-7.791 1.147,-12.272 0.132,-1.212 -0.161,-3.034 -0.732,-4.906 2.267,2.285 0.519,8.424 3.98,11.159 3.094,-5.076 0.75,-11.682 0.693,-16 1.858,9.209 5.286,10.461 6.954,10.952 m -17.986,0.104 c 0.115,-1.05 0.22,-2.075 0.242,-3.077 -0.953,0.937 -2.135,1.635 -3.387,1.635 l -0.549,-0.049 c -0.639,-0.084 -1.631,-0.461 -2.324,-1.827 l -0.161,0.042 h -0.099 c -0.809,1.913 -1.702,4.229 -2.598,6.817 -0.265,1.322 -0.473,2.539 -0.684,3.423 -0.941,4.322 -5.08,9.424 -5.08,9.424 3.153,-0.271 4.928,-2.023 4.928,-2.023 l 0.164,-0.23 c 0.442,2.727 1.315,5.342 3,6.896 -1.31,-8.402 -0.589,-16.411 1.079,-19.389 0,0.187 -0.659,10.56 0.667,13.907 l 0.017,0.034 c 0.643,1.915 1.849,3.194 3.694,3.432 -1.149,-1.967 -2.214,-4.486 -1.679,-6.511 l 0.034,-0.157 c 0.208,0 1.231,2.814 3.849,2.814 l 1.039,-0.141 c -3.192,-2.984 -2.995,-6.798 -2.412,-10.79 -0.033,-1.443 0.116,-2.852 0.26,-4.23"
   id="path24"
   inkscape:connector-curvature="0"
   style="fill:#ffe600" />
	<path
   d="m 164.512,452.648 c -0.902,-0.138 -1.524,0.271 -1.98,0.959 h -0.017 l -0.116,0.191 -0.149,0.275 c -0.451,0.937 -0.705,2.192 -0.899,3.464 0.701,0.352 1.631,0.356 2.6,0.215 l 0.032,0.012 0.217,-0.045 c 0.417,-0.062 0.826,-0.143 1.236,-0.247 l 0.206,-0.052 c 0.583,-0.146 1.155,-0.306 1.696,-0.45 l 1,-0.254 0.298,-0.059 0.75,-0.104 0.578,0.024 c 1.155,0.547 0.89,1.666 1.281,2.446 0.75,1.332 1.834,0.76 2.643,0.022 l 0.04,-0.041 0.265,-0.252 0.059,-0.06 0.259,-0.287 0.226,-0.254 0.057,-0.076 0.115,-0.131 c 0.446,-1.067 0.474,-1.768 -0.143,-2.165 -0.547,-0.38 -1.158,-0.67 -1.8,-0.858 l -0.034,-0.006 -0.578,-0.087 h -0.04 l -0.254,0.029 -0.219,0.016 -0.29,0.094 -0.172,0.047 -0.981,0.496 -0.236,-0.439 -0.116,-0.144 -0.242,-0.264 -0.174,-0.164 -0.271,-0.212 -0.231,-0.157 -0.265,-0.16 -0.288,-0.161 -0.192,-0.094 c -0.461,-0.225 -0.946,-0.397 -1.442,-0.538 h -0.005 l -0.778,-0.165 0.017,-0.018 -1.663,-0.346 m 32.928,24.748 c 2.032,0 4.057,-0.225 6.035,-0.682 12.359,-3.624 21.608,-7.703 31.745,-7.703 1.04,0 2.097,0.045 3.167,0.139 5.471,0.554 11.984,5.042 9.249,11.625 -1.989,5.87 -11.054,7.582 -19.409,7.582 -2.561,0 -5.039,-0.165 -7.242,-0.419 0.431,0.739 1.113,1.884 1.356,2.181 l 0.565,0.645 c 2.297,0.289 4.846,0.457 7.362,0.457 4.241,0 8.354,-0.439 10.864,-1.366 3.792,-1.536 10.328,-4.447 10.328,-13.566 0,-4.795 -1.735,-13.581 -11.579,-16.389 1.327,2.031 1.944,3.033 1.766,5.743 l -0.059,0.021 c -0.601,0 -3.579,-5.181 -9.9,-5.181 -1.097,0 -2.307,0.156 -3.629,0.528 2.434,0.98 3.981,2.174 4.109,4.632 -0.533,-0.976 -6.74,-3.106 -9.476,-3.106 1.167,4.52 -4.015,6.176 -8.108,7.856 -4.637,1.9 -10.417,4.29 -15.94,4.29 -7.829,0 -9.579,-3.035 -9.579,-5.826 0,-5.858 5.549,-9.861 9.365,-9.861 7.201,0 9.077,6.934 17.563,6.934 0.405,0 0.808,-0.011 1.254,-0.045 -2.061,-0.676 -5.45,-2.604 -5.45,-5.257 0,-4.465 8.732,-1.301 11.577,-9.111 -1.408,0.251 -2.833,0.389 -4.259,0.418 -3.491,0 -3.537,-1.283 -6.767,-1.283 -3.399,0 -5.516,2.806 -7.201,4.917 1.125,-4.118 -0.387,-9.19 -6.701,-9.19 -1.217,0 -2.947,0.491 -4.222,1.631 0.461,0.198 4.823,0.705 4.315,4.552 0,3 -13.098,6.579 -13.098,16.59 0.003,6.289 6.153,8.249 11.999,8.244 m -50.326,-5.135 c 1,-0.899 1.992,-1.558 2.913,-1.921 l -0.253,-0.347 c -1.09,-1.455 -2.116,-2.964 -3.062,-4.523 l -0.209,-1.068 c 0.116,-0.692 0.318,-1.385 0.555,-2.079 -1.938,0.081 -3.803,0.774 -5.316,1.986 -2.445,2.348 -3.702,5.649 -5.826,7.488 0.513,0.181 1.051,0.269 1.592,0.273 2.251,0 4.189,-1.689 6.26,-4.271 -0.921,2.279 -2.539,1.706 -2.539,8.003 0,3.854 -3.546,7.632 -6.288,9.917 6.893,-1.589 7.201,-10.74 12.173,-13.458 m 63.48,47.289 c 0,-2.497 1.045,-5.5 1.586,-7.528 -2.121,-2.063 -4.268,-4.56 -6.79,-7.488 -0.512,-0.514 -1.858,-1.605 -2.462,-1.844 -0.394,0.091 -1.293,0.445 -3.336,1.443 l -0.248,0.123 c -3.896,1.81 -9.474,3.843 -14.038,5.123 -1.372,3.825 -0.198,6.221 5.595,7.167 0.625,0.079 1.237,0.106 1.843,0.106 1.464,0 2.867,-0.168 4.223,-0.168 1.53,0 3,0.214 4.442,1.126 5.452,3.494 1.063,8.531 -6.579,9.507 -1.222,0.175 -2.625,0.343 -4.008,0.343 -2.908,0 -5.714,-0.761 -6.43,-3.854 -0.194,-0.503 -0.558,-0.654 -1.067,-0.98 -1.406,-0.914 -3.328,-1.037 -4.396,-1.521 -2.186,-0.507 -1.673,-3.021 -3.792,-3.021 -0.728,0.068 -1.418,0.384 -1.927,0.914 -0.375,-0.435 -0.932,-0.671 -1.511,-0.644 -1.183,0 -2.591,0.756 -3.335,1.77 1.144,0 2.208,0.486 3.346,0.981 l 0.248,0.066 0.172,-0.027 0.29,0.935 c 0.194,0.389 0.623,0.496 1.13,0.496 0.549,0 1.183,-0.118 1.749,-0.118 l 0.305,0.011 c 0.561,0.023 0.749,0.604 0.82,0.835 0.402,1.341 0.44,2.84 -1.888,2.84 -0.448,0 -0.882,-0.339 -1.31,-1.048 -0.097,-0.135 -0.344,-0.541 -0.817,-0.541 h -0.006 c -1.033,0.057 -1.662,0.834 -2.02,1.791 l -0.803,-0.089 c -1.598,0 -3.502,0.878 -3.942,2.141 0.55,-0.241 1.138,-0.371 1.733,-0.371 0.513,0 1.073,0.096 1.725,0.271 l 0.792,0.286 0.16,0.068 0.082,0.715 0.437,0.677 0.434,0.18 c 0.519,0 1.008,-0.676 1.794,-0.957 l 0.998,-0.18 0.589,0.062 c 1.805,0.354 1.689,3.093 0.755,3.572 l -0.64,0.106 c -0.991,0 -1.518,-0.755 -2.234,-0.755 l -0.454,0.107 c -0.82,0.591 -0.995,1.476 -0.786,2.371 -1.69,0.203 -4.063,2.165 -4.063,3.055 1.589,-0.485 2.119,-1.049 4.849,-1.049 h 0.338 c 0.538,0.587 1.177,1.049 1.848,1.212 l 1.009,0.141 c 0.764,0 1.397,-0.259 1.738,-0.693 1.643,-2.528 2.561,-3.347 4.66,-3.61 l 0.521,0.016 c 0.347,1.239 -0.368,2.069 -1.732,3.37 l 0.383,0.05 c 1.614,0 4.995,-2.163 4.406,-3.188 2.736,0.305 6.105,1.049 6.105,2.964 0,1.38 -1.927,3.369 -1.806,3.369 4.652,0 9.261,-6.474 11.996,-8.52 l 0.358,-0.135 0.126,0.135 c -0.259,0.35 -1.915,5.195 0.041,7.083 1.022,-2.254 6.404,-8.536 9.711,-9.59 -1.591,3.562 -2.566,7.557 3.404,8.604 -4.327,-4.548 0,-8.604 2.193,-9.596 0.509,-0.288 0.795,-0.75 0.795,-1.218 0,-3.104 -7.316,-3.973 -7.316,-7.375"
   id="path26"
   inkscape:connector-curvature="0"
   style="fill:#ffe600" />
	<path
   d="m 143.221,500.29 c -0.428,-0.125 -0.797,-0.396 -1.034,-0.773 -0.353,-0.568 -0.299,-1.301 0.126,-1.819 l 0.116,-0.146 c -2.13,1.476 -4.741,2.546 -7.632,2.546 -0.6,0 -1.222,-0.045 -1.817,-0.136 -0.722,-0.101 -1.305,-0.625 -1.468,-1.335 -0.133,-0.693 0.197,-1.392 0.82,-1.742 1.132,-0.64 2.164,-1.27 3.099,-1.904 -1.009,0.12 -2.032,0.104 -3.035,-0.052 -0.705,-0.092 -1.288,-0.588 -1.479,-1.27 -0.155,-0.667 0.121,-1.366 0.704,-1.73 1.992,-1.338 3.567,-2.806 4.889,-4.327 l -0.347,-0.484 -0.778,0.232 -0.44,0.043 c -0.65,0.011 -1.256,-0.324 -1.597,-0.881 -0.394,-0.682 -0.237,-1.541 0.38,-2.031 l 0.271,-0.237 c -1.846,-2.367 -3.798,-4.674 -4.559,-5.35 -0.94,-0.935 -2.358,-0.651 -3.403,-1.604 -0.132,-0.12 -0.33,-0.276 -0.589,-0.924 -1.8,-4.735 -1.729,-15.059 -1.397,-15.924 0.521,-1.442 1.344,-2.284 2.24,-3.081 0.803,-0.705 0.093,-1.73 -0.49,-2.043 -0.543,-0.305 -1.144,-0.491 -1.761,-0.546 -0.572,-1.791 -2.104,-2.66 -3.905,-2.84 h -0.037 c -0.321,0 -0.707,0.324 -0.101,0.76 0.865,0.59 0.448,0.363 0.749,1.189 0.127,0.335 0.322,0.721 0.755,0.923 l 0.265,0.057 c -0.667,0.198 -1.152,0.561 -1.163,1.189 -0.025,0.549 2.93,0.924 1.048,2.748 -0.431,0.439 -1.008,0.721 -1.625,0.791 h -0.116 c -2.829,-0.363 -0.561,-3.042 -2.042,-3.042 -0.716,0 -1.629,0.203 -2.482,0.583 l 0.098,-0.138 c -0.403,-0.525 -2.591,-1.746 -4.276,-1.746 l -0.403,0.022 c -1.129,0.314 1.57,0.271 2.632,3.379 l -0.49,0.982 c 0,1.408 3.457,0.12 3.304,3.044 l -0.248,0.77 -0.805,0.496 c -0.595,0 -1.243,-0.554 -1.986,-0.554 l -0.403,0.058 -0.732,0.259 -0.699,0.606 0.023,-0.092 c -2.578,-0.475 -2.71,-2.061 -3.237,-2.061 l -0.099,0.018 c -0.881,0.473 0.924,4.107 2.455,4.107 l 0.104,-0.005 0.156,-0.16 c 0.027,0.496 0.202,0.98 0.656,1.332 l 0.521,0.172 0.519,-0.089 c 0.766,-0.175 1.536,-0.319 2.234,-0.319 1.065,0 1.978,0.347 2.55,1.444 0.904,2.399 -0.634,3.865 -2.944,3.865 -0.595,0 -1.229,-0.099 -1.891,-0.288 -0.555,1.789 2.612,1.951 4.378,1.96 h 0.056 l 0.797,0.232 c 0.865,0.572 1.276,1.431 1.276,2.284 0,2.88 -2.102,8.943 -6.037,8.943 l -0.558,-0.034 c 1.575,1.41 2.62,1.97 3.623,1.97 0.784,0 1.541,-0.335 2.511,-0.88 -0.947,2.425 -1.53,2.626 -3.519,4.029 0,0 0.805,0.507 2.093,0.507 0.969,0 2.192,-0.287 3.561,-1.304 -0.66,2.676 -1.832,5.102 -4.525,6.325 0,0 1.558,0.96 3.15,0.96 0.929,0 1.859,-0.327 2.51,-1.346 h 0.011 c 0.187,0 2.113,5.528 -3.26,8.496 0.612,0.88 5.962,5.691 10.957,5.691 4.091,0 7.872,-0.591 11.557,-2.901 0.905,-2.23 1.642,-4.53 2.215,-6.874"
   id="path28"
   inkscape:connector-curvature="0"
   style="fill:#ffe600" />
	<path
   d="m 252.041,527.668 0.771,0.063 c 4.007,0 7.948,-5.059 9.001,-7.73 -3.172,1.532 -5.358,2.153 -6.854,2.153 -1.521,0 -2.33,-0.644 -2.71,-1.601 l 0.316,0.057 c 8.264,-0.767 8.902,-5.939 9.244,-9.101 -3.091,2.231 -4.807,3.082 -6.877,3.082 -0.865,0 -1.784,-0.142 -2.89,-0.4 0,0 -0.376,-0.626 -0.854,-0.941 l -0.381,-0.619 -0.434,-0.62 c -0.431,-0.416 -1.014,-0.642 -1.614,-0.63 -1.905,0 -4.345,1.769 -7.334,1.769 -1.04,0 -2.151,-0.214 -3.325,-0.789 -1.299,-0.654 -2.451,-2.355 -2.919,-3.369 -0.912,-1.979 -1.004,-4.012 -2.117,-5.681 -1.068,-2.513 -3.255,-4.484 -5.452,-6.028 -2.566,-1.589 -4.812,-3.804 -6.717,-6.142 -0.512,-0.624 -1.883,-3.075 -2.307,-3.716 -1.559,-2.286 -4.86,-4.765 -7.883,-4.765 -2.192,0.496 -5.494,1.764 -7.69,2.249 -7.65,1.479 -13.248,2.422 -20.288,3.964 l -0.211,0.02 c -1.674,0 -2.911,-3.072 -4.409,-5.989 -0.347,0.622 -0.997,1.007 -1.713,1.007 l -0.549,-0.087 c -1.403,-0.379 -2.676,-1.118 -3.715,-2.132 -0.093,2.181 -0.578,4.384 -1.807,6.404 -0.271,0.447 -0.732,0.749 -1.25,0.832 l -0.318,0.022 c -0.425,0 -0.843,-0.139 -1.184,-0.403 -0.65,-0.521 -1.152,-1.11 -1.558,-1.754 -0.467,1.903 -0.679,3.645 0.082,6.033 0.226,0.716 -0.082,1.49 -0.732,1.866 l -1.009,0.282 c -0.411,0 -0.809,-0.128 -1.138,-0.376 -1.845,-1.377 -2.826,-2.376 -3.578,-3.588 0.093,1.96 0.654,3.71 2.211,5.17 0.457,0.428 0.634,1.037 0.462,1.612 -0.186,0.585 -0.665,1.037 -1.265,1.183 -0.963,0.271 -1.992,0.271 -2.96,0.011 0.23,0.496 0.503,1.026 0.825,1.561 0.324,0.559 0.284,1.246 -0.104,1.753 -0.358,0.462 -0.904,0.732 -1.487,0.721 l -0.253,-0.012 c -1.432,-0.18 -2.747,-0.866 -3.694,-1.967 0.076,0.693 0.175,1.387 0.279,2.092 0.102,0.732 -0.301,1.442 -0.983,1.73 l -0.806,0.18 c -0.473,0.005 -0.93,-0.17 -1.282,-0.484 -1.293,-1.195 -2.256,-2.886 -2.913,-5.168 -0.709,0.338 -1.569,0.637 -2.586,0.841 -1.107,4.682 -3.952,14.092 -9.249,16.329 -3.26,1.544 0.406,7.364 -9.449,11.433 -1.547,0.553 -3.496,1.262 -5.638,1.262 -1.161,0 -2.372,-0.209 -3.611,-0.766 -0.831,-0.4 -1.641,-0.851 -2.424,-1.342 -1.794,-1.381 -1.991,-3.995 -3.428,-3.995 -0.375,0 -0.826,0.32 -1.271,0.805 -1.944,0.012 -4.333,0.091 -5.635,2.413 0.575,-0.152 1.125,-0.203 1.625,-0.203 1.079,0 1.944,0.241 2.446,0.327 l -0.276,0.727 0.104,0.75 0.75,0.271 c 0.774,0 1.651,-0.637 2.366,-0.637 l 0.428,0.096 c 1.13,0.489 1.13,3.511 0,3.995 l -0.515,0.077 c -1.068,0 -1.648,-1.132 -2.758,-1.132 l -0.519,0.086 c -0.439,0.207 -0.693,0.939 -0.727,1.842 -1.361,0.045 -4.102,1.357 -4.558,3.447 1.603,-0.866 2.51,-1.205 3.439,-1.205 0.426,0 0.865,0.073 1.389,0.202 h 0.053 l 0.116,-0.011 c 0.206,0.475 0.473,0.925 0.822,1.257 l 0.4,0.152 0.42,-0.079 c 0.853,-0.123 0.896,-0.846 1.369,-1.071 0.347,-0.096 0.701,-0.141 1.06,-0.146 1.315,0 1.673,0.923 1.673,2.124 0,0.461 0,1.223 -0.97,1.464 l -0.375,0.041 -0.27,-0.029 -0.612,-0.378 -0.665,-0.225 c -0.662,0 -0.916,0.823 -0.916,1.144 0,0.277 0.214,0.693 0.575,1.167 -0.992,1.245 -2.048,2.157 -3.477,2.603 0.437,0.203 1.355,0.321 2.319,0.321 1.217,0 2.51,-0.185 2.983,-0.637 l 0.248,-0.378 c 0.645,0.4 1.338,0.678 1.989,0.678 l 0.826,-0.175 c 1.76,-1.269 1.315,-4.812 3.924,-4.812 0.705,0.032 1.389,0.202 2.026,0.495 0.76,0.271 1.51,2.136 0.183,4.327 0.611,-0.158 3.463,-2.423 3.924,-3.335 0.519,-1.465 -0.29,-2.761 0.253,-3.754 0,-0.484 3.866,-4.051 4.928,-4.051 1.333,0.683 2.846,0.964 4.39,0.964 4.832,0 10.041,-2.717 11.655,-4.204 l -0.69,0.046 c -2.812,0 -7.674,-1.962 -7.185,-3.309 1.305,1.021 3.556,1.505 6.075,1.505 4.947,0 10.948,-1.876 12.971,-5.33 -0.823,0.18 -1.674,0.304 -2.539,0.304 -2.054,0 -4.268,-0.692 -6.728,-2.907 1.27,0.585 2.665,0.845 4.068,0.845 4.299,0 8.694,-2.399 9.889,-5.14 h -0.034 c -2.961,0 -5.164,-2.365 -5.164,-3.34 0.386,0.072 0.786,0.113 1.2,0.113 5.246,0 12.447,-5.134 13.433,-5.134 l 0.093,0.022 c -1.068,3.015 -2.119,3.583 -2.736,5.048 4.531,-0.462 11.464,-4.553 14.771,-9.234 0.144,3.206 -2.328,4.941 -5.142,7.071 3.197,0 13.323,-3.206 19.826,-6.209 0.964,-0.474 3.566,-1.787 4.431,-1.787 1.228,0 3.679,2.316 3.789,2.451 8.54,9.906 12.245,13.94 23.807,14.825 1.057,0.191 2.195,0.231 3.363,0.231 1.403,0 2.852,-0.063 4.238,-0.063 3.485,0 6.623,0.445 7.885,3.64 1.594,4.063 -1.662,10.092 -6.051,10.092 -1.605,0 -2.924,-2.028 -3.248,-2.524 -0.671,-1.019 -0.838,-2.523 -2.213,-2.523 -0.649,0.038 -1.255,0.338 -1.694,0.822 -0.473,-0.311 -1.026,-0.461 -1.593,-0.44 -2.07,0 -4.46,1.703 -4.922,2.508 0.924,-0.229 1.651,-0.366 2.349,-0.366 0.831,0 1.615,0.187 2.584,0.621 -0.854,2.14 1.53,1.61 2.455,2.501 l 0.575,0.89 c 0.577,1.273 -0.837,2.407 -2.095,2.407 -0.478,0.017 -0.94,-0.175 -1.259,-0.536 l -0.633,-0.316 -0.138,0.012 c -0.475,0.103 -0.772,0.525 -0.952,1.066 -1.638,0.011 -3.404,2.924 -3.462,3.888 0.813,-0.305 2.905,-0.322 3.913,-0.475 l 0.115,0.198 0.826,0.36 0.144,-0.011 c 1.21,-0.203 1.8,-1.071 2.741,-1.505 l 0.92,-0.142 c 2.322,0 3.313,2.817 0.731,2.817 l -0.521,-0.045 -0.392,-0.034 -0.451,0.17 c -0.583,0.71 -0.403,1.499 -0.068,2.231 l 0.316,0.536 c -1.014,0.461 -2.28,0.484 -3.53,0.484 0.287,0.844 1.712,1.21 3.115,1.21 1.01,0 2.001,-0.18 2.573,-0.53 l 1.057,0.103 c 1.113,0 2.169,-0.366 2.61,-1.29 0.062,-0.141 0.473,-1.002 0.206,-1.532 l -0.479,-0.902 c -0.096,-0.23 -0.144,-0.534 0.058,-0.957 0.421,-0.885 1.125,-1.606 2.004,-2.047 1.113,0.7 1.411,1.556 2.054,3.495 1.811,-1.533 1.067,-3.313 0.721,-4.125 l -0.019,-0.018 0.572,-0.012 c 2.872,0 5.696,0.919 7.188,1.111 l 0.53,0.032 c 2.213,0 4.665,-1.605 5.225,-3.413 -0.728,0.207 -1.491,0.315 -2.252,0.305 -2.378,0 -4.885,-0.846 -5.28,-1.996 0.648,0.118 1.271,0.17 1.853,0.17 4.368,0 7.121,-3.172 9.058,-5.782 -1.426,0.491 -3.172,0.762 -4.773,0.762 -2.232,-0.042 -4.164,-0.561 -4.47,-1.717 M 140.392,463.18 c 1.739,-1.691 4.063,-3 7.514,-3.209 0.288,-0.763 0.541,-1.502 0.685,-2.174 v -0.022 c -0.189,-0.811 -0.138,-1.653 0.141,-2.432 l -0.484,-0.243 c -2.068,-1.426 -2.541,-4.907 -0.989,-7.107 0.837,-1.269 3.099,-1.384 3.11,-1.384 h 0.144 c 1.668,0 2.725,0.98 3.347,1.812 1.057,0.057 2.412,0.225 3.507,0.374 l -0.155,-0.791 c -0.183,-0.415 -0.364,-0.837 -0.541,-1.25 l -0.746,-1.708 c -1.141,-1.772 -3.074,-3.561 -6.271,-4.674 0.296,1.222 1.91,2.787 2.51,3.836 0,0 -3.42,-2.085 -5.015,-2.085 -2.122,0 -2.93,0.556 -4.224,1.074 3.654,0.347 5.511,1.894 5.539,1.921 -1.273,-0.161 -2.259,-0.321 -3.212,-0.321 -1.53,0 -2.978,0.419 -5.449,1.933 1.155,0.672 2.159,1.118 3.175,1.382 -2.907,0.776 -4.842,2.576 -4.882,4.024 1.651,-1.056 3.683,-1.605 5.28,-1.795 -1.662,1.856 -3.595,3.457 -5.737,4.73 0,0 0.792,0.329 1.916,0.329 0.733,0 1.618,-0.143 2.504,-0.6 -0.893,1.056 -2.423,2.169 -3.789,4.69 2.26,-1.881 4.528,-2.631 6.019,-2.803 0,0 -8.188,3.195 -9.348,13.133 1.079,-1.557 2.769,-4.501 5.451,-6.64 m 40.46,17.411 c 0.403,0 0.617,-0.126 0.468,-0.403 -2.02,-1.685 -1.442,-4.598 -2.048,-6.97 -0.341,-1.499 -0.601,-5.257 -3.728,-9.553 1.576,0.823 2.843,3.271 3.127,3.92 1.637,3.491 1.504,11.616 4.77,12.107 -2.121,-8.049 -1.067,-11.132 -2.721,-16.671 -0.97,-1.793 -2.817,-2.936 -4.854,-3.012 0,0 -0.034,0.232 -1.079,0.538 -0.473,0.387 -1.02,0.674 -1.609,0.842 l -0.093,0.579 c -0.479,1.269 -0.805,2.375 -1.085,3.458 4.195,5.726 2.719,9.431 4.928,13.213 0.67,1.157 2.902,1.952 3.924,1.952 m -6.297,-26.864 c 0.395,0.183 0.803,0.399 1.248,0.682 1.037,0.674 1.41,1.696 1.125,3.023 l -0.056,0.569 c 5.099,1.063 6.085,3.117 7.12,6.579 0.578,-5.78 -1.713,-7.934 -3.497,-9.554 0.37,0.115 0.761,0.156 1.153,0.156 1.519,0 3.06,-0.688 3.06,-0.971 -1.535,-1.199 -3.423,-1.85 -5.368,-1.856 -1.708,0 -3.37,0.502 -4.785,1.372"
   id="path30"
   inkscape:connector-curvature="0"
   style="fill:#ffe600" />
	<path
   d="m 230.299,533.534 -0.451,0.034 -0.052,0.011 -0.039,0.012 c -0.763,0.157 -1.43,0.614 -1.848,1.278 -2.249,0.896 -3.893,3.854 -3.969,5.229 l -0.138,2.631 2.636,-1.014 c 0.296,-0.101 1.372,-0.175 1.951,-0.226 l 0.577,-0.045 c 0.491,0.315 1.045,0.473 1.635,0.473 l 0.484,-0.032 0.588,-0.136 c -0.104,0.428 -0.12,0.873 -0.053,1.318 -0.386,0.016 -0.771,0.016 -1.129,0.016 h -2.482 l 0.75,2.176 c 0.52,1.506 2.338,2.384 4.847,2.384 0.559,0 1.779,-0.051 2.869,-0.469 l 0.76,0.041 c 1.978,0 3.579,-0.851 4.257,-2.288 0.37,-0.704 0.51,-1.5 0.405,-2.287 l 0.052,0.146 0.831,2.547 2.124,-1.803 c 1.194,-1.008 1.777,-2.215 1.746,-3.611 1.171,0.141 2.307,0.389 3.276,0.603 0.765,0.169 1.41,0.316 1.977,0.383 l 0.776,0.045 c 3.002,0 6.188,-2.119 6.965,-4.62 l 0.964,-3.077 -1.994,0.632 c 2.006,-1.46 3.37,-3.302 4.164,-4.361 l 3.244,-4.361 -5.364,1.843 c -0.809,0.275 -1.79,0.473 -2.771,0.58 2.752,-1.949 4.846,-5.049 5.626,-7.031 l 1.603,-4.068 -3.755,1.831 c 1.787,-2.271 2.065,-4.964 2.249,-6.654 l 0.428,-3.906 -3.347,2.413 c -2.895,2.096 -4.245,2.744 -5.758,2.744 -0.496,0 -1.063,-0.068 -1.784,-0.216 l -0.606,-0.607 -0.073,-0.136 -0.721,-1.06 -0.049,-0.056 -0.05,-0.04 c -0.786,-0.726 -1.822,-1.126 -2.896,-1.109 -1.183,0 -2.307,0.411 -3.508,0.846 -1.231,0.45 -2.498,0.912 -3.82,0.912 -0.859,0 -1.712,-0.214 -2.482,-0.604 -0.716,-0.354 -1.674,-1.594 -2.093,-2.528 -0.324,-0.745 -0.583,-1.523 -0.781,-2.306 -0.329,-1.155 -0.656,-2.338 -1.377,-3.477 -1.04,-2.355 -2.995,-4.519 -5.989,-6.615 l -0.034,-0.023 -0.048,-0.027 c -1.448,-0.937 -2.792,-2.032 -3.997,-3.27 1.805,0.175 3.694,0.28 5.648,0.28 2.815,0 8.055,-0.197 11.54,-1.497 3.469,-1.403 11.459,-4.648 11.459,-15.117 0,-3.358 -0.922,-14.581 -12.855,-17.983 l -4.539,-1.299 2.352,3.6 c -1.972,-1.178 -4.233,-1.8 -6.535,-1.789 -1.41,0.007 -2.806,0.214 -4.156,0.601 l -4.685,1.327 0.369,0.143 -0.519,-0.016 h -2.297 l 0.53,2.059 c 0.231,0.896 0.116,1.617 -0.368,2.273 l -2.71,-0.886 c -1.756,-0.579 -4.238,-2.103 -4.238,-3.683 0,-0.559 0.115,-0.773 2.587,-1.466 2.785,-0.771 7.003,-1.942 8.884,-7.112 l 0.975,-2.671 -3.005,0.491 c -1.615,0.259 -2.908,0.39 -3.942,0.39 -0.975,0.029 -1.944,-0.149 -2.846,-0.534 -1.245,-0.516 -2.578,-0.77 -3.921,-0.753 -1.933,0.011 -3.804,0.705 -5.28,1.954 -0.266,-1.238 -0.831,-2.39 -1.64,-3.358 -1.097,-1.304 -3.201,-2.863 -6.982,-2.863 -1.51,0 -3.749,0.553 -5.479,2.098 l -1.904,1.703 2.406,1.022 0.634,0.189 c 2.107,0.52 2.829,1.241 2.642,2.636 l -0.011,0.105 v 0.011 c -0.271,0.507 -1.871,1.61 -3.039,2.422 -2.466,1.705 -5.703,3.947 -7.824,7.117 -0.135,-2.493 -0.843,-4.243 -1.722,-5.55 1.243,-0.394 2.366,-1.099 2.366,-2.246 -0.005,-0.5 -0.242,-0.98 -0.645,-1.288 -0.919,-0.703 -1.933,-1.25 -3.021,-1.639 1.305,-0.789 2.057,-2.109 2.136,-3.932 l -0.022,-0.347 0.324,-0.392 0.347,-0.995 c 0,-0.922 -0.798,-1.666 -1.795,-1.674 h -0.093 l -0.208,0.026 -0.375,0.022 c -0.561,0 -1.172,-0.159 -1.874,-0.335 -1.099,-0.331 -2.24,-0.507 -3.383,-0.53 -0.468,0 -1.074,0.034 -1.759,0.133 0.347,-0.308 0.536,-0.75 0.53,-1.212 -0.034,-0.727 -0.541,-1.353 -1.25,-1.542 -0.879,-0.242 -1.784,-0.375 -2.691,-0.386 -3.321,0 -5.924,1.432 -7.863,3.42 -2.059,-2.521 -5.614,-5.215 -9.452,-5.215 -0.623,-0.005 -1.212,0.3 -1.559,0.821 -0.242,0.379 -0.309,0.854 -0.183,1.29 -1.062,-0.674 -2.197,-1.228 -3.386,-1.636 l -0.643,-0.11 c -0.426,0 -0.848,0.138 -1.189,0.404 -0.431,0.34 -0.662,0.875 -0.612,1.425 l -0.704,-0.071 c -2.144,0 -3.316,0.507 -4.344,0.958 l -0.606,0.259 c -0.732,0.274 -1.178,1.022 -1.062,1.795 l 0.191,0.522 c -0.871,0.39 -1.712,0.847 -2.521,1.354 -0.501,0.296 -0.814,0.831 -0.814,1.414 0.005,0.567 0.324,1.09 0.842,1.395 l 0.017,0.005 c -1.555,1.1 -2.533,2.516 -2.562,3.941 -0.01,0.544 0.254,1.063 0.705,1.369 l -0.307,0.185 c -0.552,0.301 -0.888,0.895 -0.859,1.529 0.048,0.617 0.456,1.152 1.067,1.415 0.099,0.045 0.429,0.172 0.936,0.287 -0.439,0.595 -0.831,1.212 -1.183,1.863 -0.299,0.561 -0.237,1.241 0.16,1.738 -1.712,2.202 -3.2,5.192 -3.662,9.155 -0.07,0.727 0.358,1.409 1.039,1.673 l -0.053,0.82 c 0.127,0.572 0.566,1.037 1.155,1.239 0.744,0.25 1.494,0.381 2.22,0.381 0.704,0 1.375,-0.115 2.003,-0.316 -0.059,0.685 -0.087,1.466 -0.087,2.365 0,2.696 -2.273,5.453 -4.125,7.26 -1.437,-1.823 -2.944,-3.595 -4.524,-5.296 -0.806,-0.81 -1.778,-1.074 -2.485,-1.271 -0.499,-0.131 -0.792,-0.219 -0.983,-0.391 l -0.172,-0.335 c -1.597,-4.224 -1.575,-13.571 -1.338,-14.84 0.38,-1.016 0.91,-1.617 1.746,-2.354 0.676,-0.562 1.018,-1.432 0.896,-2.297 -0.174,-0.98 -0.774,-1.839 -1.64,-2.344 -0.437,-0.271 -0.924,-0.478 -1.425,-0.596 -0.933,-1.745 -2.716,-2.84 -5.043,-3.06 l -0.096,-0.005 h -0.135 c -0.916,-0.029 -1.758,0.507 -2.116,1.35 -0.248,0.664 -0.144,1.639 0.894,2.394 l 0.036,0.023 0.122,0.386 0.126,0.308 -0.191,0.374 c -0.347,-0.155 -0.722,-0.236 -1.102,-0.231 -0.594,0 -1.265,0.105 -1.921,0.279 -1.212,-0.797 -3.116,-1.575 -4.739,-1.575 l -0.651,0.045 -0.138,0.012 -0.133,0.039 c -1.211,0.335 -1.49,1.111 -1.546,1.536 -0.149,1.144 0.865,1.708 1.207,1.898 0.427,0.232 1.039,0.579 1.499,1.426 l -0.265,0.709 -0.045,0.19 v 0.197 c 0,1.199 0.767,1.805 1.51,2.135 l -0.403,0.096 c -0.374,0.081 -0.738,0.22 -1.079,0.4 l -0.171,0.095 c -0.446,-0.199 -0.654,-0.47 -0.868,-0.744 -0.271,-0.363 -0.859,-1.118 -1.961,-1.118 l -0.694,0.104 -0.166,0.057 -0.143,0.076 c -0.484,0.259 -1.542,1.079 -0.964,3.066 0.386,1.33 1.542,3.309 3.215,3.948 l 0.859,0.983 c 0.479,0.375 1.079,0.569 1.69,0.563 l 0.992,-0.143 c 0.616,-0.133 1.25,-0.259 1.754,-0.259 0.519,0 0.697,0.104 0.876,0.413 0.166,0.496 0.166,0.918 0,1.144 -0.202,0.254 -0.682,0.403 -1.27,0.403 -0.449,-0.005 -0.894,-0.073 -1.328,-0.206 l -1.789,-0.549 -0.519,1.674 c -0.282,0.847 -0.116,1.784 0.445,2.477 1.125,1.382 3.449,1.602 5.584,1.625 l 0.417,0.842 c 0,2.422 -1.832,7.274 -4.231,7.274 l -0.288,-0.022 -5.621,-0.8 4.085,3.657 c 1.023,0.914 2.113,1.772 3.358,2.187 l -0.017,0.011 -0.561,0.389 -2,1.411 2.076,1.304 c 0.214,0.133 1.361,0.797 3.116,0.797 l 0.433,-0.017 c -0.543,0.815 -1.304,1.46 -2.194,1.857 l -2.809,1.281 2.598,1.609 c 0.206,0.125 2.076,1.25 4.159,1.25 0.411,0 0.809,-0.043 1.183,-0.118 -0.098,1.325 -0.709,2.988 -2.851,4.159 l -1.603,0.892 1.014,1.453 c 0.792,1.144 6.573,6.462 12.475,6.462 3.33,0 6.816,-0.337 10.352,-1.972 -1.285,2.445 -2.854,4.462 -4.725,5.251 -2.009,0.948 -2.435,2.694 -2.804,4.238 -0.561,2.31 -1.188,4.937 -6.638,7.179 -1.417,0.507 -3.102,1.114 -4.891,1.114 -0.975,0.013 -1.938,-0.191 -2.829,-0.591 -0.709,-0.366 -1.399,-0.744 -2.076,-1.149 -0.507,-0.389 -0.887,-1.087 -1.245,-1.769 -0.601,-1.089 -1.42,-2.604 -3.313,-2.604 -0.755,0.022 -1.482,0.31 -2.049,0.816 -1.961,0.057 -4.846,0.423 -6.468,3.297 l -1.91,3.42 4,-1.032 c 0.375,-0.106 0.761,-0.139 1.153,-0.139 l 0.347,0.009 c 0.059,0.452 0.231,0.926 0.633,1.297 l 0.139,0.113 c -0.728,0.405 -1.251,1.104 -1.435,1.915 -2.003,0.632 -4.243,2.267 -4.733,4.497 l -0.794,3.651 3.485,-1.859 c 1.51,-0.823 2.087,-0.991 2.532,-0.991 l 0.347,0.033 0.727,0.901 0.039,0.045 0.04,0.034 0.854,0.484 c -0.2,0.394 -0.31,0.839 -0.322,1.291 l 0.217,0.98 c -0.513,0.558 -1.163,0.969 -1.885,1.205 l -4.108,1.269 3.866,1.802 c 0.933,0.445 2.363,0.509 3.139,0.509 1.107,0 2.521,-0.125 3.559,-0.644 0.532,0.187 1.098,0.293 1.662,0.305 0.561,0 1.11,-0.118 1.617,-0.344 l 0.172,-0.079 0.149,-0.118 c 1.139,-0.823 1.624,-2.058 2.009,-3.054 0.175,-0.445 0.49,-1.262 0.705,-1.387 l 0.098,-0.005 c 0.149,0 0.474,0.027 1.051,0.248 0.101,0.293 0.194,1.064 -0.429,2.078 l -2.135,3.527 4.211,-1.104 c 1.271,-0.339 4.443,-2.987 5.072,-4.238 l 0.048,-0.089 0.028,-0.091 c 0.386,-1.082 0.287,-2.063 0.208,-2.783 l -0.042,-0.767 0.104,-0.18 c 0.521,-0.666 2.229,-2.176 3.146,-2.767 1.328,0.534 2.821,0.805 4.441,0.805 5.564,0 11.17,-3.065 12.937,-4.705 l 1.95,-1.808 c 3.947,-0.841 7.79,-2.694 9.534,-5.664 l 1.927,-3.302 -0.867,0.191 c 1.715,-1.053 3.06,-2.429 3.721,-3.938 l 1.012,-2.321 -2.707,0.022 c -0.437,0 -0.865,-0.073 -1.279,-0.219 2.296,-0.509 4.648,-1.532 6.634,-2.53 l -0.242,0.523 -1.067,2.564 2.955,-0.31 c 2.007,-0.198 4.308,-0.981 6.587,-2.142 h 2.846 c 1.068,0 2.699,-0.294 4.598,-0.755 -0.496,1.926 -0.38,3.516 0.435,4.812 1.096,1.775 3.341,2.908 6.849,3.488 0.721,0.09 1.4,0.129 2.158,0.129 0.805,0 1.568,-0.05 2.307,-0.091 0.634,-0.05 1.277,-0.072 1.917,-0.084 1.487,0 2.479,0.236 3.42,0.828 1.27,0.812 1.805,1.669 1.594,2.519 -0.394,1.511 -3.115,3.404 -7.403,3.962 -1.24,0.197 -2.5,0.31 -3.755,0.332 -3.589,0 -4.376,-1.278 -4.663,-2.536 l -0.023,-0.089 -0.034,-0.097 c -0.29,-0.727 -0.836,-1.324 -1.535,-1.684 l -0.204,-0.136 c -1.124,-0.722 -2.395,-1.037 -3.409,-1.29 -0.417,-0.086 -0.825,-0.209 -1.217,-0.354 l -0.174,-0.098 -0.203,-0.039 c -0.248,-0.057 -0.344,-0.175 -0.732,-0.812 -0.459,-0.789 -1.327,-2.253 -3.49,-2.253 -0.69,0.005 -1.367,0.186 -1.979,0.519 -0.467,-0.169 -0.963,-0.248 -1.459,-0.248 -1.754,0 -3.752,1.025 -4.829,2.49 l -1.941,2.614 h 3.435 c 0.633,0 1.386,0.31 2.225,0.664 l 0.268,0.475 0.161,0.237 c -0.699,0.303 -1.298,0.798 -1.725,1.419 -2.135,0.102 -4.663,1.251 -5.378,3.297 l -1.282,3.668 3.775,-1.635 0.963,-0.214 c 0.288,0 0.623,0.045 1.02,0.136 0.164,0.585 0.501,1.092 0.981,1.465 l 0.51,0.327 c -0.389,0.507 -0.637,1.092 -0.715,1.724 -1.998,0.867 -4.023,2.722 -4.023,4.236 v 2.306 l 2.384,-0.721 c 0.445,-0.141 0.826,-0.277 1.183,-0.412 0.778,-0.299 1.316,-0.502 2.677,-0.536 0.998,0.885 2.285,1.359 3.618,1.349 1.333,0 2.539,-0.519 3.215,-1.398 l 0.033,-0.046 1.35,0.43 0.972,0.135 c 1.786,0 4.556,-1.472 5.688,-2.986 2.584,0.462 3.018,1.092 3.018,1.092 0,0.147 -0.132,0.644 -1.228,2.04 -0.318,0.406 -0.908,1.15 -0.387,2.074 l 0.502,0.925 h 1.112 c 3.75,0 7.046,-2.965 9.779,-5.691 0.047,1.396 0.423,2.767 1.426,3.735 l 1.915,1.843 1.067,-2.355 c 0.59,-1.285 2.805,-4.039 5.027,-6.124 -0.071,1.064 0.172,2.107 0.692,3.024 0.933,1.601 2.75,2.648 5.382,3.117 l 5.174,0.907 -3.464,-3.663 c -1.157,-1.205 -1.589,-2.378 -1.328,-3.562 0.35,-1.605 1.933,-2.974 2.953,-3.426 l 0.088,-0.034 0.081,-0.056 c 0.976,-0.518 1.604,-1.532 1.638,-2.637 0,-2.456 -2.332,-3.775 -4.384,-4.937 -1.369,-0.767 -2.923,-1.645 -2.923,-2.456 0,-1.792 0.637,-4.002 1.155,-5.794 l 0.105,-0.359 c 4.321,3.809 8.875,5.91 16.65,6.524 1.012,0.17 2.158,0.254 3.606,0.254 0.721,0 1.449,-0.018 2.176,-0.039 0.692,-0.011 1.385,-0.033 2.063,-0.033 3.828,0 5.44,0.659 6.184,2.54 0.67,1.714 0.191,4.165 -1.167,5.945 -0.922,1.206 -2.077,1.893 -3.184,1.893 0,0 -0.635,-0.089 -1.696,-1.701 l -0.363,-0.71 c -0.423,-0.918 -1.201,-2.637 -3.402,-2.637 -0.69,0 -1.371,0.19 -1.972,0.546 -0.428,-0.118 -0.87,-0.164 -1.315,-0.157 -2.746,0 -5.746,2.044 -6.519,3.397 l -1.956,3.415 4.032,-1.015 c 0.848,-0.214 1.408,-0.311 1.87,-0.311 l 0.606,0.063 0.271,0.84 c 0.293,0.534 0.762,0.964 1.322,1.205 z m -31.757,-80.973 c 0.507,-3.848 -3.849,-4.354 -4.315,-4.557 1.27,-1.136 3,-1.626 4.222,-1.626 6.313,0 7.825,5.077 6.694,9.19 1.691,-2.111 3.809,-4.917 7.208,-4.917 3.23,0 3.276,1.283 6.767,1.283 1.045,0 2.411,-0.117 4.259,-0.418 -2.845,7.811 -11.577,4.646 -11.577,9.111 0,2.654 3.389,4.582 5.45,5.257 -0.418,0.034 -0.838,0.045 -1.254,0.045 -8.486,0 -10.362,-6.934 -17.563,-6.934 -3.809,0 -9.365,4.003 -9.365,9.866 0,2.787 1.75,5.821 9.579,5.821 5.523,0 11.308,-2.39 15.94,-4.29 4.101,-1.674 9.275,-3.336 8.108,-7.856 2.736,0 8.943,2.135 9.476,3.106 -0.122,-2.458 -1.675,-3.647 -4.109,-4.632 1.327,-0.373 2.527,-0.528 3.634,-0.528 6.312,0 9.29,5.181 9.895,5.181 l 0.059,-0.021 c 0.178,-2.71 -0.439,-3.712 -1.766,-5.748 9.844,2.813 11.579,11.598 11.579,16.385 0,9.127 -6.536,12.039 -10.328,13.575 -2.51,0.927 -6.623,1.366 -10.864,1.366 -2.521,0 -5.064,-0.16 -7.362,-0.462 l -0.565,-0.64 c -0.243,-0.29 -0.925,-1.442 -1.356,-2.181 2.203,0.254 4.674,0.419 7.242,0.419 8.353,0 17.419,-1.712 19.409,-7.582 2.735,-6.577 -3.778,-11.071 -9.249,-11.625 -1.055,-0.094 -2.111,-0.139 -3.174,-0.139 -10.13,0 -19.386,4.079 -31.739,7.703 -1.979,0.457 -4.003,0.687 -6.035,0.682 -5.847,0 -11.991,-1.962 -11.991,-8.252 -0.001,-9.998 13.096,-13.576 13.091,-16.582 z m 18.395,15.02 c -0.624,0.275 -1.315,0.578 -2.088,0.88 l -0.995,0.401 c -4.51,1.857 -10.085,4.147 -15.208,4.147 -7.773,0 -7.773,-3.126 -7.773,-4.152 0,-5.081 4.895,-8.181 7.56,-8.181 2.833,0 4.713,1.343 6.882,2.901 2.643,1.884 5.638,4.026 10.675,4.026 z M 197.44,479.07 c 2.181,0 4.483,-0.259 6.479,-0.739 l 0.052,-0.012 0.053,-0.014 c 3.122,-0.909 6.017,-1.846 8.815,-2.746 8.101,-2.618 15.089,-4.875 22.381,-4.875 1.003,0 2.009,0.041 3,0.128 2.487,0.253 5.753,1.598 7.351,4.034 1.056,1.591 1.183,3.386 0.374,5.33 l -0.016,0.045 -0.018,0.053 c -1.96,5.781 -13.016,6.409 -17.683,6.409 -3.094,0 -6.023,-0.241 -8.429,-0.588 -1.986,-2.622 -5.587,-5.128 -9.095,-5.128 h -0.214 l -0.212,0.045 c -1.165,0.259 -2.581,0.714 -3.952,1.155 -1.327,0.424 -2.713,0.865 -3.734,1.095 -2.331,0.449 -4.518,0.858 -6.606,1.246 -4.437,0.831 -8.632,1.614 -13.388,2.654 -0.605,-0.484 -1.597,-2.482 -2.197,-3.705 l -0.682,-1.343 c 0.372,0.086 0.752,0.138 1.132,0.149 1.218,0 1.795,-0.59 2.026,-0.941 l 0.023,-0.034 0.253,0.054 0.287,0.016 c 0.505,0 0.983,-0.191 1.328,-0.538 0.411,-0.397 0.572,-0.98 0.428,-1.526 -0.76,-2.879 -1.25,-5.824 -1.464,-8.795 0.709,5.384 5.71,8.571 13.708,8.571 z m -28.689,8.186 c -3.462,-2.741 -1.719,-8.875 -3.986,-11.164 0.572,1.876 0.864,3.704 0.732,4.904 -0.536,4.487 -2.747,7.24 -1.147,12.272 -2.719,-2.025 -3.254,-3.005 -4.311,-5.528 -0.048,-0.405 -0.059,-0.813 -0.064,-1.217 l 0.186,-1.228 c 0.448,-2.874 0.898,-5.813 0.357,-8.68 0.211,-0.419 0.392,-0.842 0.53,-1.267 l 0.313,0.055 c 0.403,0 0.8,-0.133 1.13,-0.374 1.155,-0.854 2.454,-1.646 3.722,-2.413 2.251,-1.366 4.195,-2.548 5.038,-3.969 l 0.197,-0.53 0.022,-0.152 c 1.167,1.733 1.879,4.041 2.204,8.165 0.358,4.635 3.254,6.077 2.718,6.077 -1.673,-0.491 -5.096,-1.743 -6.953,-10.952 0.056,4.319 2.4,10.926 -0.688,16.001 z m -8.192,10.076 -1.039,0.141 c -2.618,0 -3.641,-2.813 -3.849,-2.813 l -0.034,0.156 c -0.535,2.02 0.53,4.549 1.679,6.511 -1.845,-0.237 -3.051,-1.517 -3.694,-3.432 l -0.017,-0.034 c -1.327,-3.347 -0.667,-13.72 -0.667,-13.907 -1.673,2.978 -2.389,10.987 -1.084,19.389 -1.679,-1.555 -2.552,-4.17 -2.995,-6.892 l -0.164,0.225 c 0,0 -1.775,1.753 -4.928,2.023 0,0 4.139,-5.102 5.08,-9.424 0.211,-0.885 0.419,-2.108 0.684,-3.423 0.896,-2.589 1.79,-4.904 2.598,-6.817 h 0.099 l 0.161,-0.042 c 0.692,1.366 1.685,1.743 2.324,1.827 l 0.549,0.049 c 1.251,0 2.434,-0.693 3.387,-1.635 -0.034,1.029 -0.116,2.054 -0.242,3.083 -0.177,1.4 -0.265,2.809 -0.259,4.224 -0.579,3.993 -0.782,7.807 2.411,10.791 z m -26.433,-3.947 c -0.479,0 -0.963,-0.044 -1.442,-0.117 5.713,-3.82 8.418,-8.73 10.241,-12.288 1.744,-3.43 3.677,-5.863 5.345,-7.399 0.364,-0.171 0.749,-0.298 1.152,-0.363 l 0.158,-0.029 c 0.843,-0.18 1.559,-0.726 1.944,-1.502 l 0.087,0.032 c 0.006,0.69 0.161,1.152 0.321,1.499 -0.166,0.831 -0.242,1.645 -0.231,2.422 -0.288,0.578 -0.574,1.211 -0.898,1.939 l -0.648,0.577 c -1.234,1.865 -1.891,4.734 -2.386,7.295 -0.561,1.625 -1.115,3.321 -1.628,5.053 -0.76,2.545 -5.505,7.925 -11.343,7.925 -0.501,0 -1.006,-0.039 -1.502,-0.118 7.872,-4.496 11.738,-8.765 12.563,-16.583 -1.486,3.74 -4.734,11.651 -11.733,11.657 z m 26.472,-29.625 c 0.6,1.018 0.994,0.918 -0.017,1.572 l -0.589,0.034 -1.002,-0.878 -0.423,-0.282 -0.778,-0.214 -0.087,0.01 -0.144,0.018 -0.011,-0.006 c -0.496,0.065 -0.963,0.292 -1.513,0.324 -0.321,-0.183 -0.75,-0.793 -0.067,-1.05 2.614,-1.152 2.787,-2.825 3.116,-4.841 l 1.305,-0.073 c 0.557,0.484 -1.579,3.31 0.21,5.386 z m -0.127,-10.102 c -0.079,0.953 -0.403,2.047 -0.887,3.203 -0.491,-0.122 -1.223,-0.572 -2.015,-1.136 -1.547,-1.132 -3,-2.383 -4.35,-3.747 l -0.301,-0.332 -0.045,0.16 -0.012,0.029 -0.056,0.185 -0.02,0.041 c -0.375,0.964 -1.217,1.662 -2.237,1.85 l -0.907,0.015 -0.288,-0.146 c -1.239,-0.838 -1.708,-3.323 -0.555,-4.903 0.174,-0.308 1.189,-0.578 1.64,-0.594 h 0.073 l 0.318,0.045 0.253,0.039 0.347,0.175 0.242,0.126 0.364,0.347 0.208,0.214 0.572,0.854 0.293,-0.015 h 0.006 l 0.676,0.026 h 0.056 l 0.82,0.068 h 0.006 c 1.927,0.175 4.328,0.561 4.328,0.561 1.2,0.457 1.592,1.536 1.47,2.924 v 0.011 z m -11.551,8.769 c 0.55,-1.546 1.248,-3.127 1.502,-4.609 -0.037,-0.519 -0.66,-2.059 0.865,-2.746 0.601,-0.039 1.085,-0.583 1.558,-1.131 0.541,-0.031 1.13,0.976 1.772,1.536 l -0.064,0.079 -0.33,0.417 -0.028,0.045 -0.288,0.423 -0.081,0.144 -0.215,0.37 -0.115,0.23 -0.138,0.321 -0.109,0.308 -0.074,0.264 -0.059,0.364 -0.04,0.23 0.012,0.398 v 0.191 l 0.155,0.577 0.092,0.075 0.057,0.036 0.191,0.126 0.116,0.045 0.225,0.104 0.15,0.029 0.259,0.042 c 1.079,-0.577 1.882,-1.387 2.296,-3.06 l 0.797,0.175 c 0,0 0.541,-0.031 0.578,0.575 0.04,0.521 -0.428,1.605 -0.394,2.124 -0.519,1.155 -2.054,1.767 -2.539,2.325 l -1.174,0.693 -0.268,0.196 -0.132,0.311 c 0.605,1.027 1.155,1.518 1.789,2.009 0.561,0.561 1.041,-0.057 1.569,-0.094 l -0.028,0.358 -0.203,0.831 -0.017,0.121 -0.022,0.618 h -0.06 l -0.304,-0.041 -0.149,-0.017 -0.479,-0.115 -0.687,-0.164 -0.121,-0.018 -0.386,-0.043 c -0.566,-0.479 -1.116,-0.982 -1.155,-1.582 -0.068,-0.67 -0.386,-1.292 -0.888,-1.743 l -0.364,-0.173 -0.138,-0.027 -0.273,-0.026 -0.305,0.053 -0.456,0.216 c -0.485,0.562 -0.676,0.667 -0.64,1.188 0.034,0.525 0.259,0.933 0.772,0.905 l 0.749,0.259 h 0.006 l 0.566,0.768 0.082,0.128 0.099,0.138 0.259,0.253 0.321,0.392 0.187,0.152 0.138,0.103 c 0.623,0.421 1.234,0.619 0.539,1.458 -0.181,0.335 -0.485,0.589 -0.852,0.7 l -0.126,0.022 -0.133,0.02 h -0.034 l -0.898,-0.434 c -0.868,-1.201 -1.738,-2.353 -2.657,-3.75 -0.304,-0.473 -0.606,-0.958 -0.898,-1.442 0.07,-0.468 0.219,-0.953 0.369,-1.442 l 0.248,-0.766 z m -4.939,37.931 -0.044,0.011 h -0.175 0.175 z m 14.473,-23.666 -0.076,0.104 -0.175,0.259 -0.248,0.324 -0.183,0.231 -0.271,0.293 -0.174,0.186 -0.38,0.344 -0.082,0.058 -0.461,0.324 -0.132,0.068 -0.316,0.164 -0.164,0.05 -0.276,0.068 -0.149,0.02 -0.104,0.011 -0.259,-0.022 -0.417,-0.175 -0.09,-0.066 c -0.411,-0.358 -0.735,-1.081 -0.902,-2.021 -0.374,-2.192 0.116,-5.489 2.378,-7.651 v 0.005 l 0.93,0.175 -1.442,6.063 1.096,0.271 1.268,-4.251 0.543,-1.811 0.099,0.016 0.344,0.062 0.047,0.094 0.145,0.262 c 1.2,2.19 0.594,4.713 -0.556,6.536 v 0.011 h 0.007 z m 0.479,-8.632 -0.093,-1.379 -0.054,-0.779 c 0.507,-0.553 0.936,1.155 1.964,1.315 l 0.49,0.047 h 0.098 l 0.403,-0.07 0.011,-0.011 0.298,-0.209 0.065,-0.057 0.33,-0.363 0.501,-0.6 -0.039,-0.595 c -1.311,-1.761 -1.618,-4.068 -0.809,-6.106 0.518,-0.034 1.383,0.087 1.383,0.087 l 0.025,0.156 c 0.145,1.212 0.403,2.02 0.708,2.561 l 0.031,0.07 0.259,0.363 0.087,0.105 0.242,0.21 0.115,0.087 0.211,0.115 0.138,0.053 0.175,0.041 0.155,0.022 0.122,0.011 h 0.192 c 1.598,-0.635 0.777,-2.279 0.633,-3.807 l 0.403,-0.267 c 0.562,-0.328 1.431,-0.663 2.719,-0.739 0.033,0.521 0.664,2.396 1.674,3.099 -0.657,1.73 -1.069,3.232 -1.403,4.791 -0.116,0.53 -0.217,1.072 -0.31,1.63 l -0.521,0.648 -0.155,0.133 -0.606,0.53 -0.191,0.133 c -1.708,1.288 -4.418,2.68 -6.674,4.327 l -0.15,0.115 c -0.555,-0.484 0.045,-1.769 -0.583,-3.381 1.113,-0.066 2.169,-0.12 3.172,-0.714 0.6,-0.034 2.065,0.203 2.527,-0.876 -0.022,-0.502 -0.172,-0.992 -0.431,-1.426 l -0.082,-0.133 -0.22,-0.214 -0.067,-0.045 -0.187,-0.092 -0.104,-0.018 -0.172,-0.005 -0.439,0.133 c -0.513,0.027 -0.804,0.143 -1.057,0.825 l -0.104,0.419 -0.028,0.053 -0.316,0.259 -0.082,0.034 -0.484,0.147 -0.082,0.005 -0.611,0.041 -1.085,-0.083 -0.045,-0.005 c -0.899,-0.136 -1.724,-0.388 -1.947,-0.591 z m 8.002,-14.887 v 0 c 0.484,0.133 0.98,0.317 1.442,0.542 l 0.197,0.094 0.288,0.161 0.265,0.16 0.231,0.157 0.265,0.212 0.18,0.164 0.242,0.264 0.116,0.144 0.242,0.439 0.975,-0.496 0.172,-0.047 0.29,-0.094 0.219,-0.016 0.254,-0.034 0.04,0.005 0.578,0.087 0.034,0.006 c 0.496,0.126 1.068,0.386 1.8,0.865 0.617,0.39 0.589,1.09 0.143,2.158 l -0.115,0.131 -0.057,0.076 -0.226,0.259 -0.265,0.288 -0.054,0.059 -0.265,0.248 -0.034,0.041 c -0.814,0.737 -1.904,1.309 -2.648,-0.022 -0.391,-0.781 -0.132,-1.905 -1.287,-2.446 l -0.578,-0.024 -0.744,0.104 -0.298,0.059 -1,0.254 c -0.535,0.144 -1.113,0.305 -1.696,0.45 l -0.206,0.052 c -0.411,0.104 -0.82,0.185 -1.236,0.247 l -0.217,0.045 -0.032,-0.012 c -0.969,0.141 -1.899,0.136 -2.595,-0.215 0.189,-1.272 0.442,-2.527 0.894,-3.464 l 0.155,-0.275 0.11,-0.191 h 0.017 c 0.461,-0.693 1.079,-1.097 1.98,-0.959 l 1.662,0.347 -0.017,0.018 z M 172,465.434 c 0.271,-1.09 0.606,-2.197 1.085,-3.46 l 0.093,-0.583 c 0.595,-0.168 1.144,-0.455 1.615,-0.842 1.039,-0.306 1.073,-0.538 1.073,-0.538 2.037,0.076 3.885,1.218 4.854,3.012 1.653,5.539 0.6,8.622 2.721,16.671 -3.265,-0.491 -3.132,-8.616 -4.77,-12.112 -0.29,-0.645 -1.552,-3.093 -3.127,-3.922 3.127,4.303 3.387,8.062 3.728,9.56 0.6,2.367 0.028,5.285 2.048,6.97 0.149,0.277 -0.06,0.403 -0.462,0.403 -1.028,0 -3.26,-0.795 -3.925,-1.944 -2.215,-3.791 -0.738,-7.501 -4.933,-13.215 z m 12.706,-11.223 c 0,0.289 -1.541,0.971 -3.06,0.971 -0.387,0.005 -0.778,-0.045 -1.153,-0.156 1.784,1.62 4.075,3.773 3.497,9.559 -1.035,-3.462 -2.021,-5.521 -7.12,-6.584 l 0.056,-0.569 c 0.285,-1.327 -0.087,-2.349 -1.125,-3.023 -0.397,-0.256 -0.82,-0.478 -1.248,-0.682 1.415,-0.865 3.077,-1.372 4.789,-1.372 1.82,0 3.685,0.564 5.364,1.856 z m -6.798,-9.402 c 2.084,0 3.549,0.859 5.257,0.859 l 0.659,-0.045 c -1.056,1.532 -2.894,0.75 -5.437,1.246 -3.513,0.392 -4.933,1.431 -6.79,3.298 5.122,-3.789 7.311,-2.025 11.584,-2.883 -0.079,1.766 -0.904,3.18 -3.843,3.18 -2.479,0 -4.539,0.461 -7.068,2.357 0,0 -3.217,-1.67 -3.667,-1.67 2.112,-5.058 6.271,-6.342 9.305,-6.342 z m -13.225,1.788 c 1.634,-2.527 4.223,-4.8 8.054,-4.8 1.096,0 2.136,0.305 2.136,0.305 -2.462,0.873 -7.35,5.515 -8.88,9.139 l -1.079,-0.225 -0.104,-0.018 -0.639,-0.045 -0.865,0.094 v -0.015 c 0.287,-0.858 0.634,-2 0.974,-3.114 z m -1.245,-2.032 -0.415,1.327 c -0.873,1.361 -1.502,2.809 -1.91,4.164 -0.411,-0.379 -0.89,-0.679 -1.414,-0.875 -0.253,-0.551 -0.507,-1.102 -0.75,-1.657 -0.295,-1.129 -0.764,-2.203 -1.386,-3.19 -0.623,-1.484 -1.338,-2.933 -2.135,-4.332 3.28,0 6.359,2.527 8.01,4.563 z m -28.486,25.256 c 1.155,-9.938 9.337,-13.133 9.348,-13.133 -1.501,0.172 -3.763,0.922 -6.023,2.803 1.361,-2.521 2.897,-3.634 3.79,-4.69 -0.772,0.397 -1.631,0.6 -2.505,0.6 -0.65,0.006 -1.301,-0.104 -1.916,-0.329 1.964,-1.131 4.283,-3.045 5.737,-4.73 -1.598,0.189 -3.635,0.739 -5.28,1.795 0.042,-1.443 1.975,-3.248 4.888,-4.024 -1.119,-0.309 -2.187,-0.776 -3.18,-1.382 2.47,-1.513 3.924,-1.933 5.448,-1.933 0.953,0 1.938,0.16 3.212,0.321 -0.028,-0.028 -1.885,-1.575 -5.539,-1.921 1.293,-0.519 2.102,-1.074 4.226,-1.074 1.592,0 5.018,2.08 5.018,2.08 -0.605,-1.045 -2.22,-2.61 -2.515,-3.838 3.197,1.12 5.13,2.908 6.274,4.68 l 0.744,1.708 0.541,1.25 0.158,0.791 c -1.167,-0.168 -2.338,-0.293 -3.511,-0.374 -0.622,-0.825 -1.679,-1.812 -3.344,-1.812 h -0.146 c -0.011,0 -2.274,0.115 -3.116,1.384 -1.544,2.193 -1.073,5.682 0.995,7.107 l 0.484,0.243 c -0.284,0.779 -0.335,1.622 -0.146,2.432 v 0.022 c -0.172,0.737 -0.397,1.464 -0.679,2.174 -3.451,0.199 -5.77,1.518 -7.514,3.209 -2.68,2.133 -4.376,5.076 -5.449,6.641 z m 6.282,5.983 c 0,-6.291 1.618,-5.724 2.539,-8.01 -2.07,2.587 -4.009,4.272 -6.26,4.272 -0.541,0 -1.084,-0.094 -1.597,-0.269 2.129,-1.846 3.386,-5.141 5.826,-7.488 1.519,-1.205 3.384,-1.905 5.322,-1.986 -0.231,0.693 -0.439,1.387 -0.555,2.079 l 0.209,1.068 c 1.085,1.813 2.087,3.185 3.062,4.523 l 0.253,0.347 c -0.921,0.363 -1.912,1.022 -2.913,1.921 -4.973,2.719 -5.28,11.869 -12.174,13.46 2.742,-2.284 6.288,-6.063 6.288,-9.917 z m -6.668,7.945 -0.49,0.426 z m -5.114,26.323 c -4.995,0 -10.345,-4.813 -10.957,-5.691 5.367,-2.97 3.446,-8.502 3.26,-8.502 l -0.012,0.005 c -0.523,0.869 -1.487,1.387 -2.509,1.353 -1.593,0 -3.15,-0.967 -3.15,-0.967 2.693,-1.222 3.866,-3.648 4.525,-6.325 -1.363,1.017 -2.592,1.304 -3.561,1.304 -1.288,0 -2.094,-0.507 -2.094,-0.507 1.989,-1.403 2.573,-1.609 3.519,-4.027 -0.969,0.542 -1.731,0.878 -2.509,0.878 -1.003,0 -2.049,-0.561 -3.624,-1.968 l 0.561,0.042 c 3.933,0 6.035,-6.072 6.035,-8.951 0,-0.93 -0.479,-1.795 -1.271,-2.284 l -0.809,-0.231 H 116.8 c -1.761,-0.012 -4.928,-0.172 -4.373,-1.96 0.662,0.188 1.296,0.287 1.89,0.287 2.31,0 3.849,-1.464 2.944,-3.865 -0.572,-1.095 -1.485,-1.442 -2.55,-1.442 -0.698,0 -1.468,0.149 -2.24,0.317 l -0.507,0.084 -0.526,-0.166 c -0.408,-0.324 -0.651,-0.815 -0.656,-1.333 l -0.155,0.161 h -0.104 c -1.53,0 -3.335,-3.627 -2.454,-4.102 l 0.099,-0.016 c 0.521,0 0.66,1.586 3.231,2.059 l -0.017,0.094 0.693,-0.606 0.732,-0.259 0.409,-0.06 c 0.744,0 1.386,0.556 1.981,0.556 l 0.811,-0.496 0.248,-0.767 c 0.152,-2.927 -3.304,-1.64 -3.304,-3.054 l 0.49,-0.982 c -1.062,-3.104 -3.761,-3.059 -2.626,-3.375 l 0.398,-0.022 c 1.687,0 3.868,1.223 4.276,1.746 l -0.092,0.14 c 0.848,-0.381 1.76,-0.583 2.477,-0.583 1.481,0 -0.787,2.678 2.042,3.036 l 0.116,0.006 c 0.617,-0.071 1.195,-0.353 1.626,-0.792 1.882,-1.823 -1.073,-2.197 -1.048,-2.748 0.011,-0.627 0.496,-0.991 1.163,-1.188 l -0.265,-0.057 c -0.431,-0.202 -0.633,-0.589 -0.75,-0.923 -0.307,-0.826 0.116,-0.601 -0.755,-1.189 -0.606,-0.438 -0.219,-0.762 0.102,-0.762 h 0.037 c 1.8,0.175 3.333,1.052 3.904,2.84 0.721,0.095 1.397,0.287 1.761,0.546 0.583,0.308 1.292,1.333 0.49,2.043 -0.893,0.797 -1.713,1.634 -2.24,3.083 -0.332,0.865 -0.402,11.187 1.397,15.922 0.259,0.648 0.456,0.804 0.589,0.925 1.045,0.953 2.462,0.671 3.403,1.602 0.764,0.671 2.714,2.989 4.559,5.351 l -0.271,0.23 c -0.617,0.491 -0.78,1.356 -0.381,2.038 0.341,0.557 0.947,0.893 1.598,0.881 l 0.44,-0.045 0.772,-0.232 0.347,0.491 c -1.426,1.651 -3.071,3.106 -4.883,4.316 -0.589,0.37 -0.864,1.074 -0.704,1.742 0.175,0.66 0.751,1.155 1.479,1.265 1.003,0.149 2.025,0.166 3.034,0.057 -0.936,0.63 -1.961,1.259 -3.099,1.903 -0.617,0.339 -0.953,1.037 -0.82,1.735 0.147,0.688 0.721,1.207 1.468,1.336 0.595,0.096 1.211,0.141 1.817,0.141 2.891,0 5.505,-1.083 7.638,-2.553 l -0.122,0.152 c -0.425,0.519 -0.479,1.251 -0.126,1.814 0.231,0.371 0.601,0.642 1.034,0.771 -0.572,2.344 -1.31,4.649 -2.217,6.881 -3.692,2.3 -7.467,2.897 -11.558,2.897 z m 88.458,16.87 c 0,0.466 -0.287,0.923 -0.793,1.216 -2.195,0.992 -6.522,5.049 -2.195,9.596 -5.97,-1.053 -4.995,-5.043 -3.402,-8.604 -3.308,1.06 -8.688,7.337 -9.712,9.591 -1.956,-1.883 -0.298,-6.733 -0.039,-7.078 l -0.126,-0.142 -0.358,0.142 c -2.736,2.034 -7.345,8.515 -11.991,8.515 -0.126,0 1.801,-1.989 1.801,-3.369 0,-1.917 -3.37,-2.66 -6.105,-2.97 0.589,1.03 -2.792,3.194 -4.407,3.194 l -0.383,-0.057 c 1.364,-1.289 2.079,-2.124 1.732,-3.363 l -0.521,-0.022 c -2.099,0.271 -3.017,1.087 -4.66,3.617 -0.341,0.439 -0.974,0.698 -1.738,0.698 l -1.014,-0.146 c -0.721,-0.216 -1.355,-0.632 -1.848,-1.2 h -0.344 c -2.724,0 -3.254,0.546 -4.848,1.042 0,-0.89 2.377,-2.852 4.068,-3.055 -0.209,-0.896 -0.034,-1.791 0.786,-2.371 l 0.459,-0.107 c 0.71,0 1.237,0.744 2.229,0.744 l 0.64,-0.096 c 0.935,-0.479 1.05,-3.218 -0.75,-3.579 l -0.595,-0.055 -0.998,0.18 c -0.786,0.281 -1.276,0.957 -1.789,0.957 l -0.44,-0.175 -0.437,-0.682 -0.082,-0.71 -0.16,-0.068 -0.792,-0.291 c -0.561,-0.159 -1.142,-0.248 -1.725,-0.26 -0.6,0 -1.188,0.119 -1.733,0.36 0.44,-1.263 2.344,-2.136 3.942,-2.136 l 0.797,0.084 c 0.364,-0.957 0.993,-1.734 2.021,-1.785 h 0.011 c 0.473,0 0.721,0.394 0.817,0.546 0.428,0.693 0.868,1.037 1.31,1.037 2.328,0 2.285,-1.487 1.888,-2.84 -0.076,-0.231 -0.259,-0.812 -0.82,-0.835 l -0.305,-0.011 c -0.566,0 -1.2,0.118 -1.749,0.118 -0.507,0 -0.936,-0.107 -1.135,-0.496 l -0.285,-0.935 -0.172,0.027 -0.248,-0.062 c -1.138,-0.5 -2.206,-0.986 -3.346,-0.986 0.803,-1.047 2.02,-1.689 3.335,-1.758 0.6,0 1.141,0.187 1.511,0.625 0.515,-0.523 1.2,-0.839 1.927,-0.9 2.124,0 1.605,2.52 3.792,3.015 1.068,0.489 2.989,0.607 4.396,1.521 0.509,0.337 0.873,0.478 1.067,0.985 0.71,3.088 3.521,3.854 6.43,3.854 1.383,0 2.786,-0.163 4.008,-0.348 7.642,-0.987 12.031,-6.013 6.579,-9.512 -1.442,-0.907 -2.913,-1.121 -4.442,-1.121 -1.356,0 -2.759,0.173 -4.223,0.173 -0.606,0 -1.218,-0.032 -1.849,-0.118 -5.787,-0.939 -6.964,-3.335 -5.595,-7.16 4.8,-1.357 9.491,-3.072 14.044,-5.123 l 0.248,-0.118 c 2.043,-1.003 2.942,-1.347 3.336,-1.453 0.604,0.248 1.951,1.335 2.462,1.849 2.522,2.929 4.674,5.414 6.79,7.488 -0.541,2.039 -1.591,5.031 -1.591,7.539 -0.002,3.417 7.314,4.285 7.319,7.384 z m 34.322,7.42 c -0.583,0 -1.206,-0.051 -1.854,-0.174 0.394,1.148 2.901,1.994 5.273,1.994 0.797,0 1.581,-0.096 2.257,-0.305 -0.561,1.804 -3.012,3.415 -5.223,3.415 l -0.53,-0.033 c -1.494,-0.193 -4.316,-1.105 -7.19,-1.105 l -0.572,0.012 0.02,0.016 c 0.347,0.808 1.09,2.588 -0.721,4.125 -0.637,-1.944 -0.941,-2.788 -2.054,-3.486 -0.874,0.439 -1.578,1.153 -1.998,2.038 -0.208,0.418 -0.161,0.734 -0.065,0.959 l 0.479,0.901 c 0.268,0.529 -0.144,1.375 -0.206,1.532 -0.439,0.919 -1.496,1.296 -2.608,1.296 l -1.056,-0.106 c -0.572,0.354 -1.565,0.529 -2.568,0.529 -1.408,0 -2.829,-0.366 -3.116,-1.212 1.246,0 2.51,-0.016 3.525,-0.484 l -0.316,-0.534 c -0.335,-0.732 -0.517,-1.528 0.066,-2.237 l 0.452,-0.169 0.39,0.039 0.522,0.045 c 2.584,0 1.592,-2.813 -0.729,-2.813 l -0.922,0.142 c -0.941,0.429 -1.529,1.303 -2.741,1.505 l -0.144,0.012 -0.82,-0.366 -0.12,-0.198 c -1.009,0.146 -3.099,0.169 -3.914,0.474 0.06,-0.963 1.826,-3.877 3.462,-3.889 0.175,-0.551 0.479,-0.962 0.952,-1.069 l 0.138,-0.011 0.637,0.314 c 0.316,0.365 0.778,0.559 1.257,0.541 1.256,0 2.676,-1.133 2.088,-2.406 l -0.57,-0.89 c -0.923,-0.885 -3.307,-0.366 -2.453,-2.503 -0.81,-0.394 -1.685,-0.603 -2.584,-0.619 -0.693,0 -1.426,0.135 -2.349,0.366 0.461,-0.812 2.85,-2.513 4.921,-2.513 0.565,0 1.113,0.13 1.591,0.439 0.439,-0.484 1.045,-0.777 1.696,-0.823 1.375,0 1.541,1.517 2.211,2.53 0.324,0.501 1.646,2.518 3.248,2.518 4.391,0 7.647,-6.028 6.053,-10.085 -1.264,-3.189 -4.402,-3.64 -7.887,-3.64 -1.387,0 -2.833,0.067 -4.236,0.067 -1.17,0 -2.309,-0.045 -3.365,-0.231 -11.563,-0.896 -15.261,-4.93 -23.805,-14.835 -0.11,-0.125 -2.562,-2.446 -3.79,-2.446 -0.865,0 -3.469,1.308 -4.433,1.78 -6.501,3.009 -16.627,6.21 -19.825,6.21 2.814,-2.119 5.285,-3.865 5.141,-7.061 -3.307,4.671 -10.24,8.762 -14.771,9.225 0.617,-1.466 1.673,-2.029 2.735,-5.05 l -0.093,-0.022 c -0.985,0 -8.192,5.128 -13.433,5.128 -0.414,0 -0.814,-0.034 -1.2,-0.101 0,0.969 2.203,3.347 5.164,3.347 h 0.033 c -1.194,2.727 -5.589,5.128 -9.888,5.128 -1.403,0 -2.798,-0.26 -4.069,-0.841 2.46,2.221 4.674,2.908 6.723,2.908 0.876,0 1.721,-0.118 2.544,-0.31 -2.023,3.465 -8.024,5.335 -12.971,5.335 -2.518,0 -4.77,-0.484 -6.074,-1.504 -0.484,1.342 4.373,3.302 7.184,3.302 l 0.69,-0.045 c -1.615,1.498 -6.823,4.204 -11.655,4.204 -1.544,0 -3.057,-0.271 -4.389,-0.959 -1.062,0 -4.928,3.573 -4.928,4.069 -0.538,0.98 0.265,2.276 -0.259,3.746 -0.461,0.907 -3.307,3.174 -3.924,3.324 1.327,-2.19 0.577,-4.057 -0.172,-4.327 -0.643,-0.294 -1.327,-0.462 -2.032,-0.496 -2.608,0 -2.164,3.545 -3.924,4.818 l -0.826,0.168 c -0.715,-0.043 -1.4,-0.271 -1.989,-0.675 l -0.248,0.372 c -0.473,0.45 -1.767,0.642 -2.983,0.642 -0.964,0 -1.883,-0.113 -2.319,-0.327 1.431,-0.439 2.479,-1.352 3.471,-2.592 -0.355,-0.479 -0.569,-0.901 -0.569,-1.172 0,-0.327 0.253,-1.15 0.916,-1.15 l 0.665,0.228 0.611,0.394 0.27,0.027 0.375,-0.039 c 0.964,-0.241 0.964,-1.003 0.964,-1.465 0,-1.206 -0.347,-2.124 -1.666,-2.124 -0.366,0.006 -0.715,0.056 -1.062,0.152 -0.474,0.214 -0.521,0.936 -1.37,1.064 l -0.419,0.073 -0.4,-0.146 c -0.349,-0.366 -0.628,-0.789 -0.816,-1.264 l -0.122,0.013 h -0.054 c -0.456,-0.12 -0.915,-0.192 -1.389,-0.204 -0.929,0 -1.836,0.35 -3.445,1.219 0.461,-2.092 3.203,-3.416 4.563,-3.473 0.04,-0.889 0.288,-1.623 0.728,-1.825 l 0.519,-0.089 c 1.11,0 1.689,1.137 2.757,1.137 l 0.516,-0.079 c 1.13,-0.484 1.13,-3.505 0,-3.995 l -0.434,-0.096 c -0.71,0 -1.586,0.637 -2.366,0.637 l -0.744,-0.271 -0.104,-0.749 0.278,-0.727 c -0.503,-0.085 -1.369,-0.333 -2.448,-0.333 -0.547,0 -1.096,0.073 -1.626,0.203 1.302,-2.315 3.691,-2.388 5.638,-2.411 0.442,-0.485 0.893,-0.8 1.268,-0.8 1.436,0 1.634,2.614 3.428,3.995 0.276,0.219 1.927,1.121 2.423,1.346 1.24,0.553 2.451,0.767 3.612,0.767 2.136,0 4.097,-0.71 5.638,-1.269 9.855,-4.062 6.189,-9.894 9.449,-11.433 5.297,-2.231 8.136,-11.658 9.249,-16.329 1.018,-0.196 1.877,-0.507 2.587,-0.839 0.657,2.277 1.614,3.972 2.913,5.167 0.347,0.316 0.809,0.484 1.277,0.484 l 0.812,-0.168 c 0.681,-0.294 1.084,-1.003 0.982,-1.735 -0.109,-0.698 -0.202,-1.398 -0.284,-2.097 0.964,1.094 2.217,1.77 3.7,1.961 l 0.253,0.011 c 0.583,0.012 1.138,-0.259 1.487,-0.721 0.389,-0.507 0.428,-1.194 0.104,-1.747 -0.299,-0.507 -0.575,-1.037 -0.826,-1.566 0.972,0.259 1.998,0.259 2.961,-0.012 0.6,-0.141 1.084,-0.596 1.271,-1.183 0.166,-0.58 -0.012,-1.205 -0.463,-1.605 -1.563,-1.459 -2.124,-3.216 -2.211,-5.171 0.753,1.212 1.733,2.21 3.572,3.59 0.33,0.241 0.728,0.374 1.138,0.374 l 1.009,-0.29 c 0.657,-0.404 0.958,-1.152 0.733,-1.857 -0.761,-2.39 -0.547,-4.129 -0.076,-6.035 0.4,0.645 0.901,1.239 1.552,1.758 0.33,0.259 0.752,0.407 1.183,0.407 l 0.318,-0.029 c 0.519,-0.081 0.975,-0.382 1.251,-0.831 1.237,-2.021 1.715,-4.222 1.806,-6.406 1.248,1.212 2.538,1.789 3.716,2.135 l 0.549,0.087 c 0.716,0 1.366,-0.381 1.713,-1.011 1.502,2.921 2.736,5.989 4.409,5.989 l 0.214,-0.018 c 7.038,-1.534 12.637,-2.482 20.285,-3.969 2.192,-0.479 5.5,-1.746 7.692,-2.25 3.021,0 6.325,2.482 7.882,4.771 0.426,0.64 1.795,3.094 2.309,3.716 1.904,2.336 4.149,4.553 6.715,6.148 2.198,1.538 4.384,3.509 5.452,6.017 1.116,1.669 1.212,3.714 2.119,5.687 0.461,1.02 1.62,2.721 2.919,3.368 1.171,0.582 2.278,0.784 3.324,0.784 2.989,0 5.434,-1.764 7.328,-1.764 0.6,-0.012 1.183,0.214 1.614,0.632 l 0.439,0.613 0.381,0.626 c 0.479,0.298 0.854,0.941 0.854,0.941 1.108,0.259 2.032,0.404 2.89,0.404 2.077,0 3.788,-0.854 6.877,-3.088 -0.337,3.161 -0.98,8.341 -9.243,9.096 l -0.322,-0.046 c 0.387,0.958 1.195,1.595 2.71,1.595 1.501,0 3.689,-0.614 6.854,-2.151 -1.048,2.67 -4.988,7.729 -9.001,7.729 l -0.766,-0.056 c 0.308,1.144 2.241,1.667 4.472,1.667 1.601,0 3.347,-0.271 4.772,-0.76 -1.932,2.64 -4.685,5.813 -9.051,5.813"
   id="path32"
   inkscape:connector-curvature="0"
   style="fill:#231f20" />
	<path
   d="m 195.576,411.896 -7.438,-2.913 3.192,-7.33 -7.317,3.195 -2.919,-7.438 -2.918,7.444 -7.316,-3.202 3.195,7.33 -7.443,2.913 7.443,2.918 -3.195,7.328 7.316,-3.195 2.918,7.444 2.919,-7.444 7.317,3.195 -3.192,-7.328 7.438,-2.917 m 0,165.792 -7.438,-2.919 3.192,-7.324 -7.317,3.194 -2.919,-7.444 -2.918,7.444 -7.316,-3.194 3.195,7.324 -7.443,2.919 7.443,2.918 -3.195,7.326 7.316,-3.201 2.918,7.449 2.919,-7.449 7.317,3.201 -3.192,-7.326 7.438,-2.918 m -90.483,-80.299 -7.442,-2.913 3.2,-7.329 -7.328,3.204 -2.913,-7.444 -2.918,7.444 -7.328,-3.204 3.208,7.329 -7.443,2.913 7.443,2.924 -3.208,7.336 7.328,-3.211 2.918,7.449 2.913,-7.449 7.328,3.211 -3.2,-7.336 7.442,-2.924 m 185.658,0 -7.444,-2.913 3.198,-7.329 -7.323,3.204 -2.913,-7.444 -2.921,7.444 -7.316,-3.204 3.191,7.329 -7.438,2.913 7.443,2.924 -3.196,7.336 7.316,-3.211 2.921,7.449 2.913,-7.449 7.328,3.211 -3.196,-7.336 7.437,-2.924"
   id="path34"
   inkscape:connector-curvature="0"
   style="fill:#ffffff" />
	<path
   d="m 503.751,470.355 c -0.219,44.787 -22.513,67.314 -63.398,67.314 -40.458,0 -64.063,-18.166 -64.063,-59.883 v -42.372 c 0,-23.595 -2.62,-42.827 -3.485,-52.87 4.8,0.661 12.676,1.095 17.262,1.095 4.601,0 9.406,-0.434 13.779,-1.095 -2.181,20.771 -2.833,48.5 -2.833,77.327 0,41.5 7.635,65.099 46.107,65.099 41.562,0 42.641,-41.28 42.641,-75.362 0,-30.814 -0.225,-52.645 -1.534,-67.063 3.282,0.661 6.783,1.095 10.069,1.095 3.046,0 5.886,-0.434 8.733,-1.095 -1.533,16.594 -3.057,53.081 -3.278,87.81 m 142.433,-13.66 c -0.438,23.333 -0.225,58.898 0,79.725 -1.701,-0.439 -3.453,-0.666 -5.211,-0.666 -1.526,0 -3.691,0.215 -4.998,0.666 -31.712,-37.415 -67.599,-76.012 -103.036,-113.539 -0.45,12.222 -0.664,27.909 -0.664,47.551 0,26.85 0.868,56.083 1.753,64.426 -2.926,-0.691 -5.912,-1.064 -8.92,-1.121 -3.043,0 -6.085,0.452 -9.15,1.121 1.526,-8.343 4.586,-64.426 4.586,-101.065 0,-23.575 -0.44,-40.792 -0.868,-50.833 1.51,0.22 4.125,0.434 5.657,0.434 1.719,0 4.118,-0.214 5.844,-0.434 33.487,36.651 73.301,80.063 102.85,110.828 0,-36.867 0,-87.7 -1.746,-109.513 2.828,0.654 5.864,1.079 8.693,1.079 2.823,0 5.427,-0.424 8.276,-1.079 -1.313,21.153 -2.851,53.657 -3.066,72.42 m 55.277,81.786 c -19.041,0 -38.698,-9.184 -48.099,-15.991 3.702,-3.021 5.234,-3.921 9.4,-9.398 3.059,-4.158 5.025,-10.938 5.025,-10.938 3.922,11.586 15.737,22.974 36.957,22.974 21.197,0 36.084,-15.975 36.084,-30.85 0,-36.777 -80.479,-19.935 -80.479,-70.49 0,-27.373 24.037,-42.474 55.976,-42.474 17.062,0 31.294,5.377 41.353,12.032 -4.608,3.733 -5.257,3.945 -8.108,8.112 -2.176,3.282 -4.8,10.299 -4.8,10.299 -4.17,-10.299 -13.141,-19.715 -30.181,-19.715 -17.275,0 -29.536,10.725 -29.536,24.076 0,36.559 83.55,21.891 83.342,69.414 -0.214,37.42 -26.929,52.949 -66.934,52.949 m 220.129,-3.419 c -3.061,-0.418 -6.125,-1.089 -8.977,-1.089 -3.043,0 -6.108,0.671 -9.162,1.089 -10.503,-38.226 -22.527,-76.672 -35.858,-116.207 h -0.439 c -8.086,24.914 -27.525,80.392 -38.26,116.207 -3.054,-0.418 -5.898,-1.089 -9.173,-1.089 -2.84,0 -6.119,0.671 -8.971,1.089 -6.119,-23.57 -15.084,-58.088 -26.461,-95.239 -3.492,-11.794 -16.374,-47.394 -19.89,-55.477 4.818,0.656 12.024,1.083 16.622,1.083 4.587,0 9.173,-0.428 13.771,-1.083 9.625,40.839 19.439,76.894 31.927,119.939 h 0.428 c 9.844,-30.385 32.591,-98.534 38.034,-119.939 2.845,0.656 5.686,1.083 8.732,1.083 2.84,0 5.703,-0.428 8.554,-1.083 5.017,21.62 29.295,94.164 36.71,119.939 h 0.434 c 8.532,-28.193 30.395,-101.813 34.315,-119.939 2.638,0.656 5.489,1.083 8.104,1.083 2.829,0 5.465,-0.428 8.519,-1.083 -6.986,18.779 -38.688,115.11 -48.959,150.716 m -397.992,41.959 c -1.358,-0.839 -2.795,-1.532 -4.289,-2.073 -1.335,-0.496 -2.631,-1.081 -3.88,-1.746 -1.05,-0.564 -1.983,-1.308 -2.764,-2.208 -0.639,-0.767 -0.963,-1.86 -0.963,-3.269 0,-0.812 0.138,-1.577 0.423,-2.276 0.248,-0.654 0.639,-1.252 1.146,-1.741 0.517,-0.491 1.121,-0.88 1.784,-1.132 1.293,-0.525 3.191,-0.537 4.293,-0.023 0.575,0.294 1.082,0.648 1.512,1.071 0.416,0.405 0.755,0.866 0.991,1.328 0.271,0.563 0.496,1.071 0.659,1.544 l 0.299,0.868 h 2.614 l 0.208,-1.036 c 0.204,-1.025 0.411,-1.86 0.613,-2.536 0.193,-0.603 0.43,-1.193 0.712,-1.764 l 0.484,-0.919 -0.813,-0.664 c -1.149,-0.957 -2.474,-1.701 -3.893,-2.186 -2.813,-0.959 -7.08,-0.959 -10.126,0.146 -1.513,0.53 -2.902,1.342 -4.097,2.406 -1.155,1.043 -2.055,2.294 -2.658,3.735 -0.616,1.499 -0.926,3.1 -0.907,4.717 0,2.424 0.495,4.411 1.469,5.889 0.93,1.431 2.114,2.625 3.503,3.55 1.327,0.873 2.783,1.616 4.305,2.196 1.392,0.541 2.714,1.128 3.907,1.765 1.116,0.587 2.018,1.296 2.761,2.174 0.632,0.755 0.959,1.821 0.959,3.201 0,0.936 -0.158,1.849 -0.463,2.688 -0.271,0.789 -0.71,1.498 -1.268,2.112 -0.557,0.603 -1.234,1.075 -1.989,1.392 -1.559,0.7 -3.732,0.682 -5.338,0.084 -1.448,-0.534 -2.699,-1.487 -3.606,-2.742 -0.396,-0.553 -0.738,-1.145 -1.021,-1.781 l -0.329,-0.777 h -2.665 l -0.116,1.155 c -0.081,0.839 -0.185,1.684 -0.324,2.518 -0.143,0.71 -0.352,1.409 -0.611,2.073 l -0.328,0.857 0.709,0.587 c 1.022,0.844 2.251,1.587 3.764,2.265 1.559,0.676 3.491,1.014 5.908,1.014 2.215,0 4.235,-0.338 5.998,-0.991 1.798,-0.671 3.347,-1.64 4.598,-2.886 1.239,-1.25 2.21,-2.717 2.862,-4.395 0.648,-1.679 0.98,-3.471 0.969,-5.273 0,-2.283 -0.495,-4.159 -1.492,-5.591 -0.918,-1.34 -2.125,-2.49 -3.521,-3.348 m 60.65,-18.695 -1.003,-0.214 -0.428,0.937 c -1.499,3.324 -3.117,6.597 -4.846,9.803 -0.892,1.657 -1.78,3.263 -2.672,4.836 -0.473,0.851 -0.946,1.656 -1.398,2.434 -1.464,-2.649 -2.867,-5.219 -4.214,-7.708 -1.668,-3.111 -3.302,-6.244 -4.891,-9.41 l -0.411,-0.822 -2.35,0.315 c -0.88,0.089 -1.769,0.089 -2.648,0 l -4.147,-0.575 1.409,2.321 1.556,2.598 9.894,17.063 1.398,2.429 c 0,2.855 -0.012,5.589 -0.057,8.204 -0.029,2.67 -0.146,4.957 -0.355,6.835 l -0.18,1.571 1.571,-0.146 c 1.567,-0.147 3.448,-0.147 5.026,0 l 1.532,0.146 -0.141,-1.551 c -0.078,-0.996 -0.142,-1.999 -0.186,-3.002 -0.151,-4.231 -0.237,-8.475 -0.237,-12.701 0.547,-1.071 1.161,-2.242 1.882,-3.522 2.006,-3.593 4.103,-7.126 6.299,-10.614 1.359,-2.176 2.886,-4.604 4.611,-7.285 l 1.645,-2.576 -2.997,0.614 c -1.951,0.418 -1.696,0.429 -3.663,0 m 67.493,5.294 v 0 c -1.669,-1.769 -3.72,-3.121 -5.996,-3.956 -3.369,-1.273 -8.047,-1.51 -12.677,-1.212 -2.633,0.187 -5.32,0.152 -7.945,0.063 -1.348,-0.063 -2.694,-0.125 -4.052,-0.202 l -1.403,-0.075 0.349,8.56 c 0.091,2.316 0.137,4.688 0.137,7.094 v 9.507 c 0,2.399 -0.046,4.777 -0.137,7.11 -0.084,2.367 -0.185,4.678 -0.291,6.953 l -0.063,1.431 1.426,-0.089 c 1.188,-0.068 2.367,-0.118 3.517,-0.118 h 3.596 c 1.205,0 2.388,0.027 3.561,0.062 3.347,0.096 6.852,0.096 10.604,-0.959 2.458,-0.687 4.733,-1.869 6.79,-3.521 2.046,-1.662 3.758,-3.854 5.065,-6.53 1.319,-2.684 1.989,-6.008 1.989,-9.873 0,-2.94 -0.354,-5.64 -1.043,-8.013 -0.654,-2.304 -1.828,-4.44 -3.427,-6.232 z m -4.733,22.662 c -0.908,2.107 -2.079,3.788 -3.471,4.971 -1.364,1.171 -2.999,2.006 -4.757,2.424 -3.177,0.787 -6.451,0.777 -9.471,0.557 -0.637,-0.039 -1.28,-0.113 -1.91,-0.202 -0.182,-3.54 -0.277,-7.083 -0.277,-10.633 v -9.5 c 0,-3.427 0.085,-6.854 0.26,-10.278 0.807,-0.096 1.685,-0.168 2.643,-0.247 3.179,-0.26 7.155,-0.271 10.199,0.484 1.679,0.411 3.077,1.127 4.26,2.186 1.171,1.065 2.124,2.53 2.822,4.39 0.711,1.91 1.065,4.418 1.065,7.443 0,3.441 -0.45,6.276 -1.363,8.405 m 72.936,-27.687 c -0.406,0 -0.902,-0.079 -1.5,-0.238 l -1.696,-0.438 0.097,1.764 c 0.169,3.229 0.281,6.654 0.344,10.294 0.051,3.657 0.078,7.416 0.078,11.281 v 4.293 c -1.087,-1.155 -2.259,-2.434 -3.532,-3.809 l -6.976,-7.675 c -2.451,-2.703 -4.902,-5.448 -7.404,-8.227 l -7.381,-8.238 h -2.785 l 0.068,1.354 c 0.073,1.239 0.118,3.115 0.141,5.623 0.012,2.542 0.029,5.578 0.029,9.106 0,1.194 -0.029,2.574 -0.063,4.102 l -0.13,4.739 c -0.056,1.616 -0.13,3.216 -0.214,4.828 l -0.236,4.502 c -0.08,1.369 -0.157,2.542 -0.248,3.521 -0.046,0.637 -0.118,1.278 -0.214,1.915 l -0.327,1.737 1.734,-0.221 c 1.089,-0.141 2.47,-0.152 3.552,0 l 1.655,0.221 -0.214,-1.669 c -0.057,-0.519 -0.091,-1.048 -0.102,-1.566 l -0.214,-6.469 c -0.039,-1.29 -0.057,-2.547 -0.089,-3.798 l -0.046,-3.584 c -0.034,-3.295 -0.034,-6.592 0.022,-9.894 l 0.023,-0.957 c 3.943,4.315 7.876,8.643 11.804,12.97 4.452,4.93 8.829,9.935 13.1,15.017 l 0.396,0.462 h 2.636 v -3.115 c 0,-0.88 -0.005,-1.933 -0.032,-3.134 l -0.091,-7.979 c -0.039,-1.357 -0.039,-2.658 -0.039,-3.911 v -3.313 c 0,-1.054 0.039,-2.456 0.107,-4.198 0.066,-1.763 0.146,-3.555 0.236,-5.402 0.141,-2.932 0.31,-5.86 0.507,-8.784 l 0.157,-1.81 -1.769,0.461 c -0.45,0.137 -0.918,0.216 -1.384,0.239 m 58.871,36.123 0.552,-2.039 -2.068,0.438 c -0.806,0.175 -1.763,0.31 -2.863,0.396 -2.528,0.185 -5.06,0.287 -7.59,0.298 h -2.524 c -0.045,-2.333 -0.066,-4.666 -0.055,-6.999 v -5.471 c 0,-0.484 0,-0.885 0.01,-1.239 l 1.33,0.017 3.494,0.063 c 1.211,0.017 2.429,0.062 3.635,0.135 1.216,0.068 2.265,0.152 3.178,0.266 l 1.74,0.214 -0.32,-1.735 c -0.191,-0.947 -0.191,-1.928 0,-2.885 l 0.309,-1.669 -1.695,0.147 c -0.771,0.078 -1.595,0.135 -2.456,0.187 l -2.852,0.168 c -1.03,0.051 -2.17,0.107 -3.409,0.142 -0.896,0.022 -1.864,0.033 -2.924,0.045 l -0.018,-1.821 c -0.021,-1.392 -0.033,-2.776 -0.033,-4.175 0,-1.341 0.021,-2.535 0.085,-3.583 l 0.096,-2.143 c 2.208,0.029 4.429,0.119 6.637,0.267 l 2.986,0.22 c 0.959,0.078 2.006,0.157 3.167,0.23 l 1.656,0.106 -0.321,-1.645 c -0.187,-0.925 -0.187,-1.882 0,-2.806 l 0.321,-1.607 -6.395,0.271 c -3.115,0.107 -6.34,0.107 -9.484,0 -1.599,-0.062 -3.188,-0.118 -4.8,-0.195 l -1.408,-0.063 0.073,1.403 c 0.106,2.355 0.197,4.699 0.286,7.06 0.091,2.34 0.137,4.712 0.137,7.129 v 9.5 c 0,2.411 -0.046,4.772 -0.13,7.095 -0.096,2.326 -0.187,4.682 -0.293,7.042 l -0.073,1.398 1.408,-0.068 c 1.634,-0.073 3.235,-0.118 4.822,-0.118 h 9.737 c 1.578,0 3.162,0.045 4.756,0.118 l 1.781,0.091 -0.491,-1.726 c -0.096,-0.354 -0.13,-0.721 -0.118,-1.087 l 0.022,-0.789 0.102,-0.583 m 59.5,-36.372 c -1.96,0.406 -1.701,0.418 -3.661,0 l -1.009,-0.214 -0.423,0.937 c -1.511,3.324 -3.121,6.597 -4.851,9.803 -0.885,1.657 -1.781,3.263 -2.665,4.836 -0.479,0.851 -0.959,1.656 -1.41,2.422 -1.464,-2.638 -2.862,-5.207 -4.197,-7.696 -1.679,-3.111 -3.307,-6.244 -4.896,-9.41 l -0.43,-0.822 -2.333,0.315 c -0.878,0.089 -1.77,0.089 -2.653,0 l -4.152,-0.575 1.407,2.321 c 0.368,0.592 0.88,1.453 1.551,2.608 l 9.912,17.052 1.396,2.439 c 0,2.845 -0.023,5.578 -0.051,8.193 -0.027,2.646 -0.157,4.935 -0.372,6.835 l -0.174,1.571 1.576,-0.146 c 1.566,-0.147 3.449,-0.147 5.021,0 l 1.539,0.146 -0.141,-1.551 c -0.084,-0.996 -0.146,-1.999 -0.187,-3.002 -0.045,-1.273 -0.089,-2.637 -0.123,-4.124 -0.045,-1.487 -0.074,-2.997 -0.086,-4.543 -0.021,-1.34 -0.032,-2.692 -0.032,-4.034 0.541,-1.071 1.167,-2.242 1.87,-3.522 2.005,-3.593 4.108,-7.126 6.305,-10.614 1.354,-2.176 2.886,-4.604 4.616,-7.285 l 1.644,-2.576 -2.992,0.614"
   id="path36"
   inkscape:connector-curvature="0"
   style="fill:#231f20" />
</g>
</svg>