<?xml version="1.0" encoding="UTF-8" standalone="no"?>
<!DOCTYPE svg PUBLIC "-//W3C//DTD SVG 1.1//EN" "http://www.w3.org/Graphics/SVG/1.1/DTD/svg11.dtd">
<svg width="100%" height="100%" viewBox="0 0 84 64" version="1.1" xmlns="http://www.w3.org/2000/svg" xmlns:xlink="http://www.w3.org/1999/xlink" xml:space="preserve" xmlns:serif="http://www.serif.com/" style="fill-rule:evenodd;clip-rule:evenodd;stroke-linecap:round;stroke-miterlimit:1;">
    <g id="Artboard1" transform="matrix(1,0,0,1,-5.81931,-5.79737)">
        <rect x="5.819" y="5.797" width="83.361" height="63.405" style="fill:none;"/>
        <clipPath id="_clip1">
            <rect x="5.819" y="5.797" width="83.361" height="63.405"/>
        </clipPath>
        <g clip-path="url(#_clip1)">
            <g transform="matrix(1.05583,0,0,1.07212,-3.21659,-3.14408)">
                <path d="M86.975,11.772C86.975,10.169 85.654,8.868 84.026,8.868L12.043,8.868C10.415,8.868 9.094,10.169 9.094,11.772L9.094,64.048C9.094,65.651 10.415,66.953 12.043,66.953L84.026,66.953C85.654,66.953 86.975,65.651 86.975,64.048L86.975,11.772Z" style="fill:rgb(245,245,245);stroke:rgb(32,45,73);stroke-width:0.75px;"/>
            </g>
            <g transform="matrix(1,0,0,1,0.191845,-10.1034)">
                <g transform="matrix(0.913997,0,0,0.924128,5.61132,5.71702)">
                    <rect x="23.764" y="53.615" width="43.713" height="20.373" style="fill:white;stroke:rgb(32,45,73);stroke-width:0.87px;stroke-linejoin:round;"/>
                </g>
                <g transform="matrix(0.596036,0,0,0.596036,18.9595,6.50662)">
                    <g>
                        <g transform="matrix(1,0,0,1,-0.005,10.2231)">
                            <rect x="14.051" y="13.851" width="67.032" height="47.755" style="fill:white;"/>
                        </g>
                        <g>
                            <g>
                                <g transform="matrix(1,0,0,1,-0.005,10.2231)">
                                    <path d="M23.375,47.495L42.713,35.123L56.124,49.572L71.487,25.366" style="fill:none;stroke:rgb(32,45,73);stroke-width:2.01px;"/>
                                </g>
                                <g transform="matrix(1,0,0,1,46.9351,-13.3288)">
                                    <circle cx="24.547" cy="49.805" r="4.855" style="fill:white;stroke:rgb(32,45,73);stroke-width:2.01px;"/>
                                </g>
                                <g transform="matrix(1,0,0,1,31.2863,8.98453)">
                                    <circle cx="24.547" cy="49.805" r="4.855" style="fill:white;stroke:rgb(32,45,73);stroke-width:2.01px;"/>
                                </g>
                                <g transform="matrix(1,0,0,1,18.1595,-4.33079)">
                                    <circle cx="24.547" cy="49.805" r="4.855" style="fill:white;stroke:rgb(32,45,73);stroke-width:2.01px;"/>
                                </g>
                                <g transform="matrix(1,0,0,1,-1.17722,7.91803)">
                                    <circle cx="24.547" cy="49.805" r="4.855" style="fill:white;stroke:rgb(32,45,73);stroke-width:2.01px;"/>
                                </g>
                            </g>
                        </g>
                        <g transform="matrix(1,0,0,1,-0.005,10.2231)">
                            <rect x="14.051" y="13.851" width="67.032" height="47.755" style="fill:none;stroke:rgb(32,45,73);stroke-width:1.34px;stroke-linejoin:round;"/>
                        </g>
                    </g>
                </g>
                <g transform="matrix(1,0,0,1,-0.191845,7.41999)">
                    <g transform="matrix(1,0,0,1,-0.554201,-3.72085)">
                        <circle cx="48.054" cy="48.614" r="11.365" style="fill:rgb(32,45,73);stroke:rgb(32,45,73);stroke-width:1.5px;stroke-linejoin:round;"/>
                    </g>
                    <g transform="matrix(4.86506e-18,-0.0786406,0.0786406,4.86506e-18,9.58051,72.1105)">
                        <g transform="matrix(1.00511,-0.00469684,0.00472088,0.999989,-5.75206,64.7249)">
                            <path d="M237.717,419.279L458.454,420.316" style="fill:none;stroke:white;stroke-width:15.22px;stroke-linejoin:round;stroke-miterlimit:1.5;"/>
                        </g>
                        <path d="M457.028,482.883L393.021,418.835" style="fill:none;stroke:white;stroke-width:15.26px;stroke-linejoin:round;stroke-miterlimit:1.5;"/>
                        <path d="M457.028,482.883L393.021,545.539" style="fill:none;stroke:white;stroke-width:15.26px;stroke-linejoin:round;stroke-miterlimit:1.5;"/>
                    </g>
                </g>
            </g>
            <g transform="matrix(0.229683,0,0,0.29311,27.3478,38.5359)">
                <g transform="matrix(1,-8.67362e-19,-8.67362e-19,1,-3.62354,-23.0524)">
                    <path d="M21,57.4L81.947,57.669" style="fill:none;fill-rule:nonzero;stroke:rgb(32,45,73);stroke-width:4.56px;stroke-miterlimit:10;"/>
                </g>
                <g transform="matrix(1,-8.67362e-19,-8.67362e-19,1,-3.62354,-9.56097)">
                    <path d="M21,57.4L81.947,57.669" style="fill:none;fill-rule:nonzero;stroke:rgb(32,45,73);stroke-width:4.56px;stroke-miterlimit:10;"/>
                </g>
                <g transform="matrix(1,-8.67362e-19,-8.67362e-19,1,-3.62354,3.93043)">
                    <path d="M21,57.4L81.947,57.669" style="fill:none;fill-rule:nonzero;stroke:rgb(32,45,73);stroke-width:4.56px;stroke-miterlimit:10;"/>
                </g>
                <g transform="matrix(1,-8.67362e-19,-8.67362e-19,1,-3.62354,17.4218)">
                    <path d="M21,57.4L81.947,57.669" style="fill:none;fill-rule:nonzero;stroke:rgb(32,45,73);stroke-width:4.56px;stroke-miterlimit:10;"/>
                </g>
            </g>
            <g transform="matrix(0.229683,0,0,0.251644,45.8307,42.5025)">
                <g transform="matrix(1,-1.01029e-18,-8.67362e-19,1.16478,-3.83993,-42.6135)">
                    <path d="M21,57.4L81.947,57.669" style="fill:none;fill-rule:nonzero;stroke:rgb(32,45,73);stroke-width:4.56px;stroke-miterlimit:10;"/>
                </g>
                <g transform="matrix(1,-1.01029e-18,-8.67362e-19,1.16478,-3.83993,-26.899)">
                    <path d="M21,57.4L81.947,57.669" style="fill:none;fill-rule:nonzero;stroke:rgb(32,45,73);stroke-width:4.56px;stroke-miterlimit:10;"/>
                </g>
                <g transform="matrix(1,-1.01029e-18,-8.67362e-19,1.16478,-3.83993,-11.1844)">
                    <path d="M21,57.4L81.947,57.669" style="fill:none;fill-rule:nonzero;stroke:rgb(32,45,73);stroke-width:4.56px;stroke-miterlimit:10;"/>
                </g>
                <g transform="matrix(1,-1.01029e-18,-8.67362e-19,1.16478,-3.83993,4.53016)">
                    <path d="M21,57.4L81.947,57.669" style="fill:none;fill-rule:nonzero;stroke:rgb(32,45,73);stroke-width:4.56px;stroke-miterlimit:10;"/>
                </g>
            </g>
        </g>
    </g>
</svg>
