<?xml version="1.0" encoding="utf-8"?>
<!-- Generator: Adobe Illustrator 26.4.0, SVG Export Plug-In . SVG Version: 6.00 Build 0)  -->
<svg version="1.1"
	 id="svg8" xmlns:rdf="http://www.w3.org/1999/02/22-rdf-syntax-ns#" xmlns:svg="http://www.w3.org/2000/svg" xmlns:dc="http://purl.org/dc/elements/1.1/" xmlns:cc="http://creativecommons.org/ns#" xmlns:sodipodi="http://sodipodi.sourceforge.net/DTD/sodipodi-0.dtd" xmlns:inkscape="http://www.inkscape.org/namespaces/inkscape" inkscape:export-filename="/home/varvara/development/opendatafit_wiki.png" inkscape:export-xdpi="5.7600002" inkscape:export-ydpi="5.7600002" inkscape:version="1.0.2 (e86c870879, 2021-01-15, custom)" sodipodi:docname="opendatafit.svg"
	 xmlns="http://www.w3.org/2000/svg" xmlns:xlink="http://www.w3.org/1999/xlink" x="0px" y="0px" viewBox="0 0 800 800"
	 style="enable-background:new 0 0 800 800;" xml:space="preserve">
<style type="text/css">
	.st0{display:none;}
	.st1{display:inline;fill:#212D49;}
	.st2{fill:none;stroke:#212D49;stroke-width:8;stroke-linecap:square;stroke-miterlimit:15.1181;}
	.st3{fill:none;}
	
		.st4{fill-rule:evenodd;clip-rule:evenodd;fill:#212D49;stroke:#212D49;stroke-width:5.25;stroke-linejoin:round;stroke-miterlimit:33.6;}
	
		.st5{fill-rule:evenodd;clip-rule:evenodd;fill:#111111;stroke:#214D49;stroke-width:2.3622;stroke-linejoin:round;stroke-miterlimit:15.1181;}
	.st6{fill:#DB564A;}
</style>
<defs>
	
		<inkscape:path-effect  effect="powerstroke" end_linecap_type="square" id="path-effect2366" interpolator_beta="0.86585366" interpolator_type="Linear" is_visible="true" linejoin_type="spiro" lpeversion="1" miter_limit="4" offset_points="0.005253674,2.0982103 | 2.014631,11.302312 | 2.6811128,9.1240714" scale_width="1" sort_points="true" start_linecap_type="round">
		</inkscape:path-effect>
</defs>
<sodipodi:namedview  bordercolor="#666666" borderopacity="1.0" id="base" inkscape:current-layer="layer3" inkscape:cx="-1511.394" inkscape:cy="691.00812" inkscape:document-rotation="0" inkscape:document-units="px" inkscape:guide-bbox="true" inkscape:pagecheckerboard="true" inkscape:pageopacity="0" inkscape:pageshadow="2" inkscape:snap-bbox="true" inkscape:snap-page="true" inkscape:window-height="1045" inkscape:window-maximized="0" inkscape:window-width="1920" inkscape:window-x="0" inkscape:window-y="35" inkscape:zoom="0.175" pagecolor="#212d49" showgrid="false" showguides="false" units="px">
	
		<sodipodi:guide  id="guide10" inkscape:color="rgb(0,0,255)" inkscape:label="" inkscape:locked="false" orientation="0,1" position="185.20833,26.458335">
		</sodipodi:guide>
	
		<sodipodi:guide  id="guide12" inkscape:color="rgb(0,0,255)" inkscape:label="" inkscape:locked="false" orientation="-1,0" position="26.458333,202.63802">
		</sodipodi:guide>
	
		<sodipodi:guide  id="guide14" inkscape:color="rgb(0,0,255)" inkscape:label="" inkscape:locked="false" orientation="0,1" position="132.29167,185.20833">
		</sodipodi:guide>
	
		<sodipodi:guide  id="guide16" inkscape:color="rgb(0,0,255)" inkscape:label="" inkscape:locked="false" orientation="-1,0" position="185.20833,211.66666">
		</sodipodi:guide>
	
		<sodipodi:guide  id="guide2289" inkscape:color="rgb(0,0,255)" inkscape:label="" inkscape:locked="false" orientation="-1,0" position="79.374999,124.73214">
		</sodipodi:guide>
	
		<sodipodi:guide  id="guide2291" inkscape:color="rgb(0,0,255)" inkscape:label="" inkscape:locked="false" orientation="-1,0" position="132.29167,95.250001">
		</sodipodi:guide>
	
		<sodipodi:guide  id="guide2293" inkscape:color="rgb(0,0,255)" inkscape:label="" inkscape:locked="false" orientation="0,1" position="117.17262,132.29167">
		</sodipodi:guide>
	
		<sodipodi:guide  id="guide2295" inkscape:color="rgb(0,0,255)" inkscape:label="" inkscape:locked="false" orientation="0,1" position="118.30654,79.374999">
		</sodipodi:guide>
</sodipodi:namedview>
<g id="layer4" inkscape:groupmode="layer" inkscape:label="bg" class="st0">
	<rect id="rect976" x="0" class="st1" width="800" height="800"/>
</g>
<g id="layer2" inkscape:groupmode="layer" inkscape:label="Grid">
	<g id="g2322">
		<path id="path2298" class="st2" d="M300,100v600"/>
		<path id="path2300" class="st2" d="M500,100v600"/>
		<path id="path2302" class="st2" d="M700,100v600"/>
		<path id="path2304" class="st2" d="M100,100v600"/>
		<path id="path2306" class="st2" d="M100,300h600"/>
		<path id="path2308" class="st2" d="M100,500h600"/>
		<path id="path2310" class="st2" d="M100,100h600"/>
		<path id="path2312" class="st2" d="M100,700h600"/>
	</g>
</g>
<g id="layer1" inkscape:groupmode="layer" inkscape:label="Graph">
	<path class="st3" d=""/>
	<path id="path3516" class="st4" d="M66.1,173.2l33.7-91.8l33.7,91.8C113.7,158.6,86.4,158.7,66.1,173.2z"/>
	<path id="path18" class="st5" d="M100,100"/>
	<path class="st3" d=""/>
	<path id="path3616" class="st4" d="M626.8,666.1l91.8,33.7l-91.8,33.7C641.4,713.7,641.3,686.4,626.8,666.1z"/>
	<path id="path18-7" class="st5" d="M700,700"/>
</g>
<g id="layer3" inkscape:groupmode="layer" inkscape:label="Line">
	
		<path id="path2287" inkscape:original-d="M 41.662526,166.55726 74.383859,94.770404 95.823674,123.8564 130.08988,50.190497 178.83623,140.93708" inkscape:path-effect="#path-effect2366" class="st6" d="
		M164.7,632.8l0.6-1.4l116.5-220.7l46.1,82.7c4,7.2,8.4,14.4,15,19.4c6.6,4.9,15.1,7.3,23.3,6c8.1-1.3,15.5-5.9,21-12
		c5.6-6.1,9.5-13.4,13.4-20.6l2.1-4l78.9-189l12.2-26.3L645.5,549l16.3,30.4l60.8-32.6l-16.3-30.4l-184.2-343
		c-3.4-6.3-6.9-12.6-12.2-17.3c-5.3-4.7-12.3-7.7-19.4-7.5c-7.1,0.2-13.9,3.6-18.9,8.6c-5,5-8.2,11.5-11.2,18l-41.3,88.8L325.3,446
		l-1.7,4.2l72.7-7.3l-95-99.7c-3.2-3.4-6.5-6.8-10.5-9.4c-3.9-2.6-8.6-4.2-13.3-4c-4.7,0.2-9.2,2.3-12.5,5.7
		c-3.3,3.4-5.2,7.8-6.9,12.2l-107.4,277l-0.6,1.4c-1.8,4,0,8.7,3.9,10.5C158.2,638.5,162.9,636.8,164.7,632.8L164.7,632.8z"/>
</g>
</svg>
