<?xml version="1.0" encoding="UTF-8"?>
<svg id="Layer_1" data-name="Layer 1" xmlns="http://www.w3.org/2000/svg" width="111" height="27.89" viewBox="0 0 111 27.89">
  <defs>
    <style>
      .cls-1 {
        fill: #231f20;
      }

      .cls-2 {
        fill: none;
      }

      .cls-3 {
        fill: #4763ae;
      }

      .cls-4 {
        fill: #087982;
      }

      .cls-5 {
        fill: #010101;
      }

      .cls-6 {
        fill: #8469ae;
      }
    </style>
  </defs>
  <g>
    <g>
      <path class="cls-1" d="M43.01,23.75l-1.67-3.24h-2.26v3.24h-1.07v-8.27h3.15c1.72,0,2.81.87,2.81,2.46,0,1.07-.58,1.95-1.56,2.35l1.76,3.46h-1.17ZM41.34,19.46c.87,0,1.51-.53,1.51-1.49,0-1.09-.64-1.44-1.51-1.44h-2.26v2.93h2.26Z"/>
      <path class="cls-1" d="M52.89,15.48v8.27h-.41l-5.48-6.06v6.06h-1.07v-8.27h.43l5.46,6.02v-6.02h1.09Z"/>
      <path class="cls-1" d="M59.77,21.91h-3.54l-.76,1.84h-1.12l3.38-8.27h.53l3.39,8.27h-1.13l-.74-1.84ZM59.34,20.87l-1.3-3.19h-.09l-1.3,3.19h2.69Z"/>
      <path class="cls-1" d="M66.56,15.48h1.07v8.27h-1.07v-8.27Z"/>
      <path class="cls-1" d="M74.9,20.02v3.73h-1.07v-3.71c0-.72-.27-1.25-1.19-1.25s-1.69.47-1.69,1.41v3.56h-1.09v-5.91h.97l.07.73c.41-.48,1.02-.79,1.88-.79,1.54,0,2.13,1.15,2.13,2.23Z"/>
      <path class="cls-1" d="M76.29,22.63l.78-.76c.25.33.63.78,1.46.89.87.11,1.41-.26,1.37-.87-.02-.35-.47-.58-1.06-.7-1.55-.33-2.29-.61-2.35-1.67-.05-.89.72-1.82,2.43-1.74.97.05,1.59.45,2.01.92l-.73.71c-.32-.35-.72-.58-1.25-.64-.93-.09-1.41.34-1.36.73.06.47.78.53,1.71.78.92.24,1.7.63,1.7,1.57,0,1.25-1.09,2.02-2.43,1.95-1.29-.07-1.96-.79-2.28-1.18Z"/>
      <path class="cls-1" d="M85.45,22.75v1h-1.06c-.85,0-1.69-.53-1.69-1.95v-2.94h-1.02v-.91c.82,0,1.09-.4,1.09-1.05v-.77h1v1.77h1.32v.94h-1.32v2.95c0,.64.24.94.77.94h.91Z"/>
      <path class="cls-1" d="M88.21,23.75h-1.07v-4.88h-.7v-1.03h1.77v5.91ZM87,16.16c0-.37.3-.67.67-.67s.67.31.67.67-.3.7-.67.7-.67-.32-.67-.7Z"/>
      <path class="cls-1" d="M93.21,22.75v1h-1.06c-.85,0-1.69-.53-1.69-1.95v-2.94h-1.02v-.91c.82,0,1.09-.4,1.09-1.05v-.77h1v1.77h1.32v.94h-1.32v2.95c0,.64.24.94.77.94h.91Z"/>
      <path class="cls-1" d="M99.57,17.85v5.91h-.96l-.07-.79v-.13c-.34.53-.91.98-1.88.98-1.5,0-2.11-1.15-2.11-2.23v-3.73h1.06v3.63c0,.84.37,1.33,1.18,1.33,1.02,0,1.7-.9,1.7-1.83v-3.13h1.07Z"/>
      <path class="cls-1" d="M104.44,22.75v1h-1.06c-.85,0-1.69-.53-1.69-1.95v-2.94h-1.02v-.91c.82,0,1.09-.4,1.09-1.05v-.77h1v1.77h1.32v.94h-1.32v2.95c0,.64.24.94.77.94h.91Z"/>
      <path class="cls-1" d="M105.24,20.87c-.02-1.93,1.24-3.08,2.93-3.08,1.93,0,3,1.46,2.81,3.31h-4.58c.13,1.17.93,1.67,1.9,1.68.91.01,1.49-.44,1.82-.86l.77.67c-.44.57-1.31,1.24-2.61,1.23-1.76-.01-3.01-1.2-3.04-2.94ZM109.88,20.21c-.02-.97-.78-1.43-1.7-1.43-.79,0-1.59.48-1.76,1.43h3.46Z"/>
    </g>
    <g>
      <path class="cls-1" d="M37.88,8.2V3.8h1.43v4.28c0,1.1.78,1.53,1.54,1.53s1.46-.43,1.46-1.53V3.8h1.42v4.41c0,1.77-1.33,2.74-2.86,2.74-1.75,0-2.99-.96-2.99-2.74Z"/>
      <path class="cls-1" d="M51.75,3.8v7.09h-.74l-4.29-4.35v4.35h-1.43V3.8h.76l4.27,4.32V3.8h1.43Z"/>
      <path class="cls-1" d="M53.74,8.85c.32.24,1,.68,1.99.75.85.06,1.51-.16,1.51-.84,0-1.28-4.16-.48-4.16-3.02,0-1.47,1.56-2.05,2.89-2,1.25.05,2.15.6,2.56,1.02l-.85,1.01c-.21-.22-.84-.76-1.8-.78-.82-.04-1.34.28-1.34.74,0,1.3,4.12.41,4.09,3.04-.01.97-.8,2.16-2.67,2.16-1.09,0-2.23-.33-2.99-1.03l.77-1.05Z"/>
      <path class="cls-1" d="M69.44,3.8l-2.19,7.09h-1.37l-1.55-4.89-1.72,4.89h-1.36l-2.12-7.09h1.48l1.33,4.86,1.75-4.86h1.34l1.55,4.85,1.39-4.85h1.47Z"/>
    </g>
  </g>
  <g>
    <g>
      <line class="cls-5" x1="22.06" y1="19.84" x2="17.56" y2="23"/>
      <path class="cls-6" d="M22.11,20.13l-4.39,3.09s-.1.05-.15.05c-.08,0-.16-.04-.21-.11-.08-.12-.05-.28.06-.36l4.61-3.24"/>
      <line class="cls-5" x1="21.26" y1="17.53" x2="17.82" y2="19.94"/>
      <path class="cls-4" d="M21.39,17.75l-3.42,2.4s-.1.05-.15.05c-.08,0-.16-.04-.21-.11-.08-.12-.05-.28.06-.36l3.46-2.43"/>
      <path class="cls-3" d="M20.16,16.18s-.02.02-.04.04l-1.6,1.12s-.1.05-.15.05c-.08,0-.16-.04-.21-.11-.08-.12-.05-.28.06-.36l1.5-1.05"/>
      <path class="cls-6" d="M8.75,12.77l4.46-3.13c.12-.08.28-.05.36.06.08.12.05.28-.06.36l-4.33,3.04"/>
      <path class="cls-4" d="M7.47,10.75l3.39-2.38c.12-.08.28-.05.36.06.08.12.05.28-.06.36l-3.49,2.45"/>
      <path class="cls-3" d="M7.06,8.34l1.63-1.15c.12-.08.28-.05.36.06.08.12.05.28-.06.36l-1.86,1.31s-.03.02-.05.03"/>
      <path class="cls-2" d="M9.25,3.28c-.55.48-1,1.06-1.35,1.69-.35.63-.59,1.32-.72,2.03-.26,1.41-.11,2.9.46,4.2.29.64.69,1.24,1.22,1.67.54.45,1.17.8,1.83,1.03.66.24,1.37.37,2.08.44.72.06,1.44.07,2.18.07.74,0,1.48,0,2.24.08.75.08,1.52.24,2.22.58.18.09.35.18.51.28.16.11.32.22.47.35.3.25.57.53.8.84.46.62.81,1.31,1.03,2.03.23.73.33,1.49.3,2.25-.04.76-.23,1.52-.57,2.2-.17.34-.37.66-.6.96-.23.3-.49.58-.76.83-.55.51-1.18.92-1.84,1.27-.04.02-.08,0-.1-.03-.02-.04,0-.08.03-.1.63-.37,1.22-.81,1.74-1.32.51-.51.94-1.1,1.23-1.75.3-.65.45-1.36.47-2.07.02-.71-.1-1.42-.33-2.1-.23-.67-.56-1.32-1-1.87-.43-.55-.99-.99-1.62-1.28-.63-.29-1.33-.43-2.05-.49-.71-.06-1.44-.06-2.18-.06-.74,0-1.49,0-2.24-.07-.75-.07-1.51-.22-2.23-.49-.72-.27-1.39-.67-1.98-1.17-.6-.52-1.03-1.19-1.33-1.89-.3-.71-.47-1.46-.52-2.22-.05-.76,0-1.52.16-2.26.17-.74.45-1.45.84-2.09.39-.64.9-1.21,1.49-1.67.03-.03.08-.02.1.01.02.03.02.08,0,.1Z"/>
    </g>
    <path class="cls-5" d="M13.95,0C6.24,0,0,6.24,0,13.95s6.24,13.95,13.95,13.95,13.95-6.24,13.95-13.95S21.65,0,13.95,0ZM22.54,20.83c-.04.76-.23,1.52-.57,2.2-.17.34-.37.66-.6.96-.23.3-.49.58-.76.83-.55.51-1.18.92-1.84,1.27-.04.02-.08,0-.1-.03-.02-.04,0-.08.03-.1.63-.37,1.22-.81,1.74-1.32.51-.51.94-1.1,1.23-1.75.3-.65.45-1.36.47-2.07,0-.23,0-.46-.03-.69l-4.39,3.08s-.1.05-.15.05c-.08,0-.16-.04-.21-.11-.08-.12-.05-.28.06-.36l4.61-3.23h0s0,0,0,0c0,0,0,0,0,0-.05-.28-.13-.56-.22-.83-.11-.33-.25-.65-.41-.96l-3.42,2.4s-.1.05-.15.05c-.08,0-.16-.04-.21-.11-.08-.12-.05-.28.06-.36l3.45-2.42h0s0,0,0,0c-.1-.16-.21-.31-.32-.45-.19-.25-.41-.47-.65-.66-.01.01-.03.03-.04.04l-1.6,1.12s-.1.05-.15.05c-.08,0-.16-.04-.21-.11-.08-.12-.05-.28.06-.36l1.5-1.05s0,0,0,0c-.17-.11-.35-.21-.53-.29-.63-.29-1.33-.43-2.05-.49-.71-.06-1.44-.06-2.18-.06-.74,0-1.49,0-2.24-.07-.75-.07-1.51-.22-2.23-.49-.72-.27-1.39-.67-1.98-1.17-.6-.52-1.03-1.19-1.33-1.89-.3-.71-.47-1.46-.52-2.22-.05-.76,0-1.52.16-2.26.17-.74.45-1.45.84-2.09.39-.64.9-1.21,1.49-1.67.03-.03.08-.02.1.01.02.03.02.08,0,.1-.55.48-1,1.06-1.35,1.69-.35.63-.59,1.32-.72,2.03-.08.44-.12.89-.13,1.33,0,0,0,0,0,0l1.63-1.14c.12-.08.28-.05.36.06.08.12.05.28-.06.36l-1.86,1.31s-.03.02-.05.03h0s0,0,0,0c.05.62.18,1.22.38,1.8,0,0,0,0,0,0h0s3.39-2.38,3.39-2.38c.12-.08.28-.05.36.06.08.12.05.28-.06.36l-3.49,2.45s0,0,0,0c.26.58.63,1.11,1.08,1.52,0,0,0,0,0,0h0s4.47-3.13,4.47-3.13c.12-.08.28-.05.36.06.08.12.05.28-.06.36l-4.34,3.04s0,0,0,0c.46.33.97.6,1.51.79.66.24,1.37.37,2.08.44.72.06,1.44.07,2.18.07.74,0,1.48,0,2.24.08.75.08,1.52.24,2.22.58.18.09.35.18.51.28.16.11.32.22.47.35.3.25.57.53.8.84.46.62.81,1.31,1.03,2.03.23.73.33,1.49.3,2.25Z"/>
  </g>
</svg>